<svg width="140" height="80" viewBox="0 0 140 80" fill="none" xmlns="http://www.w3.org/2000/svg">
<path d="M100.896 38.6486C100.848 37.276 100.715 35.9078 100.496 34.5519L100.23 32.9063L105.516 33.8829L105.025 32.0483L99.7431 31.0717L99.5357 30.3879C99.1385 29.0671 98.6574 27.773 98.0953 26.5135L97.4116 24.9944L102.675 24.5762L101.725 22.9318L96.4714 23.3478L96.0942 22.7358C95.3669 21.5542 94.5657 20.4196 93.6955 19.3388L92.6539 18.0489L97.5278 16.319L96.1843 14.9766L91.3366 16.6985L90.8136 16.1994C89.8025 15.2353 88.731 14.3367 87.6057 13.5089L86.2759 12.5368L90.4227 9.68796L88.7772 8.73757L84.6543 11.5751L84.0196 11.2252C82.7864 10.5451 81.5105 9.94553 80.1998 9.43042L78.6659 8.82874L81.8362 5.11152L80.0004 4.62037L76.8483 8.30568L76.1464 8.13133C74.7666 7.79136 73.3662 7.54165 71.954 7.38379L70.3119 7.20032L72.3631 2.90421H70.4577L68.4248 7.17297L67.6977 7.1855C66.266 7.2109 64.8374 7.32929 63.421 7.53991L61.788 7.78377L62.629 3.23468L60.7932 3.72696L59.9647 8.24187L59.2651 8.44357C57.8776 8.84276 56.5185 9.33463 55.1969 9.91587L53.6835 10.5791L53.3257 6.07216L51.6813 7.02141L52.0369 11.501L51.4181 11.8748C50.1754 12.6312 48.9839 13.4687 47.8513 14.3818L46.5613 15.421L45.0708 11.2195L43.7273 12.5631L45.2087 16.735L44.7084 17.258C43.7001 18.3142 42.7628 19.4361 41.9028 20.6163L40.9262 21.9575L38.4272 18.3292L37.4768 19.9747L39.9645 23.5905L39.6226 24.2241C38.9225 25.5109 38.3099 26.8434 37.7891 28.2125L37.1965 29.7703L33.8553 26.9214L33.3642 28.7561L36.6996 31.605L36.5355 32.3035C36.1996 33.7311 35.9605 35.1797 35.8199 36.6395L35.6581 38.3078L31.6583 36.4036V38.2907L35.6626 40.1972L35.6866 40.9106C35.735 42.3731 35.8812 43.8308 36.1242 45.2739L36.4034 46.9297L31.9887 46.1149L32.481 47.9496L36.9002 48.7746L37.1099 49.4583C37.5423 50.8521 38.0672 52.2153 38.6813 53.5391L39.3935 55.0718L34.8217 55.4342L35.772 57.0797L40.3644 56.7059L40.7439 57.3019C41.5238 58.5261 42.3841 59.6971 43.3193 60.8072L44.4133 62.1074L39.969 63.6834L41.3126 65.0269L45.7807 63.4407L46.3015 63.9158C47.3663 64.8866 48.4938 65.7861 49.6769 66.6086L51.0762 67.5772L47.0878 70.3247L48.7333 71.2739L52.7514 68.5094L53.3759 68.8307C54.6466 69.4863 55.9591 70.0573 57.305 70.5401L58.9072 71.1098L55.6743 74.9L57.509 75.3923L60.7624 71.5657L61.4462 71.7115C62.8326 72.0079 64.2368 72.2134 65.65 72.3269L67.3502 72.4625L65.1451 77.0936H67.0448L69.2669 72.4215L69.9677 72.3861C71.3698 72.316 72.766 72.1562 74.1476 71.9075L75.8216 71.6033L74.8689 76.762L76.7036 76.2709L77.6643 71.0711L78.3309 70.8557C79.6566 70.427 80.9535 69.9135 82.2134 69.3185L83.7529 68.5914L84.1757 73.9268L85.8212 72.9764L85.395 67.6023L85.983 67.2217C87.1453 66.4691 88.2589 65.6439 89.3173 64.7511L90.6141 63.6572L92.4317 68.7783L93.7753 67.4348L91.952 62.2852L92.426 61.7644C93.3529 60.7462 94.2146 59.6706 95.006 58.544L95.9746 57.1663L99.0753 61.6721L100.025 60.0266L96.9102 55.498L97.2372 54.8712C97.8717 53.654 98.4289 52.398 98.9055 51.1107L99.489 49.5313L103.649 53.081L104.141 51.2452L99.963 47.6898L100.119 46.9981C100.419 45.6587 100.635 44.3019 100.765 42.9355L100.925 41.2638L105.843 43.6067V41.7094L100.918 39.363L100.896 38.6486Z" fill="#FAF33E"/>
<path d="M103.039 35.8173L108.747 36.8714L106.914 30.0078L101.574 29.0221C101.359 28.365 101.126 27.717 100.874 27.078L106.572 26.6222L103.02 20.4686L97.7118 20.8903C97.3357 20.3061 96.9407 19.7313 96.5266 19.1661L101.821 17.2881L96.7967 12.2639L91.8966 14.0017C91.377 13.5253 90.838 13.0627 90.2864 12.616L94.8116 9.50159L88.658 5.94846L84.5101 8.81216C83.8719 8.47713 83.2212 8.16147 82.566 7.86747L86.0382 3.79699L79.1747 1.95775L75.9965 5.68409C75.282 5.52341 74.5595 5.38552 73.8313 5.26929L76.0762 0.556102H68.9734L66.9222 4.85791C66.1758 4.8864 65.4305 4.93882 64.6921 5.01403L65.6174 0L58.7562 1.84266L57.9152 6.40087C57.1935 6.62878 56.4774 6.8772 55.7671 7.14613L55.374 2.18224L49.2204 5.73537L49.5793 10.256C48.9344 10.6655 48.3008 11.0977 47.6786 11.5528L46.0399 6.92734L41.0156 11.9516L42.5107 16.168C41.9911 16.7355 41.4881 17.322 41.0019 17.9274L38.2533 13.939L34.7002 20.0926L37.2141 23.7449C36.8585 24.4286 36.525 25.1302 36.2135 25.8496L32.5453 22.7147L30.7061 29.5771L34.086 32.4601C33.9242 33.218 33.7874 33.9849 33.6758 34.7552L29.3101 32.6732V39.7795L33.3704 41.7167C33.4114 42.4882 33.4786 43.2597 33.5709 44.0266L28.7574 43.1378L30.5967 50.0001L35.0831 50.8275C35.3232 51.5537 35.5891 52.2754 35.8808 52.9926L30.9249 53.3858L34.478 59.5393L39.1502 59.169C39.568 59.798 40.0082 60.4149 40.4709 61.0196L35.6757 62.713L40.7057 67.7373L45.2525 66.1237C45.8108 66.6122 46.3875 67.0851 46.9823 67.5424L42.6862 70.5052L48.8398 74.0572L52.9285 71.2437C53.5864 71.565 54.2553 71.8666 54.9352 72.1485L51.463 76.2076L58.3254 78.0457L61.6449 74.1541C62.353 74.2893 63.0644 74.4033 63.7793 74.496L61.4216 79.4473H68.5278L70.7898 74.6988C71.4941 74.6487 72.1995 74.5769 72.9014 74.4846L71.8815 80L78.7439 78.1619L79.7205 72.8732C80.378 72.6453 81.031 72.398 81.6748 72.1314L82.1307 77.8292L88.2842 74.2772L87.8501 68.8073C88.4176 68.4275 88.9752 68.026 89.5229 67.6028L91.4602 73.0727L96.4845 68.0484L94.6293 62.8201C95.0752 62.3096 95.5079 61.7843 95.9272 61.2441L99.2467 66.0678L102.799 59.9142L99.641 55.3264C99.9419 54.719 100.226 54.1014 100.491 53.4792L104.955 57.2864L106.8 50.4263L102.57 46.8174C102.704 46.1553 102.82 45.4852 102.912 44.8129L108.198 47.3302V40.2296L103.212 37.8559C103.175 37.1722 103.117 36.4919 103.039 35.8173ZM105.845 43.6084L100.926 41.2655L100.767 42.9372C100.637 44.3036 100.421 45.6604 100.121 46.9997L99.9624 47.6914L104.137 51.2514L103.645 53.0872L99.4849 49.5375L98.9015 51.1169C98.4248 52.4042 97.8676 53.6602 97.2332 54.8774L96.9061 55.5042L100.019 60.0293L99.0701 61.6749L95.9739 57.1679L95.0019 58.5491C94.21 59.675 93.348 60.7498 92.4208 61.7672L91.9468 62.2879L93.7701 67.4376L92.4265 68.7811L90.618 63.6622L89.3212 64.7562C88.2628 65.649 87.1492 66.4741 85.9869 67.2268L85.3989 67.6074L85.8251 72.9815L84.1796 73.9319L83.7568 68.5965L82.2173 69.3235C80.9574 69.9185 79.6605 70.432 78.3348 70.8608L77.6682 71.0762L76.7075 76.2759L74.8729 76.7671L75.8255 71.6083L74.147 71.9092C72.7654 72.1589 71.3692 72.3199 69.9671 72.3912L69.2663 72.4265L67.0441 77.0987H65.1445L67.3495 72.4676L65.6493 72.332C64.2361 72.2181 62.8319 72.0122 61.4455 71.7155L60.7618 71.5673L57.5015 75.3905L55.6668 74.8982L58.8986 71.1115L57.2964 70.5417C55.9505 70.0589 54.6379 69.4879 53.3672 68.8324L52.7427 68.511L48.7247 71.2756L47.0792 70.3263L51.0756 67.5789L49.683 66.6091C48.5 65.7866 47.3724 64.8871 46.3077 63.9164L45.7869 63.4412L41.313 65.0263L39.9695 63.6827L44.4138 62.1067L43.3209 60.8088C42.3858 59.6987 41.5254 58.5277 40.7455 57.3035L40.3638 56.7075L35.7703 57.0722L34.8199 55.4267L39.3918 55.0643L38.6795 53.5316C38.0654 52.2079 37.5405 50.8446 37.1081 49.4509L36.8984 48.7671L32.4758 47.9501L31.9835 46.1154L36.3981 46.9302L36.119 45.2744C35.8765 43.8321 35.7307 42.3751 35.6825 40.9133L35.6586 40.2L31.6542 38.2924V36.3962L35.654 38.3004L35.8158 36.632C35.9564 35.1722 36.1955 33.7236 36.5315 32.2961L36.6956 31.5975L33.3601 28.7486L33.8512 26.9139L37.1924 29.7628L37.785 28.2051C38.3058 26.8359 38.9184 25.5034 39.6185 24.2166L39.9604 23.583L37.4739 19.9718L38.4265 18.3308L40.9233 21.9592L41.8999 20.6179C42.7599 19.4377 43.6971 18.3159 44.7055 17.2597L45.2057 16.7366L43.7243 12.5647L45.0701 11.2212L46.5584 15.417L47.8484 14.3777C48.981 13.4647 50.1725 12.6272 51.4152 11.8707L52.0362 11.4958L51.6807 7.01622L53.3251 6.06698L53.6829 10.5739L55.1962 9.91752C56.5178 9.33667 57.8769 8.84518 59.2644 8.44636L59.9641 8.24352L60.7971 3.72862L62.6329 3.23633L61.7874 7.78542L63.4158 7.54156C64.8336 7.32922 66.2637 7.20931 67.6971 7.1826L68.4241 7.17006L70.4571 2.9013H72.3567L70.3055 7.19741L71.9453 7.38088C73.3604 7.5399 74.7635 7.79114 76.1457 8.13298L76.85 8.30734L80.002 4.61177L81.8378 5.10292L78.6653 8.82014L80.1991 9.42182C81.5098 9.93693 82.7858 10.5364 84.0189 11.2166L84.6536 11.5665L88.7765 8.72897L90.422 9.67936L86.2752 12.5282L87.6051 13.506C88.7304 14.3338 89.8018 15.2324 90.8129 16.1965L91.336 16.6956L96.1882 14.9737L97.5317 16.3161L92.6578 18.0505L93.6948 19.3405C94.5654 20.4208 95.367 21.555 96.0947 22.7363L96.4719 23.3483L101.725 22.9324L102.676 24.5767L97.4121 24.9949L98.0958 26.514C98.6579 27.7735 99.139 29.0676 99.5362 30.3884L99.7436 31.0722L105.025 32.0488L105.517 33.8834L100.23 32.9069L100.497 34.5524C100.715 35.9083 100.849 37.2765 100.897 38.6491L100.922 39.3613L105.846 41.711L105.845 43.6084Z" fill="black"/>
<path d="M68.7507 15.985C55.5068 15.985 44.7324 26.7584 44.7324 40.0011C44.7324 53.2439 55.5068 64.0195 68.7507 64.0195C81.9946 64.0195 92.7691 53.245 92.7691 40.0023C92.7691 26.7595 81.9946 15.985 68.7507 15.985ZM68.7507 61.9489C56.6487 61.9489 46.8041 52.1032 46.8041 40.0011C46.8041 27.8991 56.6487 18.0568 68.7507 18.0568C80.8528 18.0568 90.6974 27.9002 90.6974 40.0023C90.6974 52.1043 80.8528 61.9489 68.7507 61.9489Z" fill="black"/>
<path d="M135.329 30.1184L126.772 34.1068C119.073 30.4728 121.725 23.4999 121.725 23.4999C121.725 23.4999 130.204 19.6254 130.272 18.9929C130.339 18.3605 118.277 15.5538 114.549 22.3375C112.509 26.0559 110.675 27.6581 105.661 29.0871L101.576 29.9566V29.9486C101.576 29.9486 33.6409 43.8454 22.0175 46.161C21.4661 46.2677 20.897 46.2369 20.3604 46.0713C19.8237 45.9057 19.3362 45.6105 18.9407 45.2118C17.9982 44.2762 16.877 43.5399 15.644 43.0466C11.2943 41.2974 6.20622 42.9281 3.67072 46.8846C2.90149 48.0803 2.3991 49.4278 2.19779 50.8353C1.99648 52.2427 2.10098 53.677 2.50418 55.0404C2.90738 56.4038 3.59979 57.6642 4.53422 58.7358C5.46865 59.8073 6.62313 60.6648 7.91897 61.2498C12.2322 63.2076 17.4263 61.766 20.1179 57.8699C20.5369 57.2651 20.887 56.6153 21.1617 55.9327C21.3671 55.4169 21.6959 54.9593 22.1193 54.6001C22.5427 54.2409 23.0477 53.991 23.5901 53.8724L25.9125 53.3721V53.3801L107.292 36.8098C118.312 34.6732 119.014 41.8626 125.937 40.3892C132.859 38.9157 135.928 30.5081 135.329 30.1184ZM19.3293 51.6559L18.9476 51.7551L18.6365 51.8371C18.5994 51.8466 18.5644 51.8624 18.5328 51.8838L18.6923 52.6815L18.4997 53.2445C18.5235 53.261 18.5491 53.2748 18.5761 53.2855L18.902 53.4052L19.2438 53.5282C19.3265 53.559 19.3936 53.6212 19.4305 53.7013C19.4674 53.7813 19.4712 53.8727 19.441 53.9556L18.7778 55.756C18.7627 55.7971 18.7396 55.8347 18.71 55.8668C18.6803 55.8989 18.6446 55.9248 18.6049 55.9431C18.5653 55.9614 18.5224 55.9717 18.4787 55.9735C18.435 55.9752 18.3914 55.9683 18.3504 55.9532L18.0747 55.8518L17.7168 55.7264C17.6991 55.7199 17.6808 55.7149 17.6621 55.7116L17.571 55.9783L16.9066 56.5594C16.9103 56.6236 16.9325 56.6853 16.9704 56.7372L17.1254 56.9435L17.3681 57.2682C17.3944 57.3032 17.4136 57.3429 17.4245 57.3853C17.4354 57.4276 17.4378 57.4717 17.4317 57.515C17.4255 57.5583 17.4109 57.5999 17.3887 57.6375C17.3664 57.6752 17.337 57.7081 17.302 57.7343L15.7659 58.8841C15.731 58.9104 15.6912 58.9295 15.6489 58.9404C15.6065 58.9513 15.5625 58.9538 15.5192 58.9476C15.4759 58.9415 15.4343 58.9269 15.3966 58.9047C15.359 58.8824 15.3261 58.853 15.2999 58.818L15.1745 58.6505L14.9204 58.3086C14.9123 58.2979 14.9035 58.2876 14.8942 58.2779L13.4481 58.5639C13.3979 58.5922 13.3561 58.6332 13.3269 58.6829C13.2977 58.7325 13.2821 58.7889 13.2817 58.8465V59.4869C13.2817 59.5752 13.2466 59.6598 13.1842 59.7222C13.1218 59.7846 13.0372 59.8197 12.949 59.8197H11.0299C10.9417 59.8197 10.8571 59.7846 10.7947 59.7222C10.7323 59.6598 10.6972 59.5752 10.6972 59.4869V58.8499C10.6959 58.764 10.6606 58.6821 10.5992 58.622L9.18273 58.14C9.09954 58.1523 9.02438 58.1964 8.97306 58.2631L8.81352 58.4705L8.58561 58.769C8.55895 58.8036 8.52572 58.8325 8.48784 58.8542C8.44996 58.8759 8.40818 58.8899 8.36487 58.8954C8.32157 58.9009 8.27761 58.8978 8.23551 58.8863C8.19341 58.8748 8.15399 58.8551 8.11953 58.8283L6.59709 57.6523C6.52737 57.5984 6.48186 57.5191 6.47054 57.4317C6.45922 57.3443 6.48301 57.256 6.53669 57.1862L6.81133 56.8295L6.94351 56.6597C6.97187 56.6223 6.992 56.5793 7.00261 56.5335C7.01321 56.4878 7.01404 56.4403 7.00505 56.3942L5.96236 55.2034L5.94982 55.1566L5.53161 55.2706L5.3037 55.331C5.26142 55.3422 5.21736 55.3449 5.17403 55.339C5.13069 55.3332 5.08894 55.3188 5.05116 55.2968C5.01338 55.2748 4.9803 55.2455 4.95383 55.2107C4.92736 55.1759 4.90801 55.1363 4.89688 55.094L4.41143 53.2376C4.40026 53.1954 4.39752 53.1513 4.40339 53.108C4.40926 53.0646 4.42361 53.0229 4.44562 52.9851C4.46764 52.9473 4.49688 52.9142 4.53168 52.8878C4.56649 52.8613 4.60617 52.8419 4.64846 52.8308L5.02907 52.7317L5.34016 52.6508C5.37738 52.6408 5.4125 52.6242 5.44386 52.6018L5.28546 51.8041L5.47805 51.2343C5.45789 51.2213 5.43652 51.2102 5.41423 51.2013L5.07237 51.077L4.7305 50.9528C4.6895 50.9377 4.65187 50.9147 4.61977 50.885C4.58767 50.8554 4.56173 50.8197 4.54342 50.78C4.52511 50.7403 4.5148 50.6974 4.51308 50.6538C4.51135 50.6101 4.51824 50.5665 4.53336 50.5255L5.19658 48.7261C5.21157 48.6852 5.2345 48.6476 5.26405 48.6155C5.29359 48.5834 5.32918 48.5575 5.36877 48.5391C5.40836 48.5208 5.45118 48.5105 5.49476 48.5088C5.53835 48.507 5.58185 48.5139 5.62277 48.529L5.89968 48.6304L6.31562 48.7751L6.40678 48.5039L7.10647 47.892C7.09699 47.8697 7.08474 47.8486 7.07 47.8293L6.85349 47.5399L6.60962 47.214C6.58341 47.179 6.56435 47.1391 6.55354 47.0967C6.54273 47.0544 6.54038 47.0103 6.54662 46.967C6.55286 46.9237 6.56758 46.8821 6.58993 46.8445C6.61228 46.8069 6.64182 46.7741 6.67686 46.7479L8.21183 45.5981C8.24684 45.5719 8.28667 45.5528 8.32905 45.542C8.37143 45.5312 8.41552 45.5288 8.45881 45.5351C8.5021 45.5413 8.54373 45.556 8.58133 45.5784C8.61892 45.6007 8.65174 45.6303 8.67791 45.6653L8.80326 45.8328L9.08017 46.2032L10.6755 45.8852C10.686 45.8528 10.6914 45.819 10.6915 45.785V44.9873C10.6915 44.899 10.7266 44.8144 10.789 44.752C10.8514 44.6896 10.936 44.6545 11.0243 44.6545H12.9433C12.987 44.6545 13.0302 44.6631 13.0706 44.6799C13.111 44.6966 13.1476 44.7211 13.1785 44.752C13.2094 44.7829 13.234 44.8196 13.2507 44.8599C13.2674 44.9003 13.276 44.9436 13.276 44.9873V45.785C13.276 45.7975 13.276 45.81 13.276 45.8226L14.8714 46.3661C14.8818 46.3561 14.8917 46.3454 14.901 46.3342L15.1551 46.006L15.383 45.7086C15.4097 45.6739 15.443 45.6448 15.4809 45.623C15.5189 45.6012 15.5607 45.5871 15.6041 45.5815C15.6475 45.5759 15.6916 45.5789 15.7338 45.5903C15.7761 45.6018 15.8156 45.6215 15.8503 45.6482L17.3681 46.8208C17.4028 46.8474 17.4318 46.8806 17.4536 46.9184C17.4754 46.9562 17.4895 46.998 17.4952 47.0413C17.5008 47.0846 17.4978 47.1286 17.4863 47.1707C17.4749 47.2129 17.4553 47.2524 17.4285 47.2869L17.1539 47.6424L16.959 47.8943C16.9332 47.9282 16.9142 47.967 16.9032 48.0082L18.004 49.2617L18.0143 49.3119L18.4325 49.1979L18.6604 49.1375C18.7459 49.1153 18.8368 49.1279 18.913 49.1726C18.9893 49.2172 19.0447 49.2902 19.0672 49.3757L19.5527 51.2309C19.5663 51.2732 19.5714 51.3179 19.5675 51.3622C19.5636 51.4065 19.5509 51.4496 19.53 51.4889C19.5092 51.5282 19.4807 51.5629 19.4463 51.591C19.4118 51.6191 19.372 51.64 19.3293 51.6525V51.6559Z" fill="#F6F7FB"/>
<path d="M138.628 28.5137C138.575 28.4738 138.514 28.4373 138.469 28.3997L137.391 27.7C137.282 27.6295 137.157 27.5877 137.028 27.5788C136.899 27.5698 136.769 27.5939 136.652 27.6488L128.748 31.3398C128.625 31.3982 128.489 31.4222 128.353 31.4094C128.217 31.3966 128.088 31.3473 127.978 31.2668C127.806 31.1392 127.636 31.0002 127.476 30.8532L127.438 30.819C126.934 30.364 126.529 29.811 126.247 29.194L126.213 29.1211V29.1085C126.204 29.0823 126.193 29.0561 126.183 29.031L126.165 28.9855C126.15 28.949 126.135 28.9125 126.12 28.8715L126.106 28.8248C126.069 28.7222 126.04 28.6162 126.01 28.5125C125.986 28.4271 125.967 28.3393 125.948 28.2527V28.2425C125.931 28.1604 125.914 28.0784 125.902 27.9952C125.863 27.7406 125.842 27.4835 125.839 27.226C125.839 27.1531 125.839 27.0813 125.839 27.0117C125.843 26.8705 125.886 26.7331 125.963 26.6148C126.04 26.4965 126.149 26.402 126.277 26.3417C127.037 25.9839 127.922 25.5611 128.805 25.1269C130.092 24.4933 131.13 23.9555 131.89 23.5316C133.164 22.8159 134.609 22.0046 134.81 20.2177C134.819 20.1345 134.824 20.0468 134.827 19.9568C134.856 18.7033 134.169 17.5865 132.989 16.9632C132.637 16.7821 132.269 16.6334 131.89 16.5187C130.443 16.0629 127.006 15.3929 123.302 15.8042C123.161 15.8202 123.022 15.8373 122.881 15.8555C122.462 15.9114 122.049 15.9809 121.651 16.0618C121.423 16.1096 121.185 16.1621 120.961 16.2168C117.468 17.084 114.826 18.9916 113.326 21.7345C112.414 23.3982 111.697 24.3224 110.774 25.0323C110.632 25.1463 110.48 25.2489 110.318 25.3503C110.079 25.5056 109.832 25.6486 109.579 25.7788C109.492 25.8243 109.402 25.8688 109.311 25.9121C108.48 26.2964 107.621 26.6164 106.741 26.8693L106.408 26.9673C106.39 26.9731 106.371 26.9776 106.353 26.981L103.426 27.6043L102.423 27.8094C101.776 27.9416 34.26 41.7484 22.8895 44.0139C22.8339 44.0198 22.7778 44.0125 22.7255 43.9927C22.6732 43.9729 22.6264 43.9411 22.5887 43.8999C22.1391 43.4544 21.6573 43.0427 21.1471 42.6681L21.1118 42.6407C20.9545 42.5252 20.787 42.409 20.6093 42.292L20.5785 42.2715C19.8513 41.7955 19.0787 41.3928 18.272 41.0693C15.89 40.1135 13.2781 39.8856 10.7665 40.4141C8.2549 40.9427 5.95642 42.2041 4.16166 44.0389C2.3669 45.8736 1.15645 48.1993 0.683341 50.722C0.210233 53.2446 0.495715 55.8509 1.50369 58.2113C2.51167 60.5716 4.19689 62.5802 6.34627 63.9829C8.49565 65.3856 11.0127 66.1196 13.5791 66.0919C16.1456 66.0642 18.6462 65.2762 20.7649 63.8275C22.8836 62.3788 24.5251 60.3344 25.482 57.9529C25.5017 57.9033 25.5325 57.8588 25.572 57.823C25.583 57.8129 25.5948 57.8037 25.6073 57.7956C25.6262 57.7823 25.6469 57.7719 25.6689 57.7648L25.7008 57.7557L27.2962 57.4139L109.344 40.7035C109.817 40.6123 110.28 40.5382 110.719 40.4835C114.753 39.9844 116.745 41.1274 118.854 42.3364C121.172 43.6663 123.8 45.1751 128.034 44.2737C132.067 43.4156 134.849 40.822 136.473 38.797C136.526 38.7309 136.578 38.6659 136.628 38.601C138.592 36.0849 139.591 33.5528 139.851 32.1488C139.911 31.833 139.94 31.512 139.938 31.1905C139.926 30.076 139.459 29.1256 138.628 28.5137Z" fill="black"/>
<path d="M135.329 30.1184L126.772 34.1068C119.073 30.4728 121.725 23.4999 121.725 23.4999C121.725 23.4999 130.204 19.6254 130.272 18.9929C130.339 18.3605 118.277 15.5538 114.549 22.3375C112.509 26.0559 110.675 27.6581 105.661 29.0871L101.576 29.9566V29.9486C101.576 29.9486 33.6409 43.8454 22.0175 46.161C21.4661 46.2677 20.897 46.2369 20.3604 46.0713C19.8237 45.9057 19.3362 45.6105 18.9407 45.2118C17.9982 44.2762 16.877 43.5399 15.644 43.0466C11.2943 41.2974 6.20622 42.9281 3.67072 46.8846C2.90149 48.0803 2.3991 49.4278 2.19779 50.8353C1.99648 52.2427 2.10098 53.677 2.50418 55.0404C2.90738 56.4038 3.59979 57.6642 4.53422 58.7358C5.46865 59.8073 6.62313 60.6648 7.91897 61.2498C12.2322 63.2076 17.4263 61.766 20.1179 57.8699C20.5369 57.2651 20.887 56.6153 21.1617 55.9327C21.3671 55.4169 21.6959 54.9593 22.1193 54.6001C22.5427 54.2409 23.0477 53.991 23.5901 53.8724L25.9125 53.3721V53.3801L107.292 36.8098C118.312 34.6732 119.014 41.8626 125.937 40.3892C132.859 38.9157 135.928 30.5081 135.329 30.1184ZM19.3293 51.6559L18.9476 51.7551L18.6365 51.8371C18.5994 51.8466 18.5644 51.8624 18.5328 51.8838L18.6923 52.6815L18.4997 53.2445C18.5235 53.261 18.5491 53.2748 18.5761 53.2855L18.902 53.4052L19.2438 53.5282C19.3265 53.559 19.3936 53.6212 19.4305 53.7013C19.4674 53.7813 19.4712 53.8727 19.441 53.9556L18.7778 55.756C18.7627 55.7971 18.7396 55.8347 18.71 55.8668C18.6803 55.8989 18.6446 55.9248 18.6049 55.9431C18.5653 55.9614 18.5224 55.9717 18.4787 55.9735C18.435 55.9752 18.3914 55.9683 18.3504 55.9532L18.0747 55.8518L17.7168 55.7264C17.6991 55.7199 17.6808 55.7149 17.6621 55.7116L17.571 55.9783L16.9066 56.5594C16.9103 56.6236 16.9325 56.6853 16.9704 56.7372L17.1254 56.9435L17.3681 57.2682C17.3944 57.3032 17.4136 57.3429 17.4245 57.3853C17.4354 57.4276 17.4378 57.4717 17.4317 57.515C17.4255 57.5583 17.4109 57.5999 17.3887 57.6375C17.3664 57.6752 17.337 57.7081 17.302 57.7343L15.7659 58.8841C15.731 58.9104 15.6912 58.9295 15.6489 58.9404C15.6065 58.9513 15.5625 58.9538 15.5192 58.9476C15.4759 58.9415 15.4343 58.9269 15.3966 58.9047C15.359 58.8824 15.3261 58.853 15.2999 58.818L15.1745 58.6505L14.9204 58.3086C14.9123 58.2979 14.9035 58.2876 14.8942 58.2779L13.4481 58.5639C13.3979 58.5922 13.3561 58.6332 13.3269 58.6829C13.2977 58.7325 13.2821 58.7889 13.2817 58.8465V59.4869C13.2817 59.5752 13.2466 59.6598 13.1842 59.7222C13.1218 59.7846 13.0372 59.8197 12.949 59.8197H11.0299C10.9417 59.8197 10.8571 59.7846 10.7947 59.7222C10.7323 59.6598 10.6972 59.5752 10.6972 59.4869V58.8499C10.6959 58.764 10.6606 58.6821 10.5992 58.622L9.18273 58.14C9.09954 58.1523 9.02438 58.1964 8.97306 58.2631L8.81352 58.4705L8.58561 58.769C8.55895 58.8036 8.52572 58.8325 8.48784 58.8542C8.44996 58.8759 8.40818 58.8899 8.36487 58.8954C8.32157 58.9009 8.27761 58.8978 8.23551 58.8863C8.19341 58.8748 8.15399 58.8551 8.11953 58.8283L6.59709 57.6523C6.52737 57.5984 6.48186 57.5191 6.47054 57.4317C6.45922 57.3443 6.48301 57.256 6.53669 57.1862L6.81133 56.8295L6.94351 56.6597C6.97187 56.6223 6.992 56.5793 7.00261 56.5335C7.01321 56.4878 7.01404 56.4403 7.00505 56.3942L5.96236 55.2034L5.94982 55.1566L5.53161 55.2706L5.3037 55.331C5.26142 55.3422 5.21736 55.3449 5.17403 55.339C5.13069 55.3332 5.08894 55.3188 5.05116 55.2968C5.01338 55.2748 4.9803 55.2455 4.95383 55.2107C4.92736 55.1759 4.90801 55.1363 4.89688 55.094L4.41143 53.2376C4.40026 53.1954 4.39752 53.1513 4.40339 53.108C4.40926 53.0646 4.42361 53.0229 4.44562 52.9851C4.46764 52.9473 4.49688 52.9142 4.53168 52.8878C4.56649 52.8613 4.60617 52.8419 4.64846 52.8308L5.02907 52.7317L5.34016 52.6508C5.37738 52.6408 5.4125 52.6242 5.44386 52.6018L5.28546 51.8041L5.47805 51.2343C5.45789 51.2213 5.43652 51.2102 5.41423 51.2013L5.07237 51.077L4.7305 50.9528C4.6895 50.9377 4.65187 50.9147 4.61977 50.885C4.58767 50.8554 4.56173 50.8197 4.54342 50.78C4.52511 50.7403 4.5148 50.6974 4.51308 50.6538C4.51135 50.6101 4.51824 50.5665 4.53336 50.5255L5.19658 48.7261C5.21157 48.6852 5.2345 48.6476 5.26405 48.6155C5.29359 48.5834 5.32918 48.5575 5.36877 48.5391C5.40836 48.5208 5.45118 48.5105 5.49476 48.5088C5.53835 48.507 5.58185 48.5139 5.62277 48.529L5.89968 48.6304L6.31562 48.7751L6.40678 48.5039L7.10647 47.892C7.09699 47.8697 7.08474 47.8486 7.07 47.8293L6.85349 47.5399L6.60962 47.214C6.58341 47.179 6.56435 47.1391 6.55354 47.0967C6.54273 47.0544 6.54038 47.0103 6.54662 46.967C6.55286 46.9237 6.56758 46.8821 6.58993 46.8445C6.61228 46.8069 6.64182 46.7741 6.67686 46.7479L8.21183 45.5981C8.24684 45.5719 8.28667 45.5528 8.32905 45.542C8.37143 45.5312 8.41552 45.5288 8.45881 45.5351C8.5021 45.5413 8.54373 45.556 8.58133 45.5784C8.61892 45.6007 8.65174 45.6303 8.67791 45.6653L8.80326 45.8328L9.08017 46.2032L10.6755 45.8852C10.686 45.8528 10.6914 45.819 10.6915 45.785V44.9873C10.6915 44.899 10.7266 44.8144 10.789 44.752C10.8514 44.6896 10.936 44.6545 11.0243 44.6545H12.9433C12.987 44.6545 13.0302 44.6631 13.0706 44.6799C13.111 44.6966 13.1476 44.7211 13.1785 44.752C13.2094 44.7829 13.234 44.8196 13.2507 44.8599C13.2674 44.9003 13.276 44.9436 13.276 44.9873V45.785C13.276 45.7975 13.276 45.81 13.276 45.8226L14.8714 46.3661C14.8818 46.3561 14.8917 46.3454 14.901 46.3342L15.1551 46.006L15.383 45.7086C15.4097 45.6739 15.443 45.6448 15.4809 45.623C15.5189 45.6012 15.5607 45.5871 15.6041 45.5815C15.6475 45.5759 15.6916 45.5789 15.7338 45.5903C15.7761 45.6018 15.8156 45.6215 15.8503 45.6482L17.3681 46.8208C17.4028 46.8474 17.4318 46.8806 17.4536 46.9184C17.4754 46.9562 17.4895 46.998 17.4952 47.0413C17.5008 47.0846 17.4978 47.1286 17.4863 47.1707C17.4749 47.2129 17.4553 47.2524 17.4285 47.2869L17.1539 47.6424L16.959 47.8943C16.9332 47.9282 16.9142 47.967 16.9032 48.0082L18.004 49.2617L18.0143 49.3119L18.4325 49.1979L18.6604 49.1375C18.7459 49.1153 18.8368 49.1279 18.913 49.1726C18.9893 49.2172 19.0447 49.2902 19.0672 49.3757L19.5527 51.2309C19.5663 51.2732 19.5714 51.3179 19.5675 51.3622C19.5636 51.4065 19.5509 51.4496 19.53 51.4889C19.5092 51.5282 19.4807 51.5629 19.4463 51.591C19.4118 51.6191 19.372 51.64 19.3293 51.6525V51.6559Z" fill="#F6F7FB"/>
<path d="M135.329 30.1184L126.772 34.1068C119.073 30.4728 121.725 23.4999 121.725 23.4999C121.725 23.4999 130.204 19.6254 130.272 18.9929C130.339 18.3605 118.277 15.5538 114.549 22.3375C112.509 26.0559 110.675 27.6581 105.661 29.0871L101.576 29.9566V29.9486C101.576 29.9486 33.6409 43.8454 22.0175 46.161C21.4661 46.2677 20.897 46.2369 20.3604 46.0713C19.8237 45.9057 19.3362 45.6105 18.9407 45.2118C17.9982 44.2762 16.877 43.5399 15.644 43.0466C11.2943 41.2974 6.20622 42.9281 3.67072 46.8846C2.90149 48.0803 2.3991 49.4278 2.19779 50.8353C1.99648 52.2427 2.10098 53.677 2.50418 55.0404C2.90738 56.4038 3.59979 57.6642 4.53422 58.7358C5.46865 59.8073 6.62313 60.6648 7.91897 61.2498C12.2322 63.2076 17.4263 61.766 20.1179 57.8699C20.5369 57.2651 20.887 56.6153 21.1617 55.9327C21.3671 55.4169 21.6959 54.9593 22.1193 54.6001C22.5427 54.2409 23.0477 53.991 23.5901 53.8724L25.9125 53.3721V53.3801L107.292 36.8098C118.312 34.6732 119.014 41.8626 125.937 40.3892C132.859 38.9157 135.928 30.5081 135.329 30.1184ZM19.3293 51.6559L18.9476 51.7551L18.6365 51.8371C18.5994 51.8466 18.5644 51.8624 18.5328 51.8838L18.6923 52.6815L18.4997 53.2445C18.5235 53.261 18.5491 53.2748 18.5761 53.2855L18.902 53.4052L19.2438 53.5282C19.3265 53.559 19.3936 53.6212 19.4305 53.7013C19.4674 53.7813 19.4712 53.8727 19.441 53.9556L18.7778 55.756C18.7627 55.7971 18.7396 55.8347 18.71 55.8668C18.6803 55.8989 18.6446 55.9248 18.6049 55.9431C18.5653 55.9614 18.5224 55.9717 18.4787 55.9735C18.435 55.9752 18.3914 55.9683 18.3504 55.9532L18.0747 55.8518L17.7168 55.7264C17.6991 55.7199 17.6808 55.7149 17.6621 55.7116L17.571 55.9783L16.9066 56.5594C16.9103 56.6236 16.9325 56.6853 16.9704 56.7372L17.1254 56.9435L17.3681 57.2682C17.3944 57.3032 17.4136 57.3429 17.4245 57.3853C17.4354 57.4276 17.4378 57.4717 17.4317 57.515C17.4255 57.5583 17.4109 57.5999 17.3887 57.6375C17.3664 57.6752 17.337 57.7081 17.302 57.7343L15.7659 58.8841C15.731 58.9104 15.6912 58.9295 15.6489 58.9404C15.6065 58.9513 15.5625 58.9538 15.5192 58.9476C15.4759 58.9415 15.4343 58.9269 15.3966 58.9047C15.359 58.8824 15.3261 58.853 15.2999 58.818L15.1745 58.6505L14.9204 58.3086C14.9123 58.2979 14.9035 58.2876 14.8942 58.2779L13.4481 58.5639C13.3979 58.5922 13.3561 58.6332 13.3269 58.6829C13.2977 58.7325 13.2821 58.7889 13.2817 58.8465V59.4869C13.2817 59.5752 13.2466 59.6598 13.1842 59.7222C13.1218 59.7846 13.0372 59.8197 12.949 59.8197H11.0299C10.9417 59.8197 10.8571 59.7846 10.7947 59.7222C10.7323 59.6598 10.6972 59.5752 10.6972 59.4869V58.8499C10.6959 58.764 10.6606 58.6821 10.5992 58.622L9.18273 58.14C9.09954 58.1523 9.02438 58.1964 8.97306 58.2631L8.81352 58.4705L8.58561 58.769C8.55895 58.8036 8.52572 58.8325 8.48784 58.8542C8.44996 58.8759 8.40818 58.8899 8.36487 58.8954C8.32157 58.9009 8.27761 58.8978 8.23551 58.8863C8.19341 58.8748 8.15399 58.8551 8.11953 58.8283L6.59709 57.6523C6.52737 57.5984 6.48186 57.5191 6.47054 57.4317C6.45922 57.3443 6.48301 57.256 6.53669 57.1862L6.81133 56.8295L6.94351 56.6597C6.97187 56.6223 6.992 56.5793 7.00261 56.5335C7.01321 56.4878 7.01404 56.4403 7.00505 56.3942L5.96236 55.2034L5.94982 55.1566L5.53161 55.2706L5.3037 55.331C5.26142 55.3422 5.21736 55.3449 5.17403 55.339C5.13069 55.3332 5.08894 55.3188 5.05116 55.2968C5.01338 55.2748 4.9803 55.2455 4.95383 55.2107C4.92736 55.1759 4.90801 55.1363 4.89688 55.094L4.41143 53.2376C4.40026 53.1954 4.39752 53.1513 4.40339 53.108C4.40926 53.0646 4.42361 53.0229 4.44562 52.9851C4.46764 52.9473 4.49688 52.9142 4.53168 52.8878C4.56649 52.8613 4.60617 52.8419 4.64846 52.8308L5.02907 52.7317L5.34016 52.6508C5.37738 52.6408 5.4125 52.6242 5.44386 52.6018L5.28546 51.8041L5.47805 51.2343C5.45789 51.2213 5.43652 51.2102 5.41423 51.2013L5.07237 51.077L4.7305 50.9528C4.6895 50.9377 4.65187 50.9147 4.61977 50.885C4.58767 50.8554 4.56173 50.8197 4.54342 50.78C4.52511 50.7403 4.5148 50.6974 4.51308 50.6538C4.51135 50.6101 4.51824 50.5665 4.53336 50.5255L5.19658 48.7261C5.21157 48.6852 5.2345 48.6476 5.26405 48.6155C5.29359 48.5834 5.32918 48.5575 5.36877 48.5391C5.40836 48.5208 5.45118 48.5105 5.49476 48.5088C5.53835 48.507 5.58185 48.5139 5.62277 48.529L5.89968 48.6304L6.31562 48.7751L6.40678 48.5039L7.10647 47.892C7.09699 47.8697 7.08474 47.8486 7.07 47.8293L6.85349 47.5399L6.60962 47.214C6.58341 47.179 6.56435 47.1391 6.55354 47.0967C6.54273 47.0544 6.54038 47.0103 6.54662 46.967C6.55286 46.9237 6.56758 46.8821 6.58993 46.8445C6.61228 46.8069 6.64182 46.7741 6.67686 46.7479L8.21183 45.5981C8.24684 45.5719 8.28667 45.5528 8.32905 45.542C8.37143 45.5312 8.41552 45.5288 8.45881 45.5351C8.5021 45.5413 8.54373 45.556 8.58133 45.5784C8.61892 45.6007 8.65174 45.6303 8.67791 45.6653L8.80326 45.8328L9.08017 46.2032L10.6755 45.8852C10.686 45.8528 10.6914 45.819 10.6915 45.785V44.9873C10.6915 44.899 10.7266 44.8144 10.789 44.752C10.8514 44.6896 10.936 44.6545 11.0243 44.6545H12.9433C12.987 44.6545 13.0302 44.6631 13.0706 44.6799C13.111 44.6966 13.1476 44.7211 13.1785 44.752C13.2094 44.7829 13.234 44.8196 13.2507 44.8599C13.2674 44.9003 13.276 44.9436 13.276 44.9873V45.785C13.276 45.7975 13.276 45.81 13.276 45.8226L14.8714 46.3661C14.8818 46.3561 14.8917 46.3454 14.901 46.3342L15.1551 46.006L15.383 45.7086C15.4097 45.6739 15.443 45.6448 15.4809 45.623C15.5189 45.6012 15.5607 45.5871 15.6041 45.5815C15.6475 45.5759 15.6916 45.5789 15.7338 45.5903C15.7761 45.6018 15.8156 45.6215 15.8503 45.6482L17.3681 46.8208C17.4028 46.8474 17.4318 46.8806 17.4536 46.9184C17.4754 46.9562 17.4895 46.998 17.4952 47.0413C17.5008 47.0846 17.4978 47.1286 17.4863 47.1707C17.4749 47.2129 17.4553 47.2524 17.4285 47.2869L17.1539 47.6424L16.959 47.8943C16.9332 47.9282 16.9142 47.967 16.9032 48.0082L18.004 49.2617L18.0143 49.3119L18.4325 49.1979L18.6604 49.1375C18.7459 49.1153 18.8368 49.1279 18.913 49.1726C18.9893 49.2172 19.0447 49.2902 19.0672 49.3757L19.5527 51.2309C19.5663 51.2732 19.5714 51.3179 19.5675 51.3622C19.5636 51.4065 19.5509 51.4496 19.53 51.4889C19.5092 51.5282 19.4807 51.5629 19.4463 51.591C19.4118 51.6191 19.372 51.64 19.3293 51.6525V51.6559Z" fill="#FAF33E"/>
<path d="M50.8117 59.2969L51.4396 59.7698L51.4897 62.9788L54.5551 62.1207L55.1773 62.5902L52.6555 65.9325L51.9364 65.3901L53.4953 63.3229C53.5215 63.2887 53.5591 63.2443 53.6093 63.1884C53.6594 63.1326 53.7232 63.0665 53.7927 62.9867C53.7027 63.0335 53.6184 63.0756 53.5409 63.1121C53.4742 63.1432 53.4053 63.1691 53.3346 63.1896L50.8174 63.9132L50.6612 63.7992L50.6704 61.1783C50.6704 61.0974 50.6704 61.0153 50.6829 60.9333C50.6905 60.8489 50.7058 60.7654 50.7285 60.6837C50.6373 60.8319 50.5541 60.9549 50.4789 61.0541L48.9211 63.1212L48.2921 62.6472L50.8117 59.2969Z" fill="black"/>
<path d="M58.7475 64.2357L59.6226 64.5776L60.3292 69.3512L59.3104 68.9512L59.1771 67.9142L56.7065 66.9456L55.9191 67.6202L55.0074 67.2646L58.7475 64.2357ZM59.0745 67.0664L58.858 65.1508L57.3675 66.3963L59.0745 67.0664Z" fill="black"/>
<path d="M64.2946 66.6254L63.9835 69.2601L66.5931 69.5689L66.6991 68.6744L67.6426 68.99L67.5845 69.4812C67.5675 69.6446 67.5292 69.8051 67.4705 69.9586C67.4301 70.0712 67.3571 70.1692 67.2609 70.2401C67.1608 70.307 67.0448 70.3463 66.9247 70.3541C66.7606 70.3671 66.5956 70.3625 66.4324 70.3404L63.9527 70.0487C63.7888 70.0327 63.6272 69.9987 63.4707 69.9472C63.3558 69.9106 63.2522 69.845 63.1699 69.7569C63.094 69.665 63.0464 69.5529 63.0331 69.4344C63.0116 69.2718 63.0116 69.1071 63.0331 68.9444L63.2918 66.7531C63.3082 66.5895 63.3466 66.4289 63.4058 66.2756C63.4462 66.1634 63.5187 66.0655 63.6143 65.9941C63.7163 65.9269 63.8342 65.8876 63.9562 65.8802C64.1203 65.8672 64.2853 65.8717 64.4484 65.8939L66.9304 66.1879C67.0943 66.2038 67.256 66.2379 67.4124 66.2893C67.5275 66.3257 67.6311 66.3912 67.7133 66.4796C67.7894 66.5718 67.8369 66.6843 67.85 66.8032C67.8716 66.9655 67.8716 67.1298 67.85 67.2921L67.8033 67.6875L66.8187 67.7262L66.9122 66.9365L64.2946 66.6254Z" fill="black"/>
<path d="M70.2809 66.2866L71.2438 66.1373L71.4922 67.7407L74.4984 67.2735L74.2499 65.6701L75.2197 65.5197L75.8624 69.6563L74.8926 69.8079L74.6169 68.0279L71.6096 68.4905L71.8854 70.2705L70.9236 70.4278L70.2809 66.2866Z" fill="black"/>
<path d="M77.5568 64.6965L78.4684 64.3546L79.943 68.2735L79.0313 68.6154L77.5568 64.6965Z" fill="black"/>
<path d="M80.7734 63.4296L81.3341 63.0706L85.1493 63.5652C85.261 63.5789 85.3693 63.5948 85.4741 63.613C85.5801 63.6336 85.6872 63.6586 85.7977 63.6905C85.6952 63.5504 85.6086 63.4319 85.5356 63.3338C85.4627 63.2358 85.4103 63.1584 85.375 63.1059L84.1921 61.253L84.9305 60.7812L87.1834 64.3139L86.6228 64.6717L82.6343 64.1441C82.5557 64.1315 82.4771 64.1167 82.4064 64.1019C82.3358 64.0871 82.248 64.0677 82.1626 64.0449C82.264 64.1737 82.346 64.2831 82.411 64.3731C82.4759 64.4631 82.5249 64.5338 82.5546 64.5839L83.7727 66.4927L83.0343 66.9633L80.7734 63.4296Z" fill="black"/>
<path d="M86.7585 59.153L89.6462 55.9885L90.1738 56.4694L87.9425 58.9194L88.6263 59.5484L89.9356 58.1217L90.4632 58.6026L89.1596 60.0248L89.9265 60.7244L92.1851 58.2493L92.7663 58.7792L89.8524 61.97L86.7585 59.153Z" fill="black"/>
<path d="M91.9423 53.7701L92.74 54.1928L93.9627 51.8841C94.0385 51.7361 94.1294 51.5963 94.2339 51.467C94.31 51.372 94.4093 51.2983 94.5222 51.2528C94.6356 51.2149 94.7576 51.2109 94.8732 51.2414C95.0324 51.2818 95.1856 51.3427 95.329 51.4226L95.8384 51.6926C95.9849 51.7663 96.1213 51.8587 96.2441 51.9673C96.3338 52.0459 96.3987 52.1488 96.431 52.2636C96.4565 52.3826 96.451 52.5062 96.415 52.6225C96.3668 52.7807 96.3023 52.9335 96.2224 53.0783L95.0111 55.3654C94.9356 55.5133 94.8447 55.6527 94.7399 55.7814C94.6641 55.8767 94.5647 55.9505 94.4516 55.9956C94.3383 56.0338 94.2163 56.0382 94.1006 56.0081C93.9414 55.9678 93.7882 55.9068 93.6448 55.8269L93.5445 55.7734L93.7895 54.9301L94.2271 55.158L95.6139 52.5371L94.7672 52.0881L93.5445 54.3968C93.4696 54.5461 93.3787 54.6867 93.2733 54.8162C93.1974 54.9104 93.0985 54.9834 92.9861 55.0281C92.873 55.0654 92.7516 55.0694 92.6363 55.0395C92.4771 54.9991 92.3239 54.9382 92.1805 54.8583L91.7714 54.6418C91.6247 54.5684 91.4883 54.4761 91.3657 54.3672C91.2758 54.2887 91.2109 54.1858 91.1788 54.0709C91.1529 53.9532 91.1576 53.8308 91.1925 53.7154C91.2395 53.5571 91.3033 53.4043 91.3828 53.2595L92.4961 51.1582C92.5687 51.0168 92.655 50.8828 92.7536 50.7582C92.828 50.6632 92.9247 50.588 93.0351 50.5394C93.1421 50.4979 93.2589 50.4884 93.3713 50.5121C93.519 50.5432 93.6612 50.5966 93.7929 50.6705L93.8715 50.7126L93.6436 51.5673L93.2197 51.3394L91.9423 53.7701Z" fill="black"/>
<path d="M68.7512 12.5482C79.6465 12.5482 89.0786 18.9296 93.5103 28.1463C94.1097 27.9617 94.7148 27.7931 95.3188 27.6199C90.6466 17.626 80.4932 10.6861 68.7512 10.6861C53.6693 10.6861 41.2128 22.1352 39.6118 36.7978C40.226 36.8924 40.8391 36.995 41.451 37.101C42.9051 23.3215 54.5934 12.5482 68.7512 12.5482Z" fill="black"/>
<path d="M115.855 31.5902C116.451 30.9146 116.776 30.0422 116.767 29.1413V28.8131C116.731 25.5893 115.415 23.8527 114.318 22.9627C113.26 22.1069 111.39 21.2089 108.488 21.7935C106.574 22.1786 105.062 23.1062 104.043 24.4498C103.997 24.4076 103.95 24.3654 103.901 24.3256C103.482 23.9788 102.992 23.73 102.465 23.5973C101.938 23.4646 101.388 23.4514 100.855 23.5586L98.0687 24.1193C97.1796 24.2988 96.3895 24.804 95.8534 25.5358C94.7572 25.0799 93.302 24.852 91.4331 25.227C89.472 25.6212 87.921 26.5409 86.8498 27.8901C85.7012 27.2166 84.001 26.7232 81.6535 27.1961C80.4954 27.4122 79.3976 27.8759 78.4354 28.5556C77.8386 28.3588 77.2011 28.3195 76.5848 28.4416L69.6073 29.8456C69.0315 29.962 68.4926 30.2166 68.037 30.5874C67.4719 30.4223 66.8752 30.3965 66.298 30.5122L63.5118 31.0729C62.7943 31.2171 62.137 31.5746 61.6259 32.0985C60.9524 31.8144 60.2091 31.7398 59.4926 31.8842L55.2159 32.7446C54.6676 32.8552 54.1521 33.0904 53.7093 33.432C53.2665 33.7737 52.9082 34.2126 52.6621 34.7149C51.5374 34.0596 49.8691 33.5924 47.5262 34.0642C45.3496 34.5018 43.948 35.4966 43.042 36.6726C41.8934 36.0117 40.2102 35.5331 37.8901 36.0037C35.7762 36.4299 34.1398 37.4635 33.0664 38.9893C32.9567 38.8702 32.8395 38.7583 32.7154 38.6543C32.2968 38.3078 31.8061 38.0592 31.2791 37.9267C30.752 37.7942 30.2021 37.7811 29.6694 37.8885L26.8832 38.4526C26.0633 38.6172 25.3249 39.0585 24.7918 39.7027C24.2586 40.3469 23.963 41.1547 23.9545 41.9909L23.8018 57.3156C23.7963 57.8589 23.9123 58.3965 24.1412 58.8892C24.3701 59.3819 24.7062 59.8172 25.125 60.1633C25.5438 60.5094 26.0346 60.7576 26.5615 60.8897C27.0885 61.0218 27.6384 61.0345 28.1709 60.9268L34.2299 59.7064C34.9343 59.5651 35.5808 59.2177 36.0873 58.7081C36.7334 58.898 37.4037 58.9924 38.077 58.9885C38.6757 58.9867 39.2727 58.9252 39.8593 58.805C42.1053 58.3492 43.5617 57.3908 44.5075 56.2581C45.4831 56.7982 46.5832 57.0732 47.6982 57.0558C48.2971 57.0529 48.8942 56.99 49.4805 56.8678C50.848 56.5931 51.8986 56.1043 52.7134 55.522C53.3008 55.7101 53.9265 55.7446 54.531 55.6222L57.4574 55.0297C57.8916 54.9424 58.3064 54.7767 58.6812 54.5408C59.1177 54.6135 59.5638 54.6058 59.9974 54.518L62.7905 53.9562C63.1302 53.8891 63.4587 53.774 63.7659 53.6143C63.8685 53.6235 63.9733 53.628 64.077 53.628C64.3189 53.6278 64.5601 53.6038 64.7972 53.5562L70.8562 52.3369C71.2151 52.2634 71.5608 52.1362 71.8818 51.9597C72.2465 52.0005 72.6153 51.9836 72.9747 51.9096L75.746 51.3512C76.3209 51.2352 76.8593 50.9823 77.3155 50.6139C77.7718 50.2455 78.1325 49.7725 78.367 49.235C79.1909 49.749 80.3293 50.182 81.837 50.182C82.4362 50.1792 83.0336 50.1166 83.6204 49.9951C85.9154 49.5393 87.3809 48.5388 88.3301 47.3742C89.3328 47.9392 90.4681 48.2267 91.6189 48.2072C92.2181 48.2043 92.8155 48.1417 93.4023 48.0203C95.0387 47.6909 96.2511 47.0904 97.1628 46.3508C97.8512 46.6571 98.6179 46.7415 99.3564 46.5924L105.415 45.3731C106.085 45.2376 106.704 44.9166 107.2 44.4466C107.81 44.6117 108.439 44.6937 109.07 44.6905C109.678 44.6878 110.285 44.6245 110.881 44.5013C114.927 43.6866 117.173 40.9049 117.205 36.6658C117.219 34.5154 116.754 32.944 115.855 31.5902Z" fill="black"/>
<path d="M25.8497 40.7305L28.6359 40.1698L28.4912 52.9442L31.9703 52.2434L31.756 54.8359L25.697 56.0552L25.8497 40.7305Z" fill="#FAF33E"/>
<path d="M40.9349 42.0175L40.862 49.0918C40.8381 51.9099 40.1008 53.3822 37.3818 53.9292C34.7027 54.4682 33.4207 53.0837 33.4401 50.2462L33.4959 42.7787C33.5164 39.9879 34.7358 38.7094 36.8519 38.2832C39.4535 37.7601 40.976 39.0421 40.9349 42.0175ZM36.3118 42.1782L36.2457 50.2451C36.2354 51.0576 36.4234 51.7584 37.212 51.6C37.8878 51.4632 38.0348 50.8456 38.0496 49.9408L38.1145 41.8671C38.1145 40.9851 37.8684 40.4574 37.114 40.6136C36.5739 40.7184 36.3152 41.1936 36.3163 42.1782H36.3118Z" fill="#FAF33E"/>
<path d="M50.368 46.2285L50.3543 46.9009C50.2779 49.0979 50.2221 51.3451 47.0097 51.9924C44.4081 52.5155 43.1523 51.2745 43.1911 48.2957L43.2685 41.3547C43.3073 38.4272 43.9808 36.8489 46.4935 36.3406C49.944 35.6467 50.4204 38.0796 50.352 39.8949L50.3452 40.4898L47.5669 41.0493L47.5795 39.9462C47.5943 38.9673 47.3926 38.5309 46.7886 38.6528C46.2359 38.7668 46.1049 39.2226 46.0946 40.32L46.0171 48.2148C46.0171 49.2176 46.1311 49.8033 46.7784 49.6723C47.3607 49.5583 47.5043 49.0581 47.5282 47.9014L47.5476 46.7938L50.368 46.2285Z" fill="#FAF33E"/>
<path d="M55.3644 46.3451L54.9872 50.1558L52.0608 50.7449L54.1838 35.0191L58.4605 34.1576L60.3191 49.0823L57.5261 49.6441L57.1295 45.9896L55.3644 46.3451ZM56.9107 43.5019C56.7364 41.7288 56.4059 38.5836 56.2532 37.1797L56.1392 37.2013C56.08 38.3694 55.819 41.7413 55.6276 43.7606L56.9107 43.5019Z" fill="#FAF33E"/>
<path d="M62.4768 33.3528L65.263 32.7921L65.1183 45.5665L68.5985 44.8668L68.3831 47.4582L62.3241 48.6775L62.4768 33.3528Z" fill="#FAF33E"/>
<path d="M70.6323 34.2425L68.54 34.6629L68.5742 32.1252L75.5506 30.7201L75.5175 33.2579L73.4036 33.6841L73.276 46.4721L70.5058 47.0305L70.6323 34.2425Z" fill="#FAF33E"/>
<path d="M84.7037 33.2067L84.6296 40.2811C84.6068 43.098 83.8684 44.5703 81.1494 45.1173C78.4703 45.6575 77.1895 44.2718 77.2088 41.4354L77.2647 33.9668C77.2852 31.1772 78.5034 29.8986 80.6207 29.4724C83.2211 28.9482 84.739 30.2314 84.7037 33.2067ZM80.0794 33.3674L80.0133 41.4332C80.003 42.2468 80.191 42.9476 80.9796 42.7881C81.6554 42.6525 81.8024 42.0337 81.8172 41.13L81.8821 33.0552C81.8821 32.1732 81.636 31.6455 80.8828 31.8017C80.338 31.9111 80.0782 32.3828 80.0794 33.3674V33.3674Z" fill="#FAF33E"/>
<path d="M94.4811 31.2365L94.4082 38.3108C94.3843 41.1278 93.647 42.6001 90.928 43.1482C88.2489 43.6872 86.968 42.3027 86.9863 39.4652L87.0433 31.9966C87.0626 29.2069 88.2819 27.9284 90.3992 27.5022C92.9997 26.978 94.5176 28.2634 94.4811 31.2365ZM89.8579 31.3972L89.7919 39.4629C89.7816 40.2765 89.9696 40.9774 90.7582 40.8178C91.4339 40.6822 91.581 40.0635 91.5958 39.1598L91.6607 31.0849C91.6607 30.204 91.4146 29.6764 90.6602 29.8314C90.1155 29.9374 89.8568 30.4126 89.8579 31.3972V31.3972Z" fill="#FAF33E"/>
<path d="M97.0351 26.3963L99.8214 25.8356L99.6766 38.61L103.153 37.9103L102.938 40.5016L96.8859 41.721L97.0351 26.3963Z" fill="#FAF33E"/>
<path d="M107.257 35.2339V35.9598C107.285 37.0047 107.517 37.5141 108.204 37.3762C108.798 37.2566 109.002 36.7392 109.002 35.7057C108.994 34.4522 108.645 33.7582 107.101 32.5787C105.266 31.1737 104.48 30.3304 104.461 28.0011C104.443 25.7369 105.418 24.4799 107.452 24.0697C110.669 23.4224 111.344 25.6104 111.364 27.5556V27.8781L108.702 28.4137V27.8439C108.684 26.8434 108.534 26.1722 107.858 26.3089C107.402 26.4001 107.158 26.734 107.174 27.5203C107.197 28.5892 107.461 29.0256 108.703 30.0056C111.128 31.9064 111.806 32.9776 111.793 35.3421C111.773 37.8343 110.775 39.146 108.393 39.6257C105.643 40.1795 104.461 38.7528 104.481 36.1432L104.487 35.7843L107.257 35.2339Z" fill="#FAF33E"/>
<path d="M100.896 38.6486C100.848 37.276 100.715 35.9078 100.496 34.5519L100.23 32.9063L105.516 33.8829L105.025 32.0483L99.7431 31.0717L99.5357 30.3879C99.1385 29.0671 98.6574 27.773 98.0953 26.5135L97.4116 24.9944L102.675 24.5762L101.725 22.9318L96.4714 23.3478L96.0942 22.7358C95.3669 21.5542 94.5657 20.4196 93.6955 19.3388L92.6539 18.0489L97.5278 16.319L96.1843 14.9766L91.3366 16.6985L90.8136 16.1994C89.8025 15.2353 88.731 14.3367 87.6057 13.5089L86.2759 12.5368L90.4227 9.68796L88.7772 8.73758L84.6543 11.5751L84.0196 11.2252C82.7864 10.5451 81.5105 9.94553 80.1998 9.43042L78.6659 8.82874L81.8362 5.11152L80.0004 4.62037L76.8483 8.30568L76.1464 8.13133C74.7666 7.79136 73.3662 7.54165 71.954 7.38379L70.3119 7.20032L72.3631 2.90421H70.4577L68.4248 7.17297L67.6977 7.1855C66.266 7.2109 64.8374 7.32929 63.421 7.5399L61.788 7.78377L62.629 3.23468L60.7932 3.72696L59.9647 8.24187L59.2651 8.44357C57.8776 8.84276 56.5185 9.33463 55.1969 9.91587L53.6835 10.5791L53.3257 6.07216L51.6813 7.02141L52.0369 11.501L51.4181 11.8748C50.1754 12.6312 48.9839 13.4687 47.8513 14.3818L46.5613 15.4211L45.0708 11.2195L43.7273 12.5631L45.2087 16.735L44.7084 17.258C43.7001 18.3142 42.7628 19.4361 41.9028 20.6163L40.9262 21.9575L38.4272 18.3292L37.4768 19.9747L39.9645 23.5905L39.6226 24.2241C38.9225 25.5109 38.3099 26.8434 37.7891 28.2125L37.1965 29.7703L33.8553 26.9214L33.3642 28.7561L36.6996 31.605L36.5355 32.3035C36.1996 33.7311 35.9605 35.1797 35.8199 36.6395L35.6581 38.3078L31.6583 36.4036V38.2907L35.6626 40.1972L35.6866 40.9106C35.735 42.3731 35.8812 43.8308 36.1242 45.2739L36.4034 46.9297L31.9887 46.1149L32.481 47.9496L36.9002 48.7746L37.1099 49.4583C37.5423 50.8521 38.0672 52.2153 38.6813 53.5391L39.3935 55.0718L34.8217 55.4342L35.772 57.0797L40.3644 56.7059L40.7439 57.3019C41.5238 58.5261 42.3841 59.6971 43.3193 60.8071L44.4133 62.1074L39.969 63.6834L41.3126 65.0269L45.7807 63.4407L46.3015 63.9158C47.3663 64.8866 48.4938 65.7861 49.6769 66.6086L51.0762 67.5772L47.0878 70.3247L48.7333 71.2739L52.7514 68.5094L53.3758 68.8307C54.6466 69.4863 55.9591 70.0573 57.305 70.5401L58.9072 71.1098L55.6743 74.9L57.509 75.3923L60.7624 71.5657L61.4462 71.7115C62.8326 72.0079 64.2368 72.2134 65.65 72.3269L67.3502 72.4625L65.1451 77.0936H67.0448L69.2669 72.4215L69.9677 72.3861C71.3698 72.316 72.766 72.1562 74.1476 71.9075L75.8216 71.6033L74.8689 76.762L76.7036 76.2709L77.6643 71.0711L78.3309 70.8557C79.6566 70.427 80.9535 69.9135 82.2134 69.3185L83.7529 68.5914L84.1757 73.9268L85.8212 72.9764L85.395 67.6023L85.983 67.2217C87.1453 66.4691 88.2589 65.6439 89.3173 64.7511L90.6141 63.6572L92.4317 68.7783L93.7753 67.4348L91.952 62.2852L92.426 61.7644C93.3529 60.7462 94.2146 59.6706 95.006 58.544L95.9746 57.1663L99.0753 61.6721L100.025 60.0266L96.9102 55.498L97.2372 54.8712C97.8717 53.654 98.4289 52.398 98.9055 51.1107L99.489 49.5313L103.649 53.081L104.141 51.2452L99.963 47.6898L100.119 46.9981C100.419 45.6587 100.635 44.3019 100.765 42.9355L100.925 41.2638L105.843 43.6067V41.7094L100.918 39.3631L100.896 38.6486Z" fill="#FFC10E"/>
<path d="M103.039 35.8173L108.747 36.8714L106.914 30.0078L101.574 29.0221C101.359 28.365 101.126 27.717 100.874 27.078L106.572 26.6222L103.02 20.4686L97.7118 20.8903C97.3357 20.3061 96.9407 19.7313 96.5266 19.1661L101.821 17.2881L96.7967 12.2639L91.8966 14.0017C91.377 13.5253 90.838 13.0627 90.2864 12.616L94.8116 9.50159L88.658 5.94846L84.5101 8.81216C83.8719 8.47713 83.2212 8.16147 82.566 7.86747L86.0382 3.79699L79.1747 1.95775L75.9965 5.68409C75.282 5.52341 74.5595 5.38552 73.8313 5.26929L76.0762 0.556102H68.9734L66.9222 4.85791C66.1758 4.8864 65.4305 4.93882 64.6921 5.01403L65.6174 0L58.7562 1.84266L57.9152 6.40087C57.1935 6.62878 56.4774 6.8772 55.7671 7.14613L55.374 2.18224L49.2204 5.73537L49.5793 10.256C48.9344 10.6655 48.3008 11.0977 47.6786 11.5528L46.0399 6.92734L41.0156 11.9516L42.5107 16.168C41.9911 16.7355 41.4881 17.322 41.0019 17.9274L38.2533 13.939L34.7002 20.0926L37.2141 23.7449C36.8585 24.4286 36.525 25.1302 36.2135 25.8496L32.5453 22.7147L30.7061 29.5771L34.086 32.4601C33.9242 33.218 33.7874 33.9849 33.6758 34.7552L29.3101 32.6732V39.7795L33.3704 41.7167C33.4114 42.4882 33.4786 43.2597 33.5709 44.0266L28.7574 43.1378L30.5967 50.0001L35.0831 50.8275C35.3232 51.5537 35.5891 52.2754 35.8808 52.9926L30.9249 53.3858L34.478 59.5393L39.1502 59.169C39.568 59.798 40.0082 60.4149 40.4709 61.0196L35.6757 62.713L40.7057 67.7373L45.2525 66.1237C45.8108 66.6122 46.3875 67.0851 46.9823 67.5424L42.6862 70.5052L48.8398 74.0572L52.9285 71.2437C53.5864 71.565 54.2553 71.8666 54.9352 72.1485L51.463 76.2076L58.3254 78.0457L61.6449 74.1541C62.353 74.2893 63.0644 74.4033 63.7793 74.496L61.4216 79.4473H68.5278L70.7898 74.6988C71.4941 74.6487 72.1995 74.5769 72.9014 74.4846L71.8815 80L78.7439 78.1619L79.7205 72.8732C80.378 72.6453 81.031 72.398 81.6748 72.1314L82.1307 77.8292L88.2842 74.2772L87.8501 68.8073C88.4176 68.4275 88.9752 68.026 89.5229 67.6028L91.4602 73.0727L96.4845 68.0484L94.6293 62.8201C95.0752 62.3096 95.5079 61.7843 95.9272 61.2441L99.2467 66.0678L102.799 59.9142L99.641 55.3264C99.9419 54.719 100.226 54.1014 100.491 53.4792L104.955 57.2864L106.8 50.4263L102.57 46.8174C102.704 46.1553 102.82 45.4852 102.912 44.8129L108.198 47.3302V40.2296L103.212 37.8559C103.175 37.1722 103.117 36.4919 103.039 35.8173ZM105.845 43.6084L100.926 41.2655L100.767 42.9372C100.637 44.3036 100.421 45.6604 100.121 46.9997L99.9624 47.6914L104.137 51.2514L103.645 53.0872L99.4849 49.5375L98.9015 51.1169C98.4248 52.4042 97.8676 53.6602 97.2332 54.8774L96.9061 55.5042L100.019 60.0293L99.0701 61.6749L95.9739 57.1679L95.0019 58.5491C94.21 59.675 93.348 60.7498 92.4208 61.7672L91.9468 62.2879L93.7701 67.4376L92.4265 68.7811L90.618 63.6622L89.3212 64.7562C88.2628 65.649 87.1492 66.4741 85.9869 67.2268L85.3989 67.6074L85.8251 72.9815L84.1796 73.9319L83.7568 68.5965L82.2173 69.3235C80.9574 69.9185 79.6605 70.432 78.3348 70.8608L77.6682 71.0762L76.7075 76.2759L74.8729 76.7671L75.8255 71.6083L74.147 71.9092C72.7654 72.1589 71.3692 72.3199 69.9671 72.3912L69.2663 72.4265L67.0441 77.0987H65.1445L67.3495 72.4676L65.6493 72.332C64.2361 72.2181 62.8319 72.0122 61.4455 71.7155L60.7618 71.5673L57.5015 75.3905L55.6668 74.8982L58.8986 71.1115L57.2964 70.5417C55.9505 70.0589 54.6379 69.4879 53.3672 68.8324L52.7427 68.511L48.7247 71.2756L47.0792 70.3263L51.0756 67.5789L49.683 66.6091C48.5 65.7866 47.3724 64.8871 46.3077 63.9164L45.7869 63.4412L41.313 65.0263L39.9695 63.6827L44.4138 62.1067L43.3209 60.8088C42.3858 59.6987 41.5254 58.5277 40.7455 57.3035L40.3638 56.7075L35.7703 57.0722L34.8199 55.4267L39.3918 55.0643L38.6795 53.5316C38.0654 52.2079 37.5405 50.8446 37.1081 49.4509L36.8984 48.7671L32.4758 47.9501L31.9835 46.1154L36.3981 46.9302L36.119 45.2744C35.8765 43.8321 35.7307 42.3751 35.6825 40.9133L35.6586 40.2L31.6542 38.2924V36.3962L35.654 38.3004L35.8158 36.632C35.9564 35.1722 36.1955 33.7236 36.5315 32.2961L36.6956 31.5975L33.3601 28.7486L33.8512 26.9139L37.1924 29.7628L37.785 28.2051C38.3058 26.8359 38.9184 25.5034 39.6185 24.2166L39.9604 23.583L37.4739 19.9718L38.4265 18.3308L40.9233 21.9592L41.8999 20.6179C42.7599 19.4377 43.6971 18.3159 44.7055 17.2597L45.2057 16.7366L43.7243 12.5647L45.0701 11.2212L46.5584 15.417L47.8484 14.3777C48.981 13.4647 50.1725 12.6272 51.4152 11.8707L52.0362 11.4958L51.6807 7.01622L53.3251 6.06698L53.6829 10.5739L55.1962 9.91752C56.5178 9.33667 57.8769 8.84518 59.2644 8.44636L59.9641 8.24352L60.7971 3.72862L62.6329 3.23633L61.7874 7.78542L63.4158 7.54156C64.8336 7.32922 66.2637 7.20931 67.6971 7.1826L68.4241 7.17006L70.4571 2.9013H72.3567L70.3055 7.19741L71.9453 7.38088C73.3604 7.5399 74.7635 7.79114 76.1457 8.13298L76.85 8.30734L80.002 4.61177L81.8378 5.10292L78.6653 8.82014L80.1991 9.42182C81.5098 9.93693 82.7858 10.5364 84.0189 11.2166L84.6536 11.5665L88.7765 8.72897L90.422 9.67936L86.2752 12.5282L87.6051 13.506C88.7304 14.3338 89.8018 15.2324 90.8129 16.1965L91.336 16.6956L96.1882 14.9737L97.5317 16.3161L92.6578 18.0505L93.6948 19.3405C94.5654 20.4208 95.367 21.555 96.0947 22.7363L96.4719 23.3483L101.725 22.9324L102.676 24.5767L97.4121 24.9949L98.0958 26.514C98.6579 27.7735 99.139 29.0676 99.5362 30.3884L99.7436 31.0722L105.025 32.0488L105.517 33.8834L100.23 32.9069L100.497 34.5524C100.715 35.9083 100.849 37.2765 100.897 38.6491L100.922 39.3613L105.846 41.711L105.845 43.6084Z" fill="black"/>
<path d="M68.7507 15.985C55.5068 15.985 44.7324 26.7584 44.7324 40.0011C44.7324 53.2439 55.5068 64.0195 68.7507 64.0195C81.9946 64.0195 92.7691 53.245 92.7691 40.0023C92.7691 26.7595 81.9946 15.985 68.7507 15.985ZM68.7507 61.9489C56.6487 61.9489 46.8041 52.1032 46.8041 40.0011C46.8041 27.8991 56.6487 18.0568 68.7507 18.0568C80.8528 18.0568 90.6974 27.9002 90.6974 40.0023C90.6974 52.1043 80.8528 61.9489 68.7507 61.9489Z" fill="black"/>
<path d="M135.329 30.1184L126.772 34.1068C119.073 30.4728 121.725 23.4999 121.725 23.4999C121.725 23.4999 130.204 19.6254 130.272 18.9929C130.339 18.3605 118.277 15.5538 114.549 22.3375C112.509 26.0559 110.675 27.6581 105.661 29.0871L101.576 29.9566V29.9486C101.576 29.9486 33.6409 43.8454 22.0175 46.161C21.4661 46.2677 20.897 46.2369 20.3604 46.0713C19.8237 45.9057 19.3362 45.6105 18.9407 45.2118C17.9982 44.2762 16.877 43.5399 15.644 43.0466C11.2943 41.2974 6.20622 42.9281 3.67072 46.8846C2.90149 48.0803 2.3991 49.4278 2.19779 50.8353C1.99648 52.2427 2.10098 53.677 2.50418 55.0404C2.90738 56.4038 3.59979 57.6642 4.53422 58.7358C5.46865 59.8073 6.62313 60.6648 7.91897 61.2498C12.2322 63.2076 17.4263 61.766 20.1179 57.8699C20.5369 57.2651 20.887 56.6153 21.1617 55.9327C21.3671 55.4169 21.6959 54.9593 22.1193 54.6001C22.5427 54.2409 23.0477 53.991 23.5901 53.8724L25.9125 53.3721V53.3801L107.292 36.8098C118.312 34.6732 119.014 41.8626 125.937 40.3892C132.859 38.9157 135.928 30.5081 135.329 30.1184ZM19.3293 51.6559L18.9476 51.7551L18.6365 51.8371C18.5994 51.8466 18.5644 51.8624 18.5328 51.8838L18.6923 52.6815L18.4997 53.2445C18.5235 53.261 18.5491 53.2748 18.5761 53.2855L18.902 53.4052L19.2438 53.5282C19.3265 53.559 19.3936 53.6212 19.4305 53.7013C19.4674 53.7813 19.4712 53.8727 19.441 53.9556L18.7778 55.756C18.7627 55.7971 18.7396 55.8347 18.71 55.8668C18.6803 55.8989 18.6446 55.9248 18.6049 55.9431C18.5653 55.9614 18.5224 55.9717 18.4787 55.9735C18.435 55.9752 18.3914 55.9683 18.3504 55.9532L18.0747 55.8518L17.7168 55.7264C17.6991 55.7199 17.6808 55.7149 17.6621 55.7116L17.571 55.9783L16.9066 56.5594C16.9103 56.6236 16.9325 56.6853 16.9704 56.7372L17.1254 56.9435L17.3681 57.2682C17.3944 57.3032 17.4136 57.3429 17.4245 57.3853C17.4354 57.4276 17.4378 57.4717 17.4317 57.515C17.4255 57.5583 17.4109 57.5999 17.3887 57.6375C17.3664 57.6752 17.337 57.7081 17.302 57.7343L15.7659 58.8841C15.731 58.9104 15.6912 58.9295 15.6489 58.9404C15.6065 58.9513 15.5625 58.9538 15.5192 58.9476C15.4759 58.9415 15.4343 58.9269 15.3966 58.9047C15.359 58.8824 15.3261 58.853 15.2999 58.818L15.1745 58.6505L14.9204 58.3086C14.9123 58.2979 14.9035 58.2876 14.8942 58.2779L13.4481 58.5639C13.3979 58.5922 13.3561 58.6332 13.3269 58.6829C13.2977 58.7325 13.2821 58.7889 13.2817 58.8465V59.4869C13.2817 59.5752 13.2466 59.6598 13.1842 59.7222C13.1218 59.7846 13.0372 59.8197 12.949 59.8197H11.0299C10.9417 59.8197 10.8571 59.7846 10.7947 59.7222C10.7323 59.6598 10.6972 59.5752 10.6972 59.4869V58.8499C10.6959 58.764 10.6606 58.6821 10.5992 58.622L9.18273 58.14C9.09954 58.1523 9.02438 58.1964 8.97306 58.2631L8.81352 58.4705L8.58561 58.769C8.55895 58.8036 8.52572 58.8325 8.48784 58.8542C8.44996 58.8759 8.40818 58.8899 8.36487 58.8954C8.32157 58.9009 8.27761 58.8978 8.23551 58.8863C8.19341 58.8748 8.15399 58.8551 8.11953 58.8283L6.59709 57.6523C6.52737 57.5984 6.48186 57.5191 6.47054 57.4317C6.45922 57.3443 6.48301 57.256 6.53669 57.1862L6.81133 56.8295L6.94351 56.6597C6.97187 56.6223 6.992 56.5793 7.00261 56.5335C7.01321 56.4878 7.01404 56.4403 7.00505 56.3942L5.96236 55.2034L5.94982 55.1566L5.53161 55.2706L5.3037 55.331C5.26142 55.3422 5.21736 55.3449 5.17403 55.339C5.13069 55.3332 5.08894 55.3188 5.05116 55.2968C5.01338 55.2748 4.9803 55.2455 4.95383 55.2107C4.92736 55.1759 4.90801 55.1363 4.89688 55.094L4.41143 53.2376C4.40026 53.1954 4.39752 53.1513 4.40339 53.108C4.40926 53.0646 4.42361 53.0229 4.44562 52.9851C4.46764 52.9473 4.49688 52.9142 4.53168 52.8878C4.56649 52.8613 4.60617 52.8419 4.64846 52.8308L5.02907 52.7317L5.34016 52.6508C5.37738 52.6408 5.4125 52.6242 5.44386 52.6018L5.28546 51.8041L5.47805 51.2343C5.45789 51.2213 5.43652 51.2102 5.41423 51.2013L5.07237 51.077L4.7305 50.9528C4.6895 50.9377 4.65187 50.9147 4.61977 50.885C4.58767 50.8554 4.56173 50.8197 4.54342 50.78C4.52511 50.7403 4.5148 50.6974 4.51308 50.6538C4.51135 50.6101 4.51824 50.5665 4.53336 50.5255L5.19658 48.7261C5.21157 48.6852 5.2345 48.6476 5.26405 48.6155C5.29359 48.5834 5.32918 48.5575 5.36877 48.5391C5.40836 48.5208 5.45118 48.5105 5.49476 48.5088C5.53835 48.507 5.58185 48.5139 5.62277 48.529L5.89968 48.6304L6.31562 48.7751L6.40678 48.5039L7.10647 47.892C7.09699 47.8697 7.08474 47.8486 7.07 47.8293L6.85349 47.5399L6.60962 47.214C6.58341 47.179 6.56435 47.1391 6.55354 47.0967C6.54273 47.0544 6.54038 47.0103 6.54662 46.967C6.55286 46.9237 6.56758 46.8821 6.58993 46.8445C6.61228 46.8069 6.64182 46.7741 6.67686 46.7479L8.21183 45.5981C8.24684 45.5719 8.28667 45.5528 8.32905 45.542C8.37143 45.5312 8.41552 45.5288 8.45881 45.5351C8.5021 45.5413 8.54373 45.556 8.58133 45.5784C8.61892 45.6007 8.65174 45.6303 8.67791 45.6653L8.80326 45.8328L9.08017 46.2032L10.6755 45.8852C10.686 45.8528 10.6914 45.819 10.6915 45.785V44.9873C10.6915 44.899 10.7266 44.8144 10.789 44.752C10.8514 44.6896 10.936 44.6545 11.0243 44.6545H12.9433C12.987 44.6545 13.0302 44.6631 13.0706 44.6799C13.111 44.6966 13.1476 44.7211 13.1785 44.752C13.2094 44.7829 13.234 44.8196 13.2507 44.8599C13.2674 44.9003 13.276 44.9436 13.276 44.9873V45.785C13.276 45.7975 13.276 45.81 13.276 45.8226L14.8714 46.3661C14.8818 46.3561 14.8917 46.3454 14.901 46.3342L15.1551 46.006L15.383 45.7086C15.4097 45.6739 15.443 45.6448 15.4809 45.623C15.5189 45.6012 15.5607 45.5871 15.6041 45.5815C15.6475 45.5759 15.6916 45.5789 15.7338 45.5903C15.7761 45.6018 15.8156 45.6215 15.8503 45.6482L17.3681 46.8208C17.4028 46.8474 17.4318 46.8806 17.4536 46.9184C17.4754 46.9562 17.4895 46.998 17.4952 47.0413C17.5008 47.0846 17.4978 47.1286 17.4863 47.1707C17.4749 47.2129 17.4553 47.2524 17.4285 47.2869L17.1539 47.6424L16.959 47.8943C16.9332 47.9282 16.9142 47.967 16.9032 48.0082L18.004 49.2617L18.0143 49.3119L18.4325 49.1979L18.6604 49.1375C18.7459 49.1153 18.8368 49.1279 18.913 49.1726C18.9893 49.2172 19.0447 49.2902 19.0672 49.3757L19.5527 51.2309C19.5663 51.2732 19.5714 51.3179 19.5675 51.3622C19.5636 51.4065 19.5509 51.4496 19.53 51.4889C19.5092 51.5282 19.4807 51.5629 19.4463 51.591C19.4118 51.6191 19.372 51.64 19.3293 51.6525V51.6559Z" fill="white"/>
<path d="M138.628 28.5137C138.575 28.4738 138.514 28.4373 138.469 28.3997L137.391 27.7C137.282 27.6295 137.157 27.5877 137.028 27.5788C136.899 27.5698 136.769 27.5939 136.652 27.6488L128.748 31.3398C128.625 31.3982 128.489 31.4222 128.353 31.4094C128.217 31.3966 128.088 31.3473 127.978 31.2668C127.806 31.1392 127.636 31.0002 127.476 30.8532L127.438 30.819C126.934 30.364 126.529 29.811 126.247 29.194L126.213 29.1211V29.1085C126.204 29.0823 126.193 29.0561 126.183 29.031L126.165 28.9855C126.15 28.949 126.135 28.9125 126.12 28.8715L126.106 28.8248C126.069 28.7222 126.04 28.6162 126.01 28.5125C125.986 28.4271 125.967 28.3393 125.948 28.2527V28.2425C125.931 28.1604 125.914 28.0784 125.902 27.9952C125.863 27.7406 125.842 27.4835 125.839 27.226C125.839 27.1531 125.839 27.0813 125.839 27.0117C125.843 26.8705 125.886 26.7331 125.963 26.6148C126.04 26.4965 126.149 26.402 126.277 26.3417C127.037 25.9839 127.922 25.5611 128.805 25.1269C130.092 24.4933 131.13 23.9555 131.89 23.5316C133.164 22.8159 134.609 22.0046 134.81 20.2177C134.819 20.1345 134.824 20.0468 134.827 19.9568C134.856 18.7033 134.169 17.5865 132.989 16.9632C132.637 16.7821 132.269 16.6334 131.89 16.5187C130.443 16.0629 127.006 15.3929 123.302 15.8042C123.161 15.8202 123.022 15.8373 122.881 15.8555C122.462 15.9114 122.049 15.9809 121.651 16.0618C121.423 16.1096 121.185 16.1621 120.961 16.2168C117.468 17.084 114.826 18.9916 113.326 21.7345C112.414 23.3982 111.697 24.3224 110.774 25.0323C110.632 25.1463 110.48 25.2489 110.318 25.3503C110.079 25.5056 109.832 25.6486 109.579 25.7788C109.492 25.8243 109.402 25.8688 109.311 25.9121C108.48 26.2964 107.621 26.6164 106.741 26.8693L106.408 26.9673C106.39 26.9731 106.371 26.9776 106.353 26.981L103.426 27.6043L102.423 27.8094C101.776 27.9416 34.26 41.7484 22.8895 44.0139C22.8339 44.0198 22.7778 44.0125 22.7255 43.9927C22.6732 43.9729 22.6264 43.9411 22.5887 43.8999C22.1391 43.4544 21.6573 43.0427 21.1471 42.6681L21.1118 42.6407C20.9545 42.5252 20.787 42.409 20.6093 42.292L20.5785 42.2715C19.8513 41.7955 19.0787 41.3928 18.272 41.0693C15.89 40.1135 13.2781 39.8856 10.7665 40.4141C8.2549 40.9427 5.95642 42.2041 4.16166 44.0389C2.3669 45.8736 1.15645 48.1993 0.683341 50.722C0.210233 53.2446 0.495715 55.8509 1.50369 58.2113C2.51167 60.5716 4.19689 62.5802 6.34627 63.9829C8.49565 65.3856 11.0127 66.1196 13.5791 66.0919C16.1456 66.0642 18.6462 65.2762 20.7649 63.8275C22.8836 62.3788 24.5251 60.3344 25.482 57.9529C25.5017 57.9033 25.5325 57.8588 25.572 57.823C25.583 57.8129 25.5948 57.8037 25.6073 57.7956C25.6262 57.7823 25.6469 57.7719 25.6689 57.7648L25.7008 57.7557L27.2962 57.4139L109.344 40.7035C109.817 40.6123 110.28 40.5382 110.719 40.4835C114.753 39.9844 116.745 41.1274 118.854 42.3364C121.172 43.6663 123.8 45.1751 128.034 44.2737C132.067 43.4156 134.849 40.822 136.473 38.797C136.526 38.7309 136.578 38.6659 136.628 38.601C138.592 36.0849 139.591 33.5528 139.851 32.1488C139.911 31.833 139.94 31.512 139.938 31.1905C139.926 30.076 139.459 29.1256 138.628 28.5137Z" fill="black"/>
<path d="M135.329 30.1184L126.772 34.1068C119.073 30.4728 121.725 23.4999 121.725 23.4999C121.725 23.4999 130.204 19.6254 130.272 18.9929C130.339 18.3605 118.277 15.5538 114.549 22.3375C112.509 26.0559 110.675 27.6581 105.661 29.0871L101.576 29.9566V29.9486C101.576 29.9486 33.6409 43.8454 22.0175 46.161C21.4661 46.2677 20.897 46.2369 20.3604 46.0713C19.8237 45.9057 19.3362 45.6105 18.9407 45.2118C17.9982 44.2762 16.877 43.5399 15.644 43.0466C11.2943 41.2974 6.20622 42.9281 3.67072 46.8846C2.90149 48.0803 2.3991 49.4278 2.19779 50.8353C1.99648 52.2427 2.10098 53.677 2.50418 55.0404C2.90738 56.4038 3.59979 57.6642 4.53422 58.7358C5.46865 59.8073 6.62313 60.6648 7.91897 61.2498C12.2322 63.2076 17.4263 61.766 20.1179 57.8699C20.5369 57.2651 20.887 56.6153 21.1617 55.9327C21.3671 55.4169 21.6959 54.9593 22.1193 54.6001C22.5427 54.2409 23.0477 53.991 23.5901 53.8724L25.9125 53.3721V53.3801L107.292 36.8098C118.312 34.6732 119.014 41.8626 125.937 40.3892C132.859 38.9157 135.928 30.5081 135.329 30.1184ZM19.3293 51.6559L18.9476 51.7551L18.6365 51.8371C18.5994 51.8466 18.5644 51.8624 18.5328 51.8838L18.6923 52.6815L18.4997 53.2445C18.5235 53.261 18.5491 53.2748 18.5761 53.2855L18.902 53.4052L19.2438 53.5282C19.3265 53.559 19.3936 53.6212 19.4305 53.7013C19.4674 53.7813 19.4712 53.8727 19.441 53.9556L18.7778 55.756C18.7627 55.7971 18.7396 55.8347 18.71 55.8668C18.6803 55.8989 18.6446 55.9248 18.6049 55.9431C18.5653 55.9614 18.5224 55.9717 18.4787 55.9735C18.435 55.9752 18.3914 55.9683 18.3504 55.9532L18.0747 55.8518L17.7168 55.7264C17.6991 55.7199 17.6808 55.7149 17.6621 55.7116L17.571 55.9783L16.9066 56.5594C16.9103 56.6236 16.9325 56.6853 16.9704 56.7372L17.1254 56.9435L17.3681 57.2682C17.3944 57.3032 17.4136 57.3429 17.4245 57.3853C17.4354 57.4276 17.4378 57.4717 17.4317 57.515C17.4255 57.5583 17.4109 57.5999 17.3887 57.6375C17.3664 57.6752 17.337 57.7081 17.302 57.7343L15.7659 58.8841C15.731 58.9104 15.6912 58.9295 15.6489 58.9404C15.6065 58.9513 15.5625 58.9538 15.5192 58.9476C15.4759 58.9415 15.4343 58.9269 15.3966 58.9047C15.359 58.8824 15.3261 58.853 15.2999 58.818L15.1745 58.6505L14.9204 58.3086C14.9123 58.2979 14.9035 58.2876 14.8942 58.2779L13.4481 58.5639C13.3979 58.5922 13.3561 58.6332 13.3269 58.6829C13.2977 58.7325 13.2821 58.7889 13.2817 58.8465V59.4869C13.2817 59.5752 13.2466 59.6598 13.1842 59.7222C13.1218 59.7846 13.0372 59.8197 12.949 59.8197H11.0299C10.9417 59.8197 10.8571 59.7846 10.7947 59.7222C10.7323 59.6598 10.6972 59.5752 10.6972 59.4869V58.8499C10.6959 58.764 10.6606 58.6821 10.5992 58.622L9.18273 58.14C9.09954 58.1523 9.02438 58.1964 8.97306 58.2631L8.81352 58.4705L8.58561 58.769C8.55895 58.8036 8.52572 58.8325 8.48784 58.8542C8.44996 58.8759 8.40818 58.8899 8.36487 58.8954C8.32157 58.9009 8.27761 58.8978 8.23551 58.8863C8.19341 58.8748 8.15399 58.8551 8.11953 58.8283L6.59709 57.6523C6.52737 57.5984 6.48186 57.5191 6.47054 57.4317C6.45922 57.3443 6.48301 57.256 6.53669 57.1862L6.81133 56.8295L6.94351 56.6597C6.97187 56.6223 6.992 56.5793 7.00261 56.5335C7.01321 56.4878 7.01404 56.4403 7.00505 56.3942L5.96236 55.2034L5.94982 55.1566L5.53161 55.2706L5.3037 55.331C5.26142 55.3422 5.21736 55.3449 5.17403 55.339C5.13069 55.3332 5.08894 55.3188 5.05116 55.2968C5.01338 55.2748 4.9803 55.2455 4.95383 55.2107C4.92736 55.1759 4.90801 55.1363 4.89688 55.094L4.41143 53.2376C4.40026 53.1954 4.39752 53.1513 4.40339 53.108C4.40926 53.0646 4.42361 53.0229 4.44562 52.9851C4.46764 52.9473 4.49688 52.9142 4.53168 52.8878C4.56649 52.8613 4.60617 52.8419 4.64846 52.8308L5.02907 52.7317L5.34016 52.6508C5.37738 52.6408 5.4125 52.6242 5.44386 52.6018L5.28546 51.8041L5.47805 51.2343C5.45789 51.2213 5.43652 51.2102 5.41423 51.2013L5.07237 51.077L4.7305 50.9528C4.6895 50.9377 4.65187 50.9147 4.61977 50.885C4.58767 50.8554 4.56173 50.8197 4.54342 50.78C4.52511 50.7403 4.5148 50.6974 4.51308 50.6538C4.51135 50.6101 4.51824 50.5665 4.53336 50.5255L5.19658 48.7261C5.21157 48.6852 5.2345 48.6476 5.26405 48.6155C5.29359 48.5834 5.32918 48.5575 5.36877 48.5391C5.40836 48.5208 5.45118 48.5105 5.49476 48.5088C5.53835 48.507 5.58185 48.5139 5.62277 48.529L5.89968 48.6304L6.31562 48.7751L6.40678 48.5039L7.10647 47.892C7.09699 47.8697 7.08474 47.8486 7.07 47.8293L6.85349 47.5399L6.60962 47.214C6.58341 47.179 6.56435 47.1391 6.55354 47.0967C6.54273 47.0544 6.54038 47.0103 6.54662 46.967C6.55286 46.9237 6.56758 46.8821 6.58993 46.8445C6.61228 46.8069 6.64182 46.7741 6.67686 46.7479L8.21183 45.5981C8.24684 45.5719 8.28667 45.5528 8.32905 45.542C8.37143 45.5312 8.41552 45.5288 8.45881 45.5351C8.5021 45.5413 8.54373 45.556 8.58133 45.5784C8.61892 45.6007 8.65174 45.6303 8.67791 45.6653L8.80326 45.8328L9.08017 46.2032L10.6755 45.8852C10.686 45.8528 10.6914 45.819 10.6915 45.785V44.9873C10.6915 44.899 10.7266 44.8144 10.789 44.752C10.8514 44.6896 10.936 44.6545 11.0243 44.6545H12.9433C12.987 44.6545 13.0302 44.6631 13.0706 44.6799C13.111 44.6966 13.1476 44.7211 13.1785 44.752C13.2094 44.7829 13.234 44.8196 13.2507 44.8599C13.2674 44.9003 13.276 44.9436 13.276 44.9873V45.785C13.276 45.7975 13.276 45.81 13.276 45.8226L14.8714 46.3661C14.8818 46.3561 14.8917 46.3454 14.901 46.3342L15.1551 46.006L15.383 45.7086C15.4097 45.6739 15.443 45.6448 15.4809 45.623C15.5189 45.6012 15.5607 45.5871 15.6041 45.5815C15.6475 45.5759 15.6916 45.5789 15.7338 45.5903C15.7761 45.6018 15.8156 45.6215 15.8503 45.6482L17.3681 46.8208C17.4028 46.8474 17.4318 46.8806 17.4536 46.9184C17.4754 46.9562 17.4895 46.998 17.4952 47.0413C17.5008 47.0846 17.4978 47.1286 17.4863 47.1707C17.4749 47.2129 17.4553 47.2524 17.4285 47.2869L17.1539 47.6424L16.959 47.8943C16.9332 47.9282 16.9142 47.967 16.9032 48.0082L18.004 49.2617L18.0143 49.3119L18.4325 49.1979L18.6604 49.1375C18.7459 49.1153 18.8368 49.1279 18.913 49.1726C18.9893 49.2172 19.0447 49.2902 19.0672 49.3757L19.5527 51.2309C19.5663 51.2732 19.5714 51.3179 19.5675 51.3622C19.5636 51.4065 19.5509 51.4496 19.53 51.4889C19.5092 51.5282 19.4807 51.5629 19.4463 51.591C19.4118 51.6191 19.372 51.64 19.3293 51.6525V51.6559Z" fill="white"/>
<path d="M135.329 30.1184L126.772 34.1068C119.073 30.4728 121.725 23.4999 121.725 23.4999C121.725 23.4999 130.204 19.6254 130.272 18.9929C130.339 18.3605 118.277 15.5538 114.549 22.3375C112.509 26.0559 110.675 27.6581 105.661 29.0871L101.576 29.9566V29.9486C101.576 29.9486 33.6409 43.8454 22.0175 46.161C21.4661 46.2677 20.897 46.2369 20.3604 46.0713C19.8237 45.9057 19.3362 45.6105 18.9407 45.2118C17.9982 44.2762 16.877 43.5399 15.644 43.0466C11.2943 41.2974 6.20622 42.9281 3.67072 46.8846C2.90149 48.0803 2.3991 49.4278 2.19779 50.8353C1.99648 52.2427 2.10098 53.677 2.50418 55.0404C2.90738 56.4038 3.59979 57.6642 4.53422 58.7358C5.46865 59.8073 6.62313 60.6648 7.91897 61.2498C12.2322 63.2076 17.4263 61.766 20.1179 57.8699C20.5369 57.2651 20.887 56.6153 21.1617 55.9327C21.3671 55.4169 21.6959 54.9593 22.1193 54.6001C22.5427 54.2409 23.0477 53.991 23.5901 53.8724L25.9125 53.3721V53.3801L107.292 36.8098C118.312 34.6732 119.014 41.8626 125.937 40.3892C132.859 38.9157 135.928 30.5081 135.329 30.1184ZM19.3293 51.6559L18.9476 51.7551L18.6365 51.8371C18.5994 51.8466 18.5644 51.8624 18.5328 51.8838L18.6923 52.6815L18.4997 53.2445C18.5235 53.261 18.5491 53.2748 18.5761 53.2855L18.902 53.4052L19.2438 53.5282C19.3265 53.559 19.3936 53.6212 19.4305 53.7013C19.4674 53.7813 19.4712 53.8727 19.441 53.9556L18.7778 55.756C18.7627 55.7971 18.7396 55.8347 18.71 55.8668C18.6803 55.8989 18.6446 55.9248 18.6049 55.9431C18.5653 55.9614 18.5224 55.9717 18.4787 55.9735C18.435 55.9752 18.3914 55.9683 18.3504 55.9532L18.0747 55.8518L17.7168 55.7264C17.6991 55.7199 17.6808 55.7149 17.6621 55.7116L17.571 55.9783L16.9066 56.5594C16.9103 56.6236 16.9325 56.6853 16.9704 56.7372L17.1254 56.9435L17.3681 57.2682C17.3944 57.3032 17.4136 57.3429 17.4245 57.3853C17.4354 57.4276 17.4378 57.4717 17.4317 57.515C17.4255 57.5583 17.4109 57.5999 17.3887 57.6375C17.3664 57.6752 17.337 57.7081 17.302 57.7343L15.7659 58.8841C15.731 58.9104 15.6912 58.9295 15.6489 58.9404C15.6065 58.9513 15.5625 58.9538 15.5192 58.9476C15.4759 58.9415 15.4343 58.9269 15.3966 58.9047C15.359 58.8824 15.3261 58.853 15.2999 58.818L15.1745 58.6505L14.9204 58.3086C14.9123 58.2979 14.9035 58.2876 14.8942 58.2779L13.4481 58.5639C13.3979 58.5922 13.3561 58.6332 13.3269 58.6829C13.2977 58.7325 13.2821 58.7889 13.2817 58.8465V59.4869C13.2817 59.5752 13.2466 59.6598 13.1842 59.7222C13.1218 59.7846 13.0372 59.8197 12.949 59.8197H11.0299C10.9417 59.8197 10.8571 59.7846 10.7947 59.7222C10.7323 59.6598 10.6972 59.5752 10.6972 59.4869V58.8499C10.6959 58.764 10.6606 58.6821 10.5992 58.622L9.18273 58.14C9.09954 58.1523 9.02438 58.1964 8.97306 58.2631L8.81352 58.4705L8.58561 58.769C8.55895 58.8036 8.52572 58.8325 8.48784 58.8542C8.44996 58.8759 8.40818 58.8899 8.36487 58.8954C8.32157 58.9009 8.27761 58.8978 8.23551 58.8863C8.19341 58.8748 8.15399 58.8551 8.11953 58.8283L6.59709 57.6523C6.52737 57.5984 6.48186 57.5191 6.47054 57.4317C6.45922 57.3443 6.48301 57.256 6.53669 57.1862L6.81133 56.8295L6.94351 56.6597C6.97187 56.6223 6.992 56.5793 7.00261 56.5335C7.01321 56.4878 7.01404 56.4403 7.00505 56.3942L5.96236 55.2034L5.94982 55.1566L5.53161 55.2706L5.3037 55.331C5.26142 55.3422 5.21736 55.3449 5.17403 55.339C5.13069 55.3332 5.08894 55.3188 5.05116 55.2968C5.01338 55.2748 4.9803 55.2455 4.95383 55.2107C4.92736 55.1759 4.90801 55.1363 4.89688 55.094L4.41143 53.2376C4.40026 53.1954 4.39752 53.1513 4.40339 53.108C4.40926 53.0646 4.42361 53.0229 4.44562 52.9851C4.46764 52.9473 4.49688 52.9142 4.53168 52.8878C4.56649 52.8613 4.60617 52.8419 4.64846 52.8308L5.02907 52.7317L5.34016 52.6508C5.37738 52.6408 5.4125 52.6242 5.44386 52.6018L5.28546 51.8041L5.47805 51.2343C5.45789 51.2213 5.43652 51.2102 5.41423 51.2013L5.07237 51.077L4.7305 50.9528C4.6895 50.9377 4.65187 50.9147 4.61977 50.885C4.58767 50.8554 4.56173 50.8197 4.54342 50.78C4.52511 50.7403 4.5148 50.6974 4.51308 50.6538C4.51135 50.6101 4.51824 50.5665 4.53336 50.5255L5.19658 48.7261C5.21157 48.6852 5.2345 48.6476 5.26405 48.6155C5.29359 48.5834 5.32918 48.5575 5.36877 48.5391C5.40836 48.5208 5.45118 48.5105 5.49476 48.5088C5.53835 48.507 5.58185 48.5139 5.62277 48.529L5.89968 48.6304L6.31562 48.7751L6.40678 48.5039L7.10647 47.892C7.09699 47.8697 7.08474 47.8486 7.07 47.8293L6.85349 47.5399L6.60962 47.214C6.58341 47.179 6.56435 47.1391 6.55354 47.0967C6.54273 47.0544 6.54038 47.0103 6.54662 46.967C6.55286 46.9237 6.56758 46.8821 6.58993 46.8445C6.61228 46.8069 6.64182 46.7741 6.67686 46.7479L8.21183 45.5981C8.24684 45.5719 8.28667 45.5528 8.32905 45.542C8.37143 45.5312 8.41552 45.5288 8.45881 45.5351C8.5021 45.5413 8.54373 45.556 8.58133 45.5784C8.61892 45.6007 8.65174 45.6303 8.67791 45.6653L8.80326 45.8328L9.08017 46.2032L10.6755 45.8852C10.686 45.8528 10.6914 45.819 10.6915 45.785V44.9873C10.6915 44.899 10.7266 44.8144 10.789 44.752C10.8514 44.6896 10.936 44.6545 11.0243 44.6545H12.9433C12.987 44.6545 13.0302 44.6631 13.0706 44.6799C13.111 44.6966 13.1476 44.7211 13.1785 44.752C13.2094 44.7829 13.234 44.8196 13.2507 44.8599C13.2674 44.9003 13.276 44.9436 13.276 44.9873V45.785C13.276 45.7975 13.276 45.81 13.276 45.8226L14.8714 46.3661C14.8818 46.3561 14.8917 46.3454 14.901 46.3342L15.1551 46.006L15.383 45.7086C15.4097 45.6739 15.443 45.6448 15.4809 45.623C15.5189 45.6012 15.5607 45.5871 15.6041 45.5815C15.6475 45.5759 15.6916 45.5789 15.7338 45.5903C15.7761 45.6018 15.8156 45.6215 15.8503 45.6482L17.3681 46.8208C17.4028 46.8474 17.4318 46.8806 17.4536 46.9184C17.4754 46.9562 17.4895 46.998 17.4952 47.0413C17.5008 47.0846 17.4978 47.1286 17.4863 47.1707C17.4749 47.2129 17.4553 47.2524 17.4285 47.2869L17.1539 47.6424L16.959 47.8943C16.9332 47.9282 16.9142 47.967 16.9032 48.0082L18.004 49.2617L18.0143 49.3119L18.4325 49.1979L18.6604 49.1375C18.7459 49.1153 18.8368 49.1279 18.913 49.1726C18.9893 49.2172 19.0447 49.2902 19.0672 49.3757L19.5527 51.2309C19.5663 51.2732 19.5714 51.3179 19.5675 51.3622C19.5636 51.4065 19.5509 51.4496 19.53 51.4889C19.5092 51.5282 19.4807 51.5629 19.4463 51.591C19.4118 51.6191 19.372 51.64 19.3293 51.6525V51.6559Z" fill="#FFC10E"/>
<path d="M50.8117 59.2969L51.4396 59.7698L51.4897 62.9788L54.5551 62.1207L55.1773 62.5902L52.6555 65.9325L51.9364 65.3901L53.4953 63.3229C53.5215 63.2887 53.5591 63.2443 53.6093 63.1884C53.6594 63.1326 53.7232 63.0665 53.7927 62.9867C53.7027 63.0335 53.6184 63.0756 53.5409 63.1121C53.4742 63.1432 53.4053 63.1691 53.3346 63.1896L50.8174 63.9132L50.6612 63.7992L50.6704 61.1783C50.6704 61.0974 50.6704 61.0153 50.6829 60.9333C50.6905 60.8489 50.7058 60.7654 50.7285 60.6837C50.6373 60.8319 50.5541 60.9549 50.4789 61.0541L48.9211 63.1212L48.2921 62.6472L50.8117 59.2969Z" fill="black"/>
<path d="M58.7475 64.2357L59.6226 64.5776L60.3292 69.3512L59.3104 68.9512L59.1771 67.9142L56.7065 66.9456L55.9191 67.6202L55.0074 67.2646L58.7475 64.2357ZM59.0745 67.0664L58.858 65.1508L57.3675 66.3963L59.0745 67.0664Z" fill="black"/>
<path d="M64.2946 66.6254L63.9835 69.2601L66.5931 69.5689L66.6991 68.6744L67.6426 68.99L67.5845 69.4812C67.5675 69.6446 67.5292 69.8051 67.4705 69.9586C67.4301 70.0712 67.3571 70.1692 67.2609 70.2401C67.1608 70.307 67.0448 70.3463 66.9247 70.3541C66.7606 70.3671 66.5956 70.3625 66.4324 70.3404L63.9527 70.0487C63.7888 70.0327 63.6272 69.9987 63.4707 69.9472C63.3558 69.9106 63.2522 69.845 63.1699 69.7569C63.094 69.665 63.0464 69.5529 63.0331 69.4344C63.0116 69.2718 63.0116 69.1071 63.0331 68.9444L63.2918 66.7531C63.3082 66.5895 63.3466 66.4289 63.4058 66.2756C63.4462 66.1634 63.5187 66.0655 63.6143 65.9941C63.7163 65.9269 63.8342 65.8876 63.9562 65.8802C64.1203 65.8672 64.2853 65.8717 64.4484 65.8939L66.9304 66.1879C67.0943 66.2038 67.256 66.2379 67.4124 66.2893C67.5275 66.3257 67.6311 66.3912 67.7133 66.4796C67.7894 66.5718 67.8369 66.6843 67.85 66.8032C67.8716 66.9655 67.8716 67.1298 67.85 67.2921L67.8033 67.6875L66.8187 67.7262L66.9122 66.9365L64.2946 66.6254Z" fill="black"/>
<path d="M70.2809 66.2866L71.2438 66.1373L71.4922 67.7407L74.4984 67.2735L74.2499 65.6701L75.2197 65.5197L75.8624 69.6563L74.8926 69.8079L74.6169 68.0279L71.6096 68.4905L71.8854 70.2705L70.9236 70.4278L70.2809 66.2866Z" fill="black"/>
<path d="M77.5568 64.6965L78.4684 64.3546L79.943 68.2735L79.0313 68.6154L77.5568 64.6965Z" fill="black"/>
<path d="M80.7734 63.4296L81.3341 63.0706L85.1493 63.5652C85.261 63.5789 85.3693 63.5948 85.4741 63.613C85.5801 63.6336 85.6872 63.6586 85.7977 63.6905C85.6952 63.5504 85.6086 63.4319 85.5356 63.3338C85.4627 63.2358 85.4103 63.1584 85.375 63.1059L84.1921 61.253L84.9305 60.7812L87.1834 64.3139L86.6228 64.6717L82.6343 64.1441C82.5557 64.1315 82.4771 64.1167 82.4064 64.1019C82.3358 64.0871 82.248 64.0677 82.1626 64.0449C82.264 64.1737 82.346 64.2831 82.411 64.3731C82.4759 64.4631 82.5249 64.5338 82.5546 64.5839L83.7727 66.4927L83.0343 66.9633L80.7734 63.4296Z" fill="black"/>
<path d="M86.7585 59.153L89.6462 55.9885L90.1738 56.4694L87.9425 58.9194L88.6263 59.5484L89.9356 58.1217L90.4632 58.6026L89.1596 60.0248L89.9265 60.7244L92.1851 58.2493L92.7663 58.7792L89.8524 61.97L86.7585 59.153Z" fill="black"/>
<path d="M91.9423 53.7701L92.74 54.1928L93.9627 51.8841C94.0385 51.7361 94.1294 51.5963 94.2339 51.467C94.31 51.372 94.4093 51.2983 94.5222 51.2528C94.6356 51.2149 94.7576 51.2109 94.8732 51.2414C95.0324 51.2818 95.1856 51.3427 95.329 51.4226L95.8384 51.6926C95.9849 51.7663 96.1213 51.8587 96.2441 51.9673C96.3338 52.0459 96.3987 52.1488 96.431 52.2636C96.4565 52.3826 96.451 52.5062 96.415 52.6225C96.3668 52.7807 96.3023 52.9335 96.2224 53.0783L95.0111 55.3654C94.9356 55.5133 94.8447 55.6527 94.7399 55.7814C94.6641 55.8767 94.5647 55.9505 94.4516 55.9956C94.3383 56.0338 94.2163 56.0382 94.1006 56.0081C93.9414 55.9678 93.7882 55.9068 93.6448 55.8269L93.5445 55.7734L93.7895 54.9301L94.2271 55.158L95.6139 52.5371L94.7672 52.0881L93.5445 54.3968C93.4696 54.5461 93.3787 54.6867 93.2733 54.8162C93.1974 54.9104 93.0985 54.9834 92.9861 55.0281C92.873 55.0654 92.7516 55.0694 92.6363 55.0395C92.4771 54.9991 92.3239 54.9382 92.1805 54.8583L91.7714 54.6418C91.6247 54.5684 91.4883 54.4761 91.3657 54.3672C91.2758 54.2887 91.2109 54.1858 91.1788 54.0709C91.1529 53.9532 91.1576 53.8308 91.1925 53.7154C91.2395 53.5571 91.3033 53.4043 91.3828 53.2595L92.4961 51.1582C92.5687 51.0168 92.655 50.8828 92.7536 50.7582C92.828 50.6632 92.9247 50.588 93.0351 50.5394C93.1421 50.4979 93.2589 50.4884 93.3713 50.5121C93.519 50.5432 93.6612 50.5966 93.7929 50.6705L93.8715 50.7126L93.6436 51.5673L93.2197 51.3394L91.9423 53.7701Z" fill="black"/>
<path d="M68.7512 12.5482C79.6465 12.5482 89.0786 18.9296 93.5103 28.1463C94.1097 27.9617 94.7148 27.7931 95.3188 27.6199C90.6466 17.626 80.4932 10.6861 68.7512 10.6861C53.6693 10.6861 41.2128 22.1352 39.6118 36.7978C40.226 36.8924 40.8391 36.995 41.451 37.101C42.9051 23.3215 54.5934 12.5482 68.7512 12.5482Z" fill="black"/>
<path d="M115.855 31.5902C116.451 30.9146 116.776 30.0422 116.767 29.1413V28.8131C116.731 25.5893 115.415 23.8527 114.318 22.9627C113.26 22.1069 111.39 21.2089 108.488 21.7935C106.574 22.1786 105.062 23.1062 104.043 24.4498C103.997 24.4076 103.95 24.3654 103.901 24.3256C103.482 23.9788 102.992 23.73 102.465 23.5973C101.938 23.4646 101.388 23.4514 100.855 23.5586L98.0687 24.1193C97.1796 24.2988 96.3895 24.804 95.8534 25.5358C94.7572 25.0799 93.302 24.852 91.4331 25.227C89.472 25.6212 87.921 26.5409 86.8498 27.8901C85.7012 27.2166 84.001 26.7232 81.6535 27.1961C80.4954 27.4122 79.3976 27.8759 78.4354 28.5556C77.8386 28.3588 77.2011 28.3195 76.5848 28.4416L69.6073 29.8456C69.0315 29.962 68.4926 30.2166 68.037 30.5874C67.4719 30.4223 66.8752 30.3965 66.298 30.5122L63.5118 31.0729C62.7943 31.2171 62.137 31.5746 61.6259 32.0985C60.9524 31.8144 60.2091 31.7398 59.4926 31.8842L55.2159 32.7446C54.6676 32.8552 54.1521 33.0904 53.7093 33.432C53.2665 33.7737 52.9082 34.2126 52.6621 34.7149C51.5374 34.0596 49.8691 33.5924 47.5262 34.0642C45.3496 34.5018 43.948 35.4966 43.042 36.6726C41.8934 36.0117 40.2102 35.5331 37.8901 36.0037C35.7762 36.4299 34.1398 37.4635 33.0664 38.9893C32.9567 38.8702 32.8395 38.7583 32.7154 38.6543C32.2968 38.3078 31.8061 38.0592 31.2791 37.9267C30.752 37.7942 30.2021 37.7811 29.6694 37.8885L26.8832 38.4526C26.0633 38.6172 25.3249 39.0585 24.7918 39.7027C24.2586 40.3469 23.963 41.1547 23.9545 41.9909L23.8018 57.3156C23.7963 57.8589 23.9123 58.3965 24.1412 58.8892C24.3701 59.3819 24.7062 59.8172 25.125 60.1633C25.5438 60.5094 26.0346 60.7576 26.5615 60.8897C27.0885 61.0218 27.6384 61.0345 28.1709 60.9268L34.2299 59.7064C34.9343 59.5651 35.5808 59.2177 36.0873 58.7081C36.7334 58.898 37.4037 58.9924 38.077 58.9885C38.6757 58.9867 39.2727 58.9252 39.8593 58.805C42.1053 58.3492 43.5617 57.3908 44.5075 56.2581C45.4831 56.7982 46.5832 57.0732 47.6982 57.0558C48.2971 57.0529 48.8942 56.99 49.4805 56.8678C50.848 56.5931 51.8986 56.1043 52.7134 55.522C53.3008 55.7101 53.9265 55.7446 54.531 55.6222L57.4574 55.0297C57.8916 54.9424 58.3064 54.7767 58.6812 54.5408C59.1177 54.6135 59.5638 54.6058 59.9974 54.518L62.7905 53.9562C63.1302 53.8891 63.4587 53.774 63.7659 53.6143C63.8685 53.6235 63.9733 53.628 64.077 53.628C64.3189 53.6278 64.5601 53.6038 64.7972 53.5562L70.8562 52.3369C71.2151 52.2634 71.5608 52.1362 71.8818 51.9597C72.2465 52.0005 72.6153 51.9836 72.9747 51.9096L75.746 51.3512C76.3209 51.2352 76.8593 50.9823 77.3155 50.6139C77.7718 50.2455 78.1325 49.7725 78.367 49.235C79.1909 49.749 80.3293 50.182 81.837 50.182C82.4362 50.1792 83.0336 50.1166 83.6204 49.9951C85.9154 49.5393 87.3809 48.5388 88.3301 47.3742C89.3328 47.9392 90.4681 48.2267 91.6189 48.2072C92.2181 48.2043 92.8155 48.1417 93.4023 48.0203C95.0387 47.6909 96.2511 47.0904 97.1628 46.3508C97.8512 46.6571 98.6179 46.7415 99.3564 46.5924L105.415 45.3731C106.085 45.2376 106.704 44.9166 107.2 44.4466C107.81 44.6117 108.439 44.6937 109.07 44.6905C109.678 44.6878 110.285 44.6245 110.881 44.5013C114.927 43.6866 117.173 40.9049 117.205 36.6658C117.219 34.5154 116.754 32.944 115.855 31.5902Z" fill="black"/>
<path d="M25.8497 40.7305L28.6359 40.1698L28.4912 52.9442L31.9703 52.2434L31.756 54.8359L25.697 56.0552L25.8497 40.7305Z" fill="#FFC10E"/>
<path d="M40.9349 42.0175L40.862 49.0918C40.8381 51.9099 40.1008 53.3822 37.3818 53.9292C34.7027 54.4682 33.4207 53.0837 33.4401 50.2462L33.4959 42.7787C33.5164 39.9879 34.7358 38.7094 36.8519 38.2832C39.4535 37.7601 40.976 39.0421 40.9349 42.0175ZM36.3118 42.1782L36.2457 50.2451C36.2354 51.0576 36.4234 51.7584 37.212 51.6C37.8878 51.4632 38.0348 50.8456 38.0496 49.9408L38.1145 41.8671C38.1145 40.9851 37.8684 40.4574 37.114 40.6136C36.5739 40.7184 36.3152 41.1936 36.3163 42.1782H36.3118Z" fill="#FFC10E"/>
<path d="M50.368 46.2285L50.3543 46.9009C50.2779 49.0979 50.2221 51.3451 47.0097 51.9924C44.4081 52.5155 43.1523 51.2745 43.1911 48.2957L43.2685 41.3547C43.3073 38.4272 43.9808 36.8489 46.4935 36.3406C49.944 35.6467 50.4204 38.0796 50.352 39.8949L50.3452 40.4898L47.5669 41.0493L47.5795 39.9462C47.5943 38.9673 47.3926 38.5309 46.7886 38.6528C46.2359 38.7668 46.1049 39.2226 46.0946 40.32L46.0171 48.2148C46.0171 49.2176 46.1311 49.8033 46.7784 49.6723C47.3607 49.5583 47.5043 49.0581 47.5282 47.9014L47.5476 46.7938L50.368 46.2285Z" fill="#FFC10E"/>
<path d="M55.3644 46.3451L54.9872 50.1558L52.0608 50.7449L54.1838 35.0191L58.4605 34.1576L60.3191 49.0823L57.5261 49.6441L57.1295 45.9896L55.3644 46.3451ZM56.9107 43.5019C56.7364 41.7288 56.4059 38.5836 56.2532 37.1797L56.1392 37.2013C56.08 38.3694 55.819 41.7413 55.6276 43.7606L56.9107 43.5019Z" fill="#FFC10E"/>
<path d="M62.4768 33.3528L65.263 32.7921L65.1183 45.5665L68.5985 44.8668L68.3831 47.4582L62.3241 48.6775L62.4768 33.3528Z" fill="#FFC10E"/>
<path d="M70.6323 34.2425L68.54 34.6629L68.5742 32.1252L75.5506 30.7201L75.5175 33.2579L73.4036 33.6841L73.276 46.4721L70.5058 47.0305L70.6323 34.2425Z" fill="#FFC10E"/>
<path d="M84.7037 33.2067L84.6296 40.2811C84.6068 43.098 83.8684 44.5703 81.1494 45.1173C78.4703 45.6575 77.1895 44.2718 77.2088 41.4354L77.2647 33.9668C77.2852 31.1772 78.5034 29.8986 80.6207 29.4724C83.2211 28.9482 84.739 30.2314 84.7037 33.2067ZM80.0794 33.3674L80.0133 41.4332C80.003 42.2468 80.191 42.9476 80.9796 42.7881C81.6554 42.6525 81.8024 42.0337 81.8172 41.13L81.8821 33.0552C81.8821 32.1732 81.636 31.6455 80.8828 31.8017C80.338 31.9111 80.0782 32.3828 80.0794 33.3674V33.3674Z" fill="#FFC10E"/>
<path d="M94.4811 31.2365L94.4082 38.3108C94.3843 41.1278 93.647 42.6001 90.928 43.1482C88.2489 43.6872 86.968 42.3027 86.9863 39.4652L87.0433 31.9966C87.0626 29.2069 88.2819 27.9284 90.3992 27.5022C92.9997 26.978 94.5176 28.2634 94.4811 31.2365ZM89.8579 31.3972L89.7919 39.4629C89.7816 40.2765 89.9696 40.9774 90.7582 40.8178C91.4339 40.6822 91.581 40.0635 91.5958 39.1598L91.6607 31.0849C91.6607 30.204 91.4146 29.6764 90.6602 29.8314C90.1155 29.9374 89.8568 30.4126 89.8579 31.3972V31.3972Z" fill="#FFC10E"/>
<path d="M97.0351 26.3963L99.8214 25.8356L99.6766 38.61L103.153 37.9103L102.938 40.5016L96.8859 41.721L97.0351 26.3963Z" fill="#FFC10E"/>
<path d="M107.257 35.2339V35.9598C107.285 37.0047 107.517 37.5141 108.204 37.3762C108.798 37.2566 109.002 36.7392 109.002 35.7057C108.994 34.4522 108.645 33.7582 107.101 32.5787C105.266 31.1737 104.48 30.3304 104.461 28.0011C104.443 25.7369 105.418 24.4799 107.452 24.0697C110.669 23.4224 111.344 25.6104 111.364 27.5556V27.8781L108.702 28.4137V27.8439C108.684 26.8434 108.534 26.1722 107.858 26.3089C107.402 26.4001 107.158 26.734 107.174 27.5203C107.197 28.5892 107.461 29.0256 108.703 30.0056C111.128 31.9064 111.806 32.9776 111.793 35.3421C111.773 37.8343 110.775 39.146 108.393 39.6257C105.643 40.1795 104.461 38.7528 104.481 36.1432L104.487 35.7843L107.257 35.2339Z" fill="#FFC10E"/>
</svg>
