<svg width="33" height="33" viewBox="0 0 33 33" fill="none" xmlns="http://www.w3.org/2000/svg">
<path d="M16.6667 2C8.56627 2 2 8.56627 2 16.6667C2 24.7671 8.56627 31.3333 16.6667 31.3333C24.7671 31.3333 31.3333 24.7671 31.3333 16.6667C31.3333 8.56627 24.7671 2 16.6667 2Z" stroke="white" stroke-width="2.5" stroke-linecap="round" stroke-linejoin="round"/>
<path d="M5.33353 25.9749C5.33353 25.9749 8.60273 21.8008 16.6694 21.8008C24.7361 21.8008 28.0067 25.9749 28.0067 25.9749" stroke="white" stroke-width="2.5" stroke-linecap="round" stroke-linejoin="round"/>
<path d="M16.6683 16.6691C17.8353 16.6691 18.9544 16.2056 19.7796 15.3804C20.6047 14.5553 21.0683 13.4361 21.0683 12.2691C21.0683 11.1022 20.6047 9.98303 19.7796 9.15787C18.9544 8.33271 17.8353 7.86914 16.6683 7.86914C15.5014 7.86914 14.3822 8.33271 13.557 9.15787C12.7319 9.98303 12.2683 11.1022 12.2683 12.2691C12.2683 13.4361 12.7319 14.5553 13.557 15.3804C14.3822 16.2056 15.5014 16.6691 16.6683 16.6691V16.6691Z" stroke="white" stroke-width="2.5" stroke-linecap="round" stroke-linejoin="round"/>
</svg>
