<svg width="27" height="31" viewBox="0 0 27 31" fill="none" xmlns="http://www.w3.org/2000/svg">
<path d="M22.5 10.3333H25.5C25.8978 10.3333 26.2794 10.4889 26.5607 10.7657C26.842 11.0425 27 11.418 27 11.8095V29.5238C27 29.9153 26.842 30.2908 26.5607 30.5676C26.2794 30.8445 25.8978 31 25.5 31H1.5C1.10218 31 0.720644 30.8445 0.43934 30.5676C0.158035 30.2908 0 29.9153 0 29.5238V11.8095C0 11.418 0.158035 11.0425 0.43934 10.7657C0.720644 10.4889 1.10218 10.3333 1.5 10.3333H4.5V8.85714C4.5 6.50808 5.44821 4.25523 7.13604 2.5942C8.82387 0.93316 11.1131 0 13.5 0C15.8869 0 18.1761 0.93316 19.864 2.5942C21.5518 4.25523 22.5 6.50808 22.5 8.85714V10.3333ZM3 13.2857V28.0476H24V13.2857H3ZM12 19.1905H15V22.1429H12V19.1905ZM6 19.1905H9V22.1429H6V19.1905ZM18 19.1905H21V22.1429H18V19.1905ZM19.5 10.3333V8.85714C19.5 7.2911 18.8679 5.7892 17.7426 4.68185C16.6174 3.57449 15.0913 2.95238 13.5 2.95238C11.9087 2.95238 10.3826 3.57449 9.25736 4.68185C8.13214 5.7892 7.5 7.2911 7.5 8.85714V10.3333H19.5Z" fill="black"/>
</svg>
