<svg width="24" height="30" viewBox="0 0 24 30" fill="none" xmlns="http://www.w3.org/2000/svg">
<path d="M11.9997 0C10.4084 0 8.88227 0.632141 7.75705 1.75736C6.63184 2.88258 5.99969 4.4087 5.99969 6C5.99969 7.5913 6.63184 9.11742 7.75705 10.2426C8.88227 11.3679 10.4084 12 11.9997 12C13.591 12 15.1171 11.3679 16.2423 10.2426C17.3676 9.11742 17.9997 7.5913 17.9997 6C17.9997 4.4087 17.3676 2.88258 16.2423 1.75736C15.1171 0.632141 13.591 0 11.9997 0ZM8.99969 6C8.99969 5.20435 9.31577 4.44129 9.87838 3.87868C10.441 3.31607 11.204 3 11.9997 3C12.7953 3 13.5584 3.31607 14.121 3.87868C14.6836 4.44129 14.9997 5.20435 14.9997 6C14.9997 6.79565 14.6836 7.55871 14.121 8.12132C13.5584 8.68393 12.7953 9 11.9997 9C11.204 9 10.441 8.68393 9.87838 8.12132C9.31577 7.55871 8.99969 6.79565 8.99969 6Z" fill="black"/>
<path d="M19.4999 15H4.49991C3.30643 15 2.16184 15.4741 1.31793 16.318C0.474014 17.1619 -9.15527e-05 18.3065 -9.15527e-05 19.5C-9.15527e-05 22.848 1.37691 25.53 3.63591 27.345C5.85891 29.13 8.84091 30 11.9999 30C15.1589 30 18.1409 29.13 20.3639 27.345C22.6199 25.53 23.9999 22.848 23.9999 19.5C23.9999 18.3065 23.5258 17.1619 22.6819 16.318C21.838 15.4741 20.6934 15 19.4999 15ZM4.49991 18H19.4999C19.8977 18 20.2793 18.158 20.5606 18.4393C20.8419 18.7206 20.9999 19.1022 20.9999 19.5C20.9999 21.951 20.0249 23.769 18.4859 25.005C16.9079 26.271 14.6399 27 11.9999 27C9.35991 27 7.09191 26.271 5.51391 25.005C3.97491 23.769 2.99991 21.951 2.99991 19.5C2.99991 19.1022 3.15794 18.7206 3.43925 18.4393C3.72055 18.158 4.10208 18 4.49991 18Z" fill="black"/>
</svg>
