<svg width="34" height="25" viewBox="0 0 34 25" fill="none" xmlns="http://www.w3.org/2000/svg">
<path d="M27.8182 15.625V3.125C27.8182 1.40625 26.4273 0 24.7273 0H3.09091C1.39091 0 0 1.40625 0 3.125V15.625C0 17.3438 1.39091 18.75 3.09091 18.75H24.7273C26.4273 18.75 27.8182 17.3438 27.8182 15.625ZM24.7273 15.625H3.09091V3.125H24.7273V15.625ZM13.9091 4.6875C11.3436 4.6875 9.27273 6.78125 9.27273 9.375C9.27273 11.9688 11.3436 14.0625 13.9091 14.0625C16.4745 14.0625 18.5455 11.9688 18.5455 9.375C18.5455 6.78125 16.4745 4.6875 13.9091 4.6875ZM34 4.6875V21.875C34 23.5938 32.6091 25 30.9091 25H4.63636V21.875H30.9091V4.6875H34Z" fill="black"/>
</svg>
