<svg width="28" height="32" viewBox="0 0 28 32" fill="none" xmlns="http://www.w3.org/2000/svg">
<path fill-rule="evenodd" clip-rule="evenodd" d="M18.2546 4.02392C17.9841 1.75732 16.0551 0 13.7156 0C11.3759 0 9.4468 1.75764 9.17655 4.02455C5.36334 5.7535 2.71098 9.59343 2.71098 14.0529V21.6988L0.165459 26.7419C-0.34612 27.7554 0.390492 28.9523 1.5258 28.9523H9.40428C10.0318 30.7279 11.7252 32 13.7156 32C15.7061 32 17.3994 30.7279 18.0269 28.9523H25.9067C27.0421 28.9523 27.7787 27.7554 27.2671 26.7419L24.7216 21.6988V14.0529C24.7216 9.59288 22.0686 5.75256 18.2546 4.02392ZM13.7156 28.9524L13.7023 28.9523H13.729L13.7156 28.9524ZM21.8371 22.7483L23.4304 25.9047H4.00157L5.59482 22.7483C5.7023 22.5353 5.75829 22.3002 5.75829 22.0616V14.0529C5.75829 9.65798 9.32106 6.09521 13.716 6.09521C18.1109 6.09521 21.6736 9.65798 21.6736 14.0529V22.0616C21.6736 22.3002 21.7296 22.5353 21.8371 22.7483Z" fill="black"/>
</svg>
