<svg width="33" height="33" viewBox="0 0 33 33" fill="none" xmlns="http://www.w3.org/2000/svg">
<path d="M6.96617 2.95143L8.8396 5.62847C6.56303 7.22222 4.85387 9.50029 3.96041 12.1317C3.06695 14.7632 3.03572 17.611 3.87125 20.2614C4.70679 22.9118 6.36558 25.2268 8.60665 26.8701C10.8477 28.5134 13.5543 29.3994 16.3333 29.3994C19.1123 29.3994 21.819 28.5134 24.06 26.8701C26.3011 25.2268 27.9599 22.9118 28.7954 20.2614C29.631 17.611 29.5997 14.7632 28.7063 12.1317C27.8128 9.50029 26.1036 7.22222 23.8271 5.62847L25.7005 2.95143C27.8532 4.45643 29.6106 6.45895 30.8234 8.78875C32.0362 11.1186 32.6686 13.7068 32.6667 16.3333C32.6667 25.3542 25.3542 32.6667 16.3333 32.6667C7.31244 32.6667 4.23071e-06 25.3542 4.23071e-06 16.3333C-0.0018872 13.7068 0.630453 11.1186 1.84327 8.78875C3.05609 6.45895 4.81352 4.45643 6.96617 2.95143ZM14.7 16.3333V0H17.9667V16.3333H14.7Z" fill="black"/>
</svg>
