<svg width="32" height="28" viewBox="0 0 32 28" fill="none" xmlns="http://www.w3.org/2000/svg">
<mask id="path-1-outside-1_8_1139" maskUnits="userSpaceOnUse" x="0" y="0" width="32" height="28" fill="black">
<rect fill="white" width="32" height="28"/>
<path d="M30.7979 5.41603C30.7401 5.51142 30.6564 5.58834 30.5564 5.63777C30.4564 5.6872 30.3444 5.70708 30.2336 5.69509C29.9833 5.68421 29.7322 5.69509 29.5262 5.69509L28.9176 7.14712C29.0808 7.30259 29.293 7.48292 29.492 7.68114C29.691 7.87936 29.7104 8.1281 29.5457 8.29833C29.3809 8.46856 29.1407 8.46934 28.9292 8.2618C28.7365 8.07291 28.5577 7.8677 28.3851 7.68425L27.202 8.8821C27.3575 9.02979 27.5612 9.20779 27.7462 9.39746C27.9724 9.63065 27.9879 9.85452 27.8045 10.0349C27.621 10.2152 27.3886 10.1802 27.1655 9.9649C26.9836 9.79 26.8041 9.61355 26.6214 9.43866C26.6159 9.43321 26.6027 9.43866 26.6214 9.43866L25.4554 10.6046C25.6342 10.7725 25.8371 10.9505 26.0267 11.1418C26.2389 11.3571 26.2506 11.5763 26.0757 11.7551C25.9008 11.9338 25.6692 11.9214 25.4593 11.7193C25.2657 11.5328 25.0838 11.3306 24.9152 11.1581L23.7492 12.3241C23.9047 12.4795 24.0865 12.6591 24.2653 12.8433C24.4985 13.0835 24.5211 13.3221 24.3314 13.5017C24.1417 13.6813 23.9326 13.6572 23.6963 13.424C23.6054 13.3361 23.5152 13.2475 23.4289 13.1558C23.3427 13.0641 23.2618 12.9677 23.1996 12.8977L22.0336 14.0715C22.1775 14.2161 22.3671 14.4042 22.5521 14.5954C22.7659 14.8161 22.7853 15.0618 22.6104 15.2343C22.4355 15.4069 22.207 15.3898 21.9722 15.1659C21.7911 14.9918 21.6123 14.813 21.4328 14.6374C21.4258 14.6304 21.4157 14.628 21.425 14.6327L20.2404 15.815C20.4238 15.9782 20.6353 16.1485 20.8265 16.3381C21.0503 16.5604 21.0597 16.8045 20.8708 16.9748C20.6967 17.1364 20.4627 17.1162 20.2544 16.9079C20.0694 16.7229 19.8968 16.527 19.7025 16.3179C19.5952 16.4166 19.5175 16.4835 19.4452 16.5558C16.1457 19.8516 12.847 23.1495 9.54914 26.4495C8.99725 27.0022 8.36218 27.3146 7.58641 27.1079C7.22266 27.0143 6.8876 26.8325 6.61088 26.5785C4.92099 24.9252 3.25286 23.2485 1.58707 21.5672C0.802757 20.7751 0.809753 19.5998 1.57541 18.7937C1.9905 18.3592 2.43046 17.9472 2.90152 17.4785C2.61391 17.2095 2.33952 16.9678 2.08145 16.7097C0.784879 15.4123 0.780992 13.6704 2.07056 12.3723C2.96241 11.4794 3.85399 10.5881 4.74532 9.69828C6.04033 8.40871 7.78696 8.40949 9.0843 9.69828C9.76446 10.3753 10.4454 11.0524 11.1178 11.7372C11.246 11.8686 11.351 11.8927 11.5204 11.8149C11.8982 11.6408 12.2861 11.4877 12.6693 11.3268C13.0875 11.1503 13.1512 11.1589 13.4614 11.4729C13.8967 11.9129 14.3273 12.3567 14.7712 12.8114L15.4373 12.0955C15.2749 11.9315 15.086 11.7434 14.9002 11.5514C14.6826 11.3268 14.6616 11.0897 14.8388 10.914C15.016 10.7383 15.2484 10.7585 15.4777 10.9816C15.6596 11.1558 15.8384 11.333 16.0219 11.5079C16.0281 11.5141 16.039 11.5156 16.0296 11.5118L17.1956 10.3419C17.0184 10.1779 16.8155 9.99988 16.6258 9.80866C16.4043 9.58557 16.3927 9.34926 16.5854 9.17281C16.7595 9.01035 16.9889 9.0329 17.2026 9.23811C17.3845 9.41223 17.5625 9.59023 17.7429 9.76668C17.7491 9.7729 17.76 9.77368 17.7343 9.76668L18.8948 8.60071C18.7503 8.46079 18.5544 8.27967 18.367 8.08923C18.1416 7.85604 18.1245 7.63683 18.3087 7.45416C18.493 7.27149 18.7184 7.2987 18.9446 7.51946C19.1296 7.70135 19.3045 7.89412 19.4654 8.06358L20.6314 6.8976C20.4821 6.74758 20.2995 6.56646 20.1199 6.38224C19.8828 6.14049 19.8564 5.90652 20.0422 5.72463C20.2279 5.54274 20.4479 5.56372 20.6982 5.8078C20.8723 5.97726 21.0441 6.14749 21.2167 6.31695C21.2237 6.32316 21.233 6.32627 21.2167 6.31695L22.4013 5.11988C22.2264 4.96441 22.0127 4.79884 21.8207 4.61151C21.6022 4.40086 21.5875 4.14512 21.7686 3.97489C21.9497 3.80465 22.1673 3.81942 22.3842 4.03085C22.577 4.2213 22.7558 4.42573 22.9283 4.60685L24.1332 3.39967C23.956 3.24421 23.7445 3.06931 23.5556 2.88042C23.3427 2.67055 23.3271 2.44201 23.4927 2.26479C23.6582 2.08756 23.9109 2.09611 24.1293 2.31143C24.3229 2.50187 24.5071 2.70008 24.6563 2.85555C25.1289 2.67987 25.5611 2.52596 25.9855 2.35262C26.0206 2.32752 26.0497 2.29501 26.0708 2.2574C26.0919 2.21978 26.1045 2.17799 26.1076 2.13497C26.1239 1.91344 26.1076 1.68879 26.1153 1.46648C26.1262 1.17421 26.2871 0.995425 26.5234 1.00009C26.7597 1.00475 26.916 1.17887 26.9253 1.47348C26.9331 1.70667 26.916 1.93987 26.9354 2.17306C26.9442 2.21464 26.9623 2.2537 26.9883 2.28735C27.0142 2.32099 27.0474 2.34835 27.0854 2.36739C27.4943 2.53218 27.9102 2.67832 28.389 2.85788C28.5258 2.71563 28.7155 2.5112 28.9145 2.31376C29.1135 2.11632 29.3607 2.09144 29.5317 2.2539C29.7027 2.41636 29.6972 2.67599 29.4804 2.89208C29.2884 3.0833 29.0808 3.2582 28.9362 3.39112C29.1212 3.88938 29.272 4.3138 29.4407 4.73122C29.4626 4.7675 29.4924 4.79846 29.5277 4.82185C29.5631 4.84524 29.6032 4.86048 29.6452 4.86647C29.8386 4.8828 30.0331 4.8828 30.2266 4.86647C30.3366 4.8521 30.4485 4.86828 30.55 4.91325C30.6514 4.95822 30.7385 5.03025 30.8018 5.12143L30.7979 5.41603ZM17.8315 17.0167C17.7887 16.9639 17.7677 16.932 17.7413 16.9056C16.1867 15.3509 14.632 13.7935 13.0774 12.2331C12.953 12.108 12.8613 12.1282 12.7237 12.1865C10.8348 12.9861 8.94517 13.7846 7.05473 14.5822C6.92231 14.6389 6.80179 14.7201 6.69949 14.8216C5.21533 16.2985 3.73402 17.7785 2.25556 19.2616C1.66791 19.8501 1.66869 20.5053 2.25556 21.093C3.85839 22.6994 5.46252 24.3033 7.06794 25.9046C7.67891 26.5156 8.3272 26.5101 8.94283 25.8953L14.7222 20.1175C15.7537 19.0898 16.7829 18.063 17.8315 17.0167ZM18.444 16.3949C18.4829 16.3583 18.5334 16.3171 18.5808 16.2651C21.7072 13.1361 24.8328 10.0092 27.9576 6.88439C28.0612 6.78237 28.1573 6.673 28.2452 6.55714C29.1181 5.3795 28.5849 3.68106 27.1873 3.23954C26.3322 2.96981 25.579 3.1758 24.947 3.80699C21.7989 6.95201 18.6523 10.0983 15.5073 13.246C15.4676 13.2856 15.4296 13.3299 15.4132 13.3501L16.6771 14.6164C16.7272 14.5319 16.7847 14.452 16.8489 14.3777C19.9111 11.312 22.9752 8.2478 26.0415 5.18517C26.1135 5.10555 26.1915 5.0315 26.2747 4.96363C26.4519 4.83305 26.6416 4.83071 26.8041 4.98385C26.9665 5.13698 26.9782 5.32586 26.8522 5.50931C26.7871 5.59342 26.7145 5.67147 26.6354 5.74251C23.5722 8.8067 20.5075 11.8701 17.4413 14.9327C17.3558 15.0018 17.263 15.0613 17.1645 15.11L18.444 16.3949ZM4.18953 16.1477C3.91592 15.8881 3.64541 15.6409 3.38423 15.382C2.83078 14.8325 2.82689 14.2534 3.37102 13.7077C4.27685 12.8019 5.18191 11.8968 6.08619 10.9925C6.62098 10.4601 7.20242 10.4593 7.74032 10.9925C8.25646 11.504 8.76716 12.0225 9.28719 12.5301C9.35015 12.5915 9.47607 12.6583 9.54292 12.635C9.84919 12.5293 10.1438 12.3917 10.4967 12.2463C9.68362 11.4558 8.94206 10.6583 8.11965 9.96024C7.35399 9.31195 6.20201 9.42544 5.462 10.1452C4.46937 11.1052 3.49383 12.094 2.51985 13.0804C2.10554 13.5001 1.92054 14.0171 1.93142 14.6102C1.95086 15.6984 2.79502 16.2285 3.43864 16.9118L4.18953 16.1477ZM8.63812 13.0236C8.21682 12.6078 7.82272 12.223 7.43484 11.8328C6.86195 11.2568 6.94435 11.2848 6.39245 11.8328C5.5773 12.6469 4.76242 13.4613 3.94779 14.2759C3.82264 14.4011 3.71459 14.5363 3.86384 14.6988C4.15144 15.005 4.45382 15.2981 4.76008 15.6067C5.20393 15.1605 5.60581 14.726 6.04266 14.3295C6.28327 14.1119 6.55429 13.9304 6.84718 13.7909C7.42007 13.5204 8.01394 13.2887 8.63812 13.0236Z"/>
</mask>
<path d="M30.7979 5.41603C30.7401 5.51142 30.6564 5.58834 30.5564 5.63777C30.4564 5.6872 30.3444 5.70708 30.2336 5.69509C29.9833 5.68421 29.7322 5.69509 29.5262 5.69509L28.9176 7.14712C29.0808 7.30259 29.293 7.48292 29.492 7.68114C29.691 7.87936 29.7104 8.1281 29.5457 8.29833C29.3809 8.46856 29.1407 8.46934 28.9292 8.2618C28.7365 8.07291 28.5577 7.8677 28.3851 7.68425L27.202 8.8821C27.3575 9.02979 27.5612 9.20779 27.7462 9.39746C27.9724 9.63065 27.9879 9.85452 27.8045 10.0349C27.621 10.2152 27.3886 10.1802 27.1655 9.9649C26.9836 9.79 26.8041 9.61355 26.6214 9.43866C26.6159 9.43321 26.6027 9.43866 26.6214 9.43866L25.4554 10.6046C25.6342 10.7725 25.8371 10.9505 26.0267 11.1418C26.2389 11.3571 26.2506 11.5763 26.0757 11.7551C25.9008 11.9338 25.6692 11.9214 25.4593 11.7193C25.2657 11.5328 25.0838 11.3306 24.9152 11.1581L23.7492 12.3241C23.9047 12.4795 24.0865 12.6591 24.2653 12.8433C24.4985 13.0835 24.5211 13.3221 24.3314 13.5017C24.1417 13.6813 23.9326 13.6572 23.6963 13.424C23.6054 13.3361 23.5152 13.2475 23.4289 13.1558C23.3427 13.0641 23.2618 12.9677 23.1996 12.8977L22.0336 14.0715C22.1775 14.2161 22.3671 14.4042 22.5521 14.5954C22.7659 14.8161 22.7853 15.0618 22.6104 15.2343C22.4355 15.4069 22.207 15.3898 21.9722 15.1659C21.7911 14.9918 21.6123 14.813 21.4328 14.6374C21.4258 14.6304 21.4157 14.628 21.425 14.6327L20.2404 15.815C20.4238 15.9782 20.6353 16.1485 20.8265 16.3381C21.0503 16.5604 21.0597 16.8045 20.8708 16.9748C20.6967 17.1364 20.4627 17.1162 20.2544 16.9079C20.0694 16.7229 19.8968 16.527 19.7025 16.3179C19.5952 16.4166 19.5175 16.4835 19.4452 16.5558C16.1457 19.8516 12.847 23.1495 9.54914 26.4495C8.99725 27.0022 8.36218 27.3146 7.58641 27.1079C7.22266 27.0143 6.8876 26.8325 6.61088 26.5785C4.92099 24.9252 3.25286 23.2485 1.58707 21.5672C0.802757 20.7751 0.809753 19.5998 1.57541 18.7937C1.9905 18.3592 2.43046 17.9472 2.90152 17.4785C2.61391 17.2095 2.33952 16.9678 2.08145 16.7097C0.784879 15.4123 0.780992 13.6704 2.07056 12.3723C2.96241 11.4794 3.85399 10.5881 4.74532 9.69828C6.04033 8.40871 7.78696 8.40949 9.0843 9.69828C9.76446 10.3753 10.4454 11.0524 11.1178 11.7372C11.246 11.8686 11.351 11.8927 11.5204 11.8149C11.8982 11.6408 12.2861 11.4877 12.6693 11.3268C13.0875 11.1503 13.1512 11.1589 13.4614 11.4729C13.8967 11.9129 14.3273 12.3567 14.7712 12.8114L15.4373 12.0955C15.2749 11.9315 15.086 11.7434 14.9002 11.5514C14.6826 11.3268 14.6616 11.0897 14.8388 10.914C15.016 10.7383 15.2484 10.7585 15.4777 10.9816C15.6596 11.1558 15.8384 11.333 16.0219 11.5079C16.0281 11.5141 16.039 11.5156 16.0296 11.5118L17.1956 10.3419C17.0184 10.1779 16.8155 9.99988 16.6258 9.80866C16.4043 9.58557 16.3927 9.34926 16.5854 9.17281C16.7595 9.01035 16.9889 9.0329 17.2026 9.23811C17.3845 9.41223 17.5625 9.59023 17.7429 9.76668C17.7491 9.7729 17.76 9.77368 17.7343 9.76668L18.8948 8.60071C18.7503 8.46079 18.5544 8.27967 18.367 8.08923C18.1416 7.85604 18.1245 7.63683 18.3087 7.45416C18.493 7.27149 18.7184 7.2987 18.9446 7.51946C19.1296 7.70135 19.3045 7.89412 19.4654 8.06358L20.6314 6.8976C20.4821 6.74758 20.2995 6.56646 20.1199 6.38224C19.8828 6.14049 19.8564 5.90652 20.0422 5.72463C20.2279 5.54274 20.4479 5.56372 20.6982 5.8078C20.8723 5.97726 21.0441 6.14749 21.2167 6.31695C21.2237 6.32316 21.233 6.32627 21.2167 6.31695L22.4013 5.11988C22.2264 4.96441 22.0127 4.79884 21.8207 4.61151C21.6022 4.40086 21.5875 4.14512 21.7686 3.97489C21.9497 3.80465 22.1673 3.81942 22.3842 4.03085C22.577 4.2213 22.7558 4.42573 22.9283 4.60685L24.1332 3.39967C23.956 3.24421 23.7445 3.06931 23.5556 2.88042C23.3427 2.67055 23.3271 2.44201 23.4927 2.26479C23.6582 2.08756 23.9109 2.09611 24.1293 2.31143C24.3229 2.50187 24.5071 2.70008 24.6563 2.85555C25.1289 2.67987 25.5611 2.52596 25.9855 2.35262C26.0206 2.32752 26.0497 2.29501 26.0708 2.2574C26.0919 2.21978 26.1045 2.17799 26.1076 2.13497C26.1239 1.91344 26.1076 1.68879 26.1153 1.46648C26.1262 1.17421 26.2871 0.995425 26.5234 1.00009C26.7597 1.00475 26.916 1.17887 26.9253 1.47348C26.9331 1.70667 26.916 1.93987 26.9354 2.17306C26.9442 2.21464 26.9623 2.2537 26.9883 2.28735C27.0142 2.32099 27.0474 2.34835 27.0854 2.36739C27.4943 2.53218 27.9102 2.67832 28.389 2.85788C28.5258 2.71563 28.7155 2.5112 28.9145 2.31376C29.1135 2.11632 29.3607 2.09144 29.5317 2.2539C29.7027 2.41636 29.6972 2.67599 29.4804 2.89208C29.2884 3.0833 29.0808 3.2582 28.9362 3.39112C29.1212 3.88938 29.272 4.3138 29.4407 4.73122C29.4626 4.7675 29.4924 4.79846 29.5277 4.82185C29.5631 4.84524 29.6032 4.86048 29.6452 4.86647C29.8386 4.8828 30.0331 4.8828 30.2266 4.86647C30.3366 4.8521 30.4485 4.86828 30.55 4.91325C30.6514 4.95822 30.7385 5.03025 30.8018 5.12143L30.7979 5.41603ZM17.8315 17.0167C17.7887 16.9639 17.7677 16.932 17.7413 16.9056C16.1867 15.3509 14.632 13.7935 13.0774 12.2331C12.953 12.108 12.8613 12.1282 12.7237 12.1865C10.8348 12.9861 8.94517 13.7846 7.05473 14.5822C6.92231 14.6389 6.80179 14.7201 6.69949 14.8216C5.21533 16.2985 3.73402 17.7785 2.25556 19.2616C1.66791 19.8501 1.66869 20.5053 2.25556 21.093C3.85839 22.6994 5.46252 24.3033 7.06794 25.9046C7.67891 26.5156 8.3272 26.5101 8.94283 25.8953L14.7222 20.1175C15.7537 19.0898 16.7829 18.063 17.8315 17.0167ZM18.444 16.3949C18.4829 16.3583 18.5334 16.3171 18.5808 16.2651C21.7072 13.1361 24.8328 10.0092 27.9576 6.88439C28.0612 6.78237 28.1573 6.673 28.2452 6.55714C29.1181 5.3795 28.5849 3.68106 27.1873 3.23954C26.3322 2.96981 25.579 3.1758 24.947 3.80699C21.7989 6.95201 18.6523 10.0983 15.5073 13.246C15.4676 13.2856 15.4296 13.3299 15.4132 13.3501L16.6771 14.6164C16.7272 14.5319 16.7847 14.452 16.8489 14.3777C19.9111 11.312 22.9752 8.2478 26.0415 5.18517C26.1135 5.10555 26.1915 5.0315 26.2747 4.96363C26.4519 4.83305 26.6416 4.83071 26.8041 4.98385C26.9665 5.13698 26.9782 5.32586 26.8522 5.50931C26.7871 5.59342 26.7145 5.67147 26.6354 5.74251C23.5722 8.8067 20.5075 11.8701 17.4413 14.9327C17.3558 15.0018 17.263 15.0613 17.1645 15.11L18.444 16.3949ZM4.18953 16.1477C3.91592 15.8881 3.64541 15.6409 3.38423 15.382C2.83078 14.8325 2.82689 14.2534 3.37102 13.7077C4.27685 12.8019 5.18191 11.8968 6.08619 10.9925C6.62098 10.4601 7.20242 10.4593 7.74032 10.9925C8.25646 11.504 8.76716 12.0225 9.28719 12.5301C9.35015 12.5915 9.47607 12.6583 9.54292 12.635C9.84919 12.5293 10.1438 12.3917 10.4967 12.2463C9.68362 11.4558 8.94206 10.6583 8.11965 9.96024C7.35399 9.31195 6.20201 9.42544 5.462 10.1452C4.46937 11.1052 3.49383 12.094 2.51985 13.0804C2.10554 13.5001 1.92054 14.0171 1.93142 14.6102C1.95086 15.6984 2.79502 16.2285 3.43864 16.9118L4.18953 16.1477ZM8.63812 13.0236C8.21682 12.6078 7.82272 12.223 7.43484 11.8328C6.86195 11.2568 6.94435 11.2848 6.39245 11.8328C5.5773 12.6469 4.76242 13.4613 3.94779 14.2759C3.82264 14.4011 3.71459 14.5363 3.86384 14.6988C4.15144 15.005 4.45382 15.2981 4.76008 15.6067C5.20393 15.1605 5.60581 14.726 6.04266 14.3295C6.28327 14.1119 6.55429 13.9304 6.84718 13.7909C7.42007 13.5204 8.01394 13.2887 8.63812 13.0236Z" fill="black"/>
<path d="M30.7979 5.41603C30.7401 5.51142 30.6564 5.58834 30.5564 5.63777C30.4564 5.6872 30.3444 5.70708 30.2336 5.69509C29.9833 5.68421 29.7322 5.69509 29.5262 5.69509L28.9176 7.14712C29.0808 7.30259 29.293 7.48292 29.492 7.68114C29.691 7.87936 29.7104 8.1281 29.5457 8.29833C29.3809 8.46856 29.1407 8.46934 28.9292 8.2618C28.7365 8.07291 28.5577 7.8677 28.3851 7.68425L27.202 8.8821C27.3575 9.02979 27.5612 9.20779 27.7462 9.39746C27.9724 9.63065 27.9879 9.85452 27.8045 10.0349C27.621 10.2152 27.3886 10.1802 27.1655 9.9649C26.9836 9.79 26.8041 9.61355 26.6214 9.43866C26.6159 9.43321 26.6027 9.43866 26.6214 9.43866L25.4554 10.6046C25.6342 10.7725 25.8371 10.9505 26.0267 11.1418C26.2389 11.3571 26.2506 11.5763 26.0757 11.7551C25.9008 11.9338 25.6692 11.9214 25.4593 11.7193C25.2657 11.5328 25.0838 11.3306 24.9152 11.1581L23.7492 12.3241C23.9047 12.4795 24.0865 12.6591 24.2653 12.8433C24.4985 13.0835 24.5211 13.3221 24.3314 13.5017C24.1417 13.6813 23.9326 13.6572 23.6963 13.424C23.6054 13.3361 23.5152 13.2475 23.4289 13.1558C23.3427 13.0641 23.2618 12.9677 23.1996 12.8977L22.0336 14.0715C22.1775 14.2161 22.3671 14.4042 22.5521 14.5954C22.7659 14.8161 22.7853 15.0618 22.6104 15.2343C22.4355 15.4069 22.207 15.3898 21.9722 15.1659C21.7911 14.9918 21.6123 14.813 21.4328 14.6374C21.4258 14.6304 21.4157 14.628 21.425 14.6327L20.2404 15.815C20.4238 15.9782 20.6353 16.1485 20.8265 16.3381C21.0503 16.5604 21.0597 16.8045 20.8708 16.9748C20.6967 17.1364 20.4627 17.1162 20.2544 16.9079C20.0694 16.7229 19.8968 16.527 19.7025 16.3179C19.5952 16.4166 19.5175 16.4835 19.4452 16.5558C16.1457 19.8516 12.847 23.1495 9.54914 26.4495C8.99725 27.0022 8.36218 27.3146 7.58641 27.1079C7.22266 27.0143 6.8876 26.8325 6.61088 26.5785C4.92099 24.9252 3.25286 23.2485 1.58707 21.5672C0.802757 20.7751 0.809753 19.5998 1.57541 18.7937C1.9905 18.3592 2.43046 17.9472 2.90152 17.4785C2.61391 17.2095 2.33952 16.9678 2.08145 16.7097C0.784879 15.4123 0.780992 13.6704 2.07056 12.3723C2.96241 11.4794 3.85399 10.5881 4.74532 9.69828C6.04033 8.40871 7.78696 8.40949 9.0843 9.69828C9.76446 10.3753 10.4454 11.0524 11.1178 11.7372C11.246 11.8686 11.351 11.8927 11.5204 11.8149C11.8982 11.6408 12.2861 11.4877 12.6693 11.3268C13.0875 11.1503 13.1512 11.1589 13.4614 11.4729C13.8967 11.9129 14.3273 12.3567 14.7712 12.8114L15.4373 12.0955C15.2749 11.9315 15.086 11.7434 14.9002 11.5514C14.6826 11.3268 14.6616 11.0897 14.8388 10.914C15.016 10.7383 15.2484 10.7585 15.4777 10.9816C15.6596 11.1558 15.8384 11.333 16.0219 11.5079C16.0281 11.5141 16.039 11.5156 16.0296 11.5118L17.1956 10.3419C17.0184 10.1779 16.8155 9.99988 16.6258 9.80866C16.4043 9.58557 16.3927 9.34926 16.5854 9.17281C16.7595 9.01035 16.9889 9.0329 17.2026 9.23811C17.3845 9.41223 17.5625 9.59023 17.7429 9.76668C17.7491 9.7729 17.76 9.77368 17.7343 9.76668L18.8948 8.60071C18.7503 8.46079 18.5544 8.27967 18.367 8.08923C18.1416 7.85604 18.1245 7.63683 18.3087 7.45416C18.493 7.27149 18.7184 7.2987 18.9446 7.51946C19.1296 7.70135 19.3045 7.89412 19.4654 8.06358L20.6314 6.8976C20.4821 6.74758 20.2995 6.56646 20.1199 6.38224C19.8828 6.14049 19.8564 5.90652 20.0422 5.72463C20.2279 5.54274 20.4479 5.56372 20.6982 5.8078C20.8723 5.97726 21.0441 6.14749 21.2167 6.31695C21.2237 6.32316 21.233 6.32627 21.2167 6.31695L22.4013 5.11988C22.2264 4.96441 22.0127 4.79884 21.8207 4.61151C21.6022 4.40086 21.5875 4.14512 21.7686 3.97489C21.9497 3.80465 22.1673 3.81942 22.3842 4.03085C22.577 4.2213 22.7558 4.42573 22.9283 4.60685L24.1332 3.39967C23.956 3.24421 23.7445 3.06931 23.5556 2.88042C23.3427 2.67055 23.3271 2.44201 23.4927 2.26479C23.6582 2.08756 23.9109 2.09611 24.1293 2.31143C24.3229 2.50187 24.5071 2.70008 24.6563 2.85555C25.1289 2.67987 25.5611 2.52596 25.9855 2.35262C26.0206 2.32752 26.0497 2.29501 26.0708 2.2574C26.0919 2.21978 26.1045 2.17799 26.1076 2.13497C26.1239 1.91344 26.1076 1.68879 26.1153 1.46648C26.1262 1.17421 26.2871 0.995425 26.5234 1.00009C26.7597 1.00475 26.916 1.17887 26.9253 1.47348C26.9331 1.70667 26.916 1.93987 26.9354 2.17306C26.9442 2.21464 26.9623 2.2537 26.9883 2.28735C27.0142 2.32099 27.0474 2.34835 27.0854 2.36739C27.4943 2.53218 27.9102 2.67832 28.389 2.85788C28.5258 2.71563 28.7155 2.5112 28.9145 2.31376C29.1135 2.11632 29.3607 2.09144 29.5317 2.2539C29.7027 2.41636 29.6972 2.67599 29.4804 2.89208C29.2884 3.0833 29.0808 3.2582 28.9362 3.39112C29.1212 3.88938 29.272 4.3138 29.4407 4.73122C29.4626 4.7675 29.4924 4.79846 29.5277 4.82185C29.5631 4.84524 29.6032 4.86048 29.6452 4.86647C29.8386 4.8828 30.0331 4.8828 30.2266 4.86647C30.3366 4.8521 30.4485 4.86828 30.55 4.91325C30.6514 4.95822 30.7385 5.03025 30.8018 5.12143L30.7979 5.41603ZM17.8315 17.0167C17.7887 16.9639 17.7677 16.932 17.7413 16.9056C16.1867 15.3509 14.632 13.7935 13.0774 12.2331C12.953 12.108 12.8613 12.1282 12.7237 12.1865C10.8348 12.9861 8.94517 13.7846 7.05473 14.5822C6.92231 14.6389 6.80179 14.7201 6.69949 14.8216C5.21533 16.2985 3.73402 17.7785 2.25556 19.2616C1.66791 19.8501 1.66869 20.5053 2.25556 21.093C3.85839 22.6994 5.46252 24.3033 7.06794 25.9046C7.67891 26.5156 8.3272 26.5101 8.94283 25.8953L14.7222 20.1175C15.7537 19.0898 16.7829 18.063 17.8315 17.0167ZM18.444 16.3949C18.4829 16.3583 18.5334 16.3171 18.5808 16.2651C21.7072 13.1361 24.8328 10.0092 27.9576 6.88439C28.0612 6.78237 28.1573 6.673 28.2452 6.55714C29.1181 5.3795 28.5849 3.68106 27.1873 3.23954C26.3322 2.96981 25.579 3.1758 24.947 3.80699C21.7989 6.95201 18.6523 10.0983 15.5073 13.246C15.4676 13.2856 15.4296 13.3299 15.4132 13.3501L16.6771 14.6164C16.7272 14.5319 16.7847 14.452 16.8489 14.3777C19.9111 11.312 22.9752 8.2478 26.0415 5.18517C26.1135 5.10555 26.1915 5.0315 26.2747 4.96363C26.4519 4.83305 26.6416 4.83071 26.8041 4.98385C26.9665 5.13698 26.9782 5.32586 26.8522 5.50931C26.7871 5.59342 26.7145 5.67147 26.6354 5.74251C23.5722 8.8067 20.5075 11.8701 17.4413 14.9327C17.3558 15.0018 17.263 15.0613 17.1645 15.11L18.444 16.3949ZM4.18953 16.1477C3.91592 15.8881 3.64541 15.6409 3.38423 15.382C2.83078 14.8325 2.82689 14.2534 3.37102 13.7077C4.27685 12.8019 5.18191 11.8968 6.08619 10.9925C6.62098 10.4601 7.20242 10.4593 7.74032 10.9925C8.25646 11.504 8.76716 12.0225 9.28719 12.5301C9.35015 12.5915 9.47607 12.6583 9.54292 12.635C9.84919 12.5293 10.1438 12.3917 10.4967 12.2463C9.68362 11.4558 8.94206 10.6583 8.11965 9.96024C7.35399 9.31195 6.20201 9.42544 5.462 10.1452C4.46937 11.1052 3.49383 12.094 2.51985 13.0804C2.10554 13.5001 1.92054 14.0171 1.93142 14.6102C1.95086 15.6984 2.79502 16.2285 3.43864 16.9118L4.18953 16.1477ZM8.63812 13.0236C8.21682 12.6078 7.82272 12.223 7.43484 11.8328C6.86195 11.2568 6.94435 11.2848 6.39245 11.8328C5.5773 12.6469 4.76242 13.4613 3.94779 14.2759C3.82264 14.4011 3.71459 14.5363 3.86384 14.6988C4.15144 15.005 4.45382 15.2981 4.76008 15.6067C5.20393 15.1605 5.60581 14.726 6.04266 14.3295C6.28327 14.1119 6.55429 13.9304 6.84718 13.7909C7.42007 13.5204 8.01394 13.2887 8.63812 13.0236Z" stroke="black" stroke-width="0.6" mask="url(#path-1-outside-1_8_1139)"/>
<path d="M5.68439 18.3026L5.68439 18.3024L5.67858 18.3024C4.84497 18.2991 4.15062 18.7376 3.86202 19.4318L3.86202 19.4318L3.86166 19.4326C3.7134 19.7957 3.66326 20.1557 3.72343 20.5004C3.7837 20.8457 3.95286 21.1654 4.22675 21.4497L4.22691 21.4498C5.04924 22.3007 5.88583 23.1376 6.73668 23.9604C6.91028 24.1323 7.11601 24.2685 7.34216 24.361C7.56859 24.4536 7.81105 24.5008 8.0557 24.4997C8.30035 24.4986 8.5424 24.4494 8.76802 24.3548C8.99364 24.2602 9.19842 24.1221 9.37066 23.9483C9.5429 23.7746 9.67924 23.5686 9.77188 23.3422C9.86453 23.1158 9.91167 22.8733 9.91061 22.6287C9.90955 22.384 9.86031 22.142 9.76571 21.9163C9.67126 21.6911 9.53345 21.4866 9.36012 21.3146C8.65873 20.5966 7.94596 19.8905 7.23498 19.1861C7.11399 19.0663 6.99305 18.9465 6.87223 18.8267C6.55626 18.5089 6.13216 18.3217 5.68439 18.3026ZM7.45447 23.1137L7.45455 23.1136L7.45053 23.1097C7.13685 22.8055 6.82921 22.4961 6.52032 22.1855C6.39857 22.0631 6.27663 21.9404 6.15405 21.8179C6.04659 21.7104 5.93908 21.6035 5.83173 21.4968C5.582 21.2485 5.33307 21.0011 5.08744 20.7489C4.74278 20.3948 4.75426 19.9358 5.05822 19.6395C5.21481 19.4869 5.40169 19.417 5.58836 19.4228C5.77568 19.4287 5.97397 19.5114 6.14931 19.6847L6.25475 19.578L6.14921 19.6846C6.18386 19.7189 6.21851 19.7532 6.25316 19.7875C7.00386 20.5307 7.75386 21.2732 8.48601 22.0283C8.55325 22.0978 8.60784 22.187 8.65717 22.2822C8.67808 22.3225 8.69706 22.362 8.71585 22.4011C8.71915 22.4079 8.72244 22.4148 8.72574 22.4216C8.7394 22.4499 8.75348 22.4789 8.76784 22.5063C8.74562 22.7106 8.7041 22.8649 8.63913 22.9832C8.57169 23.1062 8.47463 23.1984 8.32781 23.2674L8.32781 23.2674L8.32559 23.2685C8.18276 23.3385 8.02136 23.3612 7.86475 23.3334C7.70814 23.3055 7.56445 23.2286 7.45447 23.1137Z" fill="black" stroke="black" stroke-width="0.3"/>
</svg>
