<svg width="34" height="28" viewBox="0 0 34 28" fill="none" xmlns="http://www.w3.org/2000/svg">
<path fill-rule="evenodd" clip-rule="evenodd" d="M33.6 18.4C33.6 17.7852 33.3689 17.2245 32.9888 16.7998C33.3689 16.3752 33.6 15.8144 33.6 15.1997V12.8H28C26.6745 12.8 25.6 11.7255 25.6 10.4V7.19998C25.6 5.87449 26.6745 4.79998 28 4.79998H32.2749L32.2341 4.63394C32.0009 3.68499 31.2156 2.97218 30.2486 2.83164L21.9452 1.62493C21.8309 1.60831 21.7155 1.59998 21.6 1.59998C20.2745 1.59998 19.2 2.67449 19.2 3.99998V15.1997C19.2 15.4803 19.2482 15.7497 19.3367 16H2.4C1.07452 16 0 17.0745 0 18.4V20C0 21.3255 1.07452 22.4 2.4 22.4H3.25671C3.64489 19.6861 5.97882 17.6 8.8 17.6C11.6212 17.6 13.9551 19.6861 14.3433 22.4H20.8567C21.2449 19.6861 23.5788 17.6 26.4 17.6C29.1823 17.6 31.4907 19.6291 31.9261 22.2882C32.8967 21.9805 33.6 21.0724 33.6 20V18.4ZM33.5307 9.90996L32.6681 6.39997H28C27.5582 6.39997 27.2 6.75815 27.2 7.19998V10.4C27.2 10.8418 27.5582 11.2 28 11.2H33.6V10.4827C33.6 10.2897 33.5767 10.0974 33.5307 9.90996Z" fill="#2E2E2E"/>
<path d="M26.3999 27.2C28.609 27.2 30.3999 25.4091 30.3999 23.2C30.3999 20.9908 28.609 19.2 26.3999 19.2C24.1908 19.2 22.3999 20.9908 22.3999 23.2C22.3999 25.4091 24.1908 27.2 26.3999 27.2Z" fill="#2E2E2E"/>
<path d="M8.7998 27.2C11.0089 27.2 12.7998 25.4091 12.7998 23.2C12.7998 20.9908 11.0089 19.2 8.7998 19.2C6.59067 19.2 4.7998 20.9908 4.7998 23.2C4.7998 25.4091 6.59067 27.2 8.7998 27.2Z" fill="#2E2E2E"/>
<path fill-rule="evenodd" clip-rule="evenodd" d="M17.6 14.4H0V2.4C0 1.07452 1.07452 0 2.4 0H18.4C18.914 0 19.3902 0.161575 19.7807 0.436705C18.4862 1.09898 17.6 2.446 17.6 4V14.4Z" fill="#2E2E2E"/>
</svg>
