<svg width="34" height="34" viewBox="0 0 34 34" fill="none" xmlns="http://www.w3.org/2000/svg">
<path d="M5.19633 1C5.39386 1.05372 5.59304 1.10414 5.78975 1.1653C6.44598 1.35787 6.98485 1.7331 7.46422 2.21411C9.66323 4.42084 11.8672 6.62482 14.0761 8.82604C14.3729 9.1211 14.6266 9.42111 14.6844 9.84593C14.7092 10.0286 14.8018 10.0988 14.9787 10.074C15.02 10.0683 15.0613 10.0807 15.1035 10.074C15.9465 9.90874 16.4746 10.3848 16.9515 10.9683C17.168 11.2328 17.1548 11.503 16.892 11.7733C16.5011 12.1775 16.0986 12.5709 15.7018 12.9701C15.6299 13.0428 15.563 13.1197 15.4878 13.2007L16.3143 14.0057C17.0383 13.2445 17.7945 12.5006 18.4921 11.7055C19.362 10.693 20.0884 9.56557 20.6509 8.35494C20.7247 8.19777 20.7593 8.02507 20.7517 7.85161C20.6534 6.19284 21.1724 4.7564 22.289 3.5365C23.0452 2.71001 23.8395 1.93476 24.9395 1.56284C26.3057 1.10001 27.6413 1.14133 28.9464 1.76368C29.3745 1.96782 29.4166 2.36454 29.0555 2.72984C28.2414 3.55138 27.4165 4.36216 26.6049 5.18535C25.9908 5.80852 25.9057 6.63501 26.371 7.28546C26.9578 8.10369 28.0637 8.17972 28.8216 7.43836C29.6034 6.67303 30.3704 5.89282 31.1448 5.11923C31.2035 5.06055 31.2605 5.00021 31.3217 4.94319C31.6853 4.6035 32.0655 4.66549 32.2788 5.10848C32.6774 5.93621 32.8376 6.85859 32.7416 7.77226C32.6176 9.06737 32.0697 10.1534 31.1547 11.0782C30.3555 11.8865 29.5133 12.613 28.4091 12.9742C27.7384 13.2067 27.0283 13.3039 26.3198 13.2602C26.0409 13.2373 25.7613 13.2946 25.5139 13.4255C23.908 14.2267 22.4442 15.2857 21.1807 16.5603C20.7988 16.9447 20.412 17.3232 20.0054 17.7265C20.0988 17.824 20.1798 17.9133 20.2649 17.9984C23.1675 20.9011 26.0793 23.7954 28.9637 26.7171C29.3632 27.1329 29.8351 27.4723 30.3563 27.7188C30.5315 27.8068 30.6813 27.938 30.7919 28.0998C31.244 28.7486 31.6779 29.4106 32.1143 30.071C32.3672 30.452 32.3474 30.6545 32.0259 30.9801C31.5928 31.4165 31.1597 31.8529 30.7208 32.2835C30.4316 32.5695 30.2249 32.5926 29.8869 32.3719C29.191 31.914 28.4981 31.4515 27.8083 30.9842C27.7184 30.932 27.6426 30.8585 27.5876 30.7702C27.3066 30.2024 27.0396 29.628 26.7611 29.0577C26.7236 28.9745 26.6728 28.898 26.6107 28.8312C23.7119 25.9253 20.8107 23.0227 17.9069 20.1233C17.8648 20.0804 17.8168 20.0407 17.7606 19.9928C16.2837 21.4259 14.8192 22.8466 13.7935 24.6451C13.7108 24.7897 13.6381 24.9401 13.553 25.0831C13.2158 25.6476 12.9926 26.2104 13.0083 26.9171C13.043 28.5411 12.3389 29.8875 11.1991 31.0281C10.5239 31.7033 9.82715 32.3289 8.90562 32.6604C7.52455 33.1563 6.17159 33.1158 4.84176 32.4951C4.40951 32.2942 4.35827 31.8926 4.71448 31.533C5.53519 30.7065 6.36746 29.885 7.18734 29.0536C7.81961 28.413 7.88159 27.5179 7.35264 26.8799C6.72699 26.1245 5.68478 26.0972 4.93516 26.832C4.15495 27.5981 3.38631 28.3775 2.61272 29.1511C2.55404 29.2098 2.49701 29.2709 2.43585 29.3271C2.08542 29.6453 1.70936 29.5751 1.50026 29.1437C1.0997 28.3232 0.934614 27.4076 1.02338 26.4989C1.13909 25.2286 1.65647 24.1467 2.55073 23.2309C3.35821 22.4045 4.20371 21.6482 5.33352 21.2788C6.06328 21.0257 6.83662 20.9225 7.6072 20.9754C7.78087 20.9871 7.95465 20.9544 8.11219 20.8804C9.82465 20.0579 11.3779 18.9386 12.7 17.5744C13.129 17.1356 13.5678 16.7058 13.9885 16.2851L13.162 15.49C12.7529 15.9033 12.3075 16.3537 11.8578 16.8017C11.4735 17.1843 11.2686 17.143 10.8429 16.8075C10.2511 16.3405 10.0255 15.7595 10.104 15.0363C10.1313 14.7776 10.0214 14.6594 9.77343 14.623C9.40978 14.5652 9.13786 14.3569 8.87917 14.0966C6.65343 11.8576 4.41612 9.63352 2.1846 7.39538C0.800225 6.00027 0.631621 3.97537 1.773 2.47363C2.3315 1.71949 3.16137 1.21209 4.08718 1.05868C4.14561 1.04347 4.2028 1.02385 4.25826 1L5.19633 1ZM15.8655 11.2691C15.6845 11.2129 15.5514 11.1452 15.4134 11.1328C15.1655 11.1113 14.9175 11.1237 14.6638 11.1212C14.0117 11.1146 13.9356 11.0452 13.7472 10.4269C13.6645 10.165 13.5943 9.85915 13.4166 9.6765C11.1851 7.41522 8.93372 5.17295 6.68566 2.92655C6.32817 2.5577 5.8793 2.2902 5.38477 2.1513C3.64914 1.67276 1.89367 3.1778 2.10112 4.9498C2.18377 5.65975 2.5061 6.22507 2.99952 6.71766C4.99797 8.71171 6.99339 10.7091 8.98579 12.7097C9.48168 13.2106 9.96187 13.6916 10.7032 13.8048C10.9966 13.8494 11.1272 14.0776 11.1355 14.3743C11.1462 14.7388 11.1553 15.1032 11.1843 15.4669C11.1933 15.5785 11.2669 15.6859 11.314 15.8033C12.8381 14.2867 14.3109 12.8188 15.8655 11.2691ZM5.95174 31.7876C6.74586 32.0145 7.58984 31.9975 8.37418 31.7388C9.34035 31.4339 10.0222 30.747 10.6826 30.0354C11.6628 28.9784 12.0876 27.7337 11.9595 26.2881C11.7892 24.3996 10.3437 22.7086 8.52543 22.1854C5.45915 21.3036 2.76562 23.8814 2.20113 25.8716C1.99391 26.5839 2.00398 27.3419 2.23005 28.0486C2.89703 27.3807 3.52682 26.746 4.16156 26.117C4.81532 25.4691 5.59139 25.1881 6.51706 25.3104C7.79481 25.4757 8.84198 26.7873 8.72875 28.0618C8.6695 28.7626 8.35407 29.417 7.84275 29.8999C7.22206 30.514 6.60715 31.133 5.95174 31.7876ZM27.8331 2.45297C27.0753 2.24344 26.2742 2.24801 25.5189 2.46619C24.6098 2.72737 23.9436 3.32326 23.3056 3.97867C21.7732 5.549 21.3823 7.34827 22.1989 9.39384C22.87 11.0757 24.7949 12.3056 26.6066 12.2221C28.9092 12.1155 30.3795 10.789 31.3878 8.86902C31.8168 8.05244 31.8126 7.13339 31.5531 6.20028C31.4424 6.30607 31.3605 6.38293 31.2795 6.46228C30.5927 7.12925 29.9456 7.84334 29.2133 8.45577C27.8603 9.58476 25.6503 8.87645 25.1437 7.19124C24.8222 6.12176 25.0883 5.1994 25.8635 4.41589C26.5008 3.77288 27.1446 3.13813 27.8331 2.45297ZM14.7456 17.0141C13.1629 18.6423 11.5562 20.2837 9.42796 21.3796C10.9363 22.0499 11.9669 23.0847 12.6306 24.5831C13.7315 22.4507 15.3638 20.8449 16.9961 19.2621L14.7456 17.0141ZM19.2723 16.9356C20.0583 16.1917 20.8104 15.4115 21.641 14.723C22.4716 14.0346 23.3766 13.4469 24.2478 12.8172C22.8493 12.2039 21.8104 11.1642 21.1435 9.66245C20.1029 11.6799 18.5813 13.2263 17.0441 14.7189L19.2723 16.9356ZM28.105 27.4196L14.7324 14.047L14.0629 14.6983L27.4273 28.0717L28.105 27.4196ZM30.1712 31.2876L31.0762 30.4131C30.7101 29.8635 30.344 29.3106 29.9729 28.7602C29.9297 28.7029 29.8751 28.6553 29.8125 28.6205C28.943 28.0998 28.9431 28.0998 28.2331 28.8098C28.1641 28.873 28.0987 28.94 28.0372 29.0106C28.0017 29.0544 27.9546 29.1346 27.9703 29.166C28.1612 29.5189 28.2926 29.9445 28.5777 30.1958C29.053 30.6181 29.6307 30.9289 30.1679 31.2876H30.1712Z" fill="black" stroke="black" stroke-width="0.5"/>
</svg>
