<svg width="161" height="92" viewBox="0 0 161 92" fill="none" xmlns="http://www.w3.org/2000/svg">
<path d="M115.502 44.4477C115.447 42.8692 115.293 41.2958 115.042 39.7365L114.735 37.8441L120.814 38.9672L120.25 36.8573L114.175 35.7343L113.937 34.948C113.48 33.429 112.927 31.9408 112.281 30.4923L111.494 28.7454L117.547 28.2645L116.454 26.3735L110.413 26.8518L109.979 26.1481C109.143 24.7891 108.222 23.4844 107.221 22.2415L106.023 20.758L111.628 18.7687L110.083 17.225L104.508 19.2051L103.907 18.6311C102.744 17.5225 101.512 16.489 100.218 15.5371L98.6882 14.4192L103.457 11.143L101.565 10.0501L96.8233 13.3132L96.0934 12.9108C94.6753 12.1286 93.208 11.4392 91.7007 10.8468L89.9367 10.1549L93.5825 5.88009L91.4713 5.31527L87.8465 9.55338L87.0393 9.35287C85.4526 8.9619 83.8421 8.67474 82.218 8.49319L80.3296 8.2822L82.6885 3.34167H80.4973L78.1594 8.25075L77.3233 8.26517C75.6768 8.29438 74.0339 8.43052 72.4051 8.67273L70.5272 8.95317L71.4943 3.72172L69.3831 4.28785L68.4304 9.47999L67.6257 9.71194C66.0301 10.171 64.4671 10.7367 62.9473 11.4051L61.207 12.1678L60.7955 6.98482L58.9045 8.07646L59.3133 13.228L58.6017 13.6578C57.1727 14.5278 55.8024 15.4909 54.4999 16.5409L53.0165 17.736L51.3023 12.9043L49.7573 14.4493L51.4609 19.247L50.8856 19.8485C49.726 21.0632 48.6482 22.3533 47.6592 23.7105L46.5361 25.253L43.6622 21.0804L42.5693 22.9727L45.4301 27.1309L45.0369 27.8595C44.2318 29.3393 43.5273 30.8717 42.9283 32.4462L42.2469 34.2377L38.4045 30.9615L37.8397 33.0713L41.6755 36.3476L41.4868 37.1509C41.1005 38.7926 40.8255 40.4585 40.6638 42.1373L40.4777 44.0558L35.8779 41.866V44.0362L40.483 46.2286L40.5105 47.049C40.5662 48.7309 40.7343 50.4073 41.0137 52.0668L41.3348 53.971L36.258 53.034L36.8241 55.1439L41.9062 56.0926L42.1473 56.8789C42.6445 58.4817 43.2483 60.0495 43.9545 61.5718L44.7735 63.3344L39.5158 63.7511L40.6088 65.6435L45.89 65.2136L46.3264 65.899C47.2233 67.3068 48.2127 68.6535 49.2881 69.9301L50.5462 71.4253L45.4353 73.2377L46.9804 74.7828L52.1188 72.9586L52.7177 73.5051C53.9421 74.6214 55.2388 75.6559 56.5993 76.6017L58.2086 77.7157L53.6219 80.8752L55.5142 81.9669L60.135 78.7876L60.8532 79.1572C62.3145 79.9111 63.8239 80.5677 65.3717 81.1229L67.2142 81.7782L63.4964 86.1368L65.6063 86.703L69.3477 82.3024L70.134 82.4701C71.7284 82.8109 73.3433 83.0473 74.9684 83.1778L76.9236 83.3337L74.3878 88.6595H76.5724L79.1279 83.2865L79.9338 83.2459C81.5462 83.1653 83.1518 82.9814 84.7407 82.6955L86.6658 82.3456L85.5702 88.2782L87.6801 87.7133L88.7848 81.7336L89.5515 81.4859C91.0761 80.9928 92.5674 80.4024 94.0163 79.7181L95.7868 78.882L96.2729 85.0177L98.1653 83.9247L97.6752 77.7445L98.3514 77.3068C99.688 76.4413 100.969 75.4923 102.186 74.4657L103.677 73.2076L105.767 79.0969L107.312 77.5518L105.216 71.6298L105.761 71.0309C106.827 69.86 107.818 68.6231 108.728 67.3274L109.842 65.7431L113.408 70.9247L114.499 69.0324L110.918 63.8245L111.294 63.1037C112.023 61.7039 112.664 60.2595 113.212 58.7791L113.883 56.9628L118.668 61.045L119.233 58.9338L114.428 54.8451L114.608 54.0496C114.953 52.5094 115.201 50.949 115.351 49.3777L115.534 47.4552L121.191 50.1496V47.9676L115.527 45.2693L115.502 44.4477Z" fill="#FAF33E"/>
<path d="M117.965 41.1899L124.529 42.4021L122.421 34.509L116.28 33.3754C116.033 32.6197 115.765 31.8745 115.475 31.1398L122.028 30.6156L117.943 23.5389L111.838 24.0238C111.406 23.352 110.952 22.6911 110.476 22.0411L116.564 19.8814L110.786 14.1034L105.151 16.1019C104.553 15.5541 103.934 15.0221 103.299 14.5084L108.503 10.9268L101.427 6.84073L96.6565 10.134C95.9226 9.7487 95.1744 9.3857 94.4208 9.04759L98.4139 4.36654L90.5208 2.25141L86.8659 6.5367C86.0442 6.35192 85.2134 6.19335 84.376 6.05968L86.9576 0.639517H78.7894L76.4305 5.5866C75.5721 5.61936 74.7151 5.67964 73.8659 5.76614L74.93 0L67.0395 2.11905L66.0724 7.361C65.2424 7.62309 64.419 7.90878 63.6021 8.21805L63.15 2.50958L56.0734 6.59567L56.4862 11.7944C55.7445 12.2653 55.0158 12.7624 54.3003 13.2857L52.4158 7.96644L46.6379 13.7444L48.3573 18.5932C47.7597 19.2458 47.1813 19.9202 46.6222 20.6166L43.4613 16.0299L39.3752 23.1065L42.2661 27.3066C41.8573 28.0929 41.4737 28.8997 41.1155 29.727L36.8971 26.1219L34.7819 34.0136L38.6688 37.3292C38.4828 38.2006 38.3255 39.0826 38.1971 39.9685L33.1766 37.5742V45.7464L37.8459 47.9742C37.893 48.8614 37.9704 49.7486 38.0765 50.6306L32.541 49.6084L34.6561 57.5002L39.8155 58.4516C40.0916 59.2868 40.3974 60.1168 40.7329 60.9415L35.0336 61.3936L39.1197 68.4702L44.4926 68.0443C44.9732 68.7677 45.4794 69.4771 46.0115 70.1726L40.497 72.1199L46.2815 77.8979L51.5103 76.0422C52.1524 76.604 52.8155 77.1478 53.4996 77.6738L48.5591 81.081L55.6357 85.1658L60.3377 81.9302C61.0943 82.2998 61.8636 82.6466 62.6455 82.9708L58.6524 87.6387L66.5442 89.7525L70.3616 85.2772C71.1759 85.4327 71.994 85.5638 72.8162 85.6704L70.1048 91.3644H78.277L80.8783 85.9036C81.6881 85.846 82.4993 85.7634 83.3066 85.6572L82.1337 92L90.0255 89.8862L91.1485 83.8042C91.9047 83.5421 92.6556 83.2578 93.396 82.9511L93.9202 89.5035L100.997 85.4187L100.498 79.1284C101.15 78.6916 101.791 78.2299 102.421 77.7432L104.649 84.0336L110.427 78.2556L108.294 72.2431C108.806 71.656 109.304 71.0519 109.786 70.4307L113.604 75.978L117.688 68.9014L114.057 63.6254C114.403 62.9269 114.729 62.2166 115.035 61.5011L120.168 65.8794L122.29 57.9903L117.425 53.84C117.58 53.0786 117.713 52.308 117.818 51.5348L123.898 54.4297V46.2641L118.164 43.5343C118.121 42.748 118.054 41.9657 117.965 41.1899ZM121.191 50.1497L115.535 47.4553L115.352 49.3778C115.202 50.9491 114.954 52.5095 114.609 54.0497L114.427 54.8451L119.227 58.9391L118.662 61.0503L113.878 56.9681L113.207 58.7844C112.658 60.2648 112.018 61.7092 111.288 63.109L110.912 63.8298L114.492 69.0338L113.401 70.9261L109.84 65.7431L108.722 67.3314C107.812 68.6262 106.82 69.8623 105.754 71.0322L105.209 71.6311L107.306 77.5532L105.76 79.0983L103.681 73.2116L102.189 74.4696C100.972 75.4963 99.6915 76.4453 98.3549 77.3108L97.6787 77.7485L98.1688 83.9287L96.2765 85.0217L95.7903 78.886L94.0198 79.7221C92.5709 80.4063 91.0796 80.9968 89.555 81.4899L88.7884 81.7376L87.6836 87.7173L85.5737 88.2822L86.6693 82.3496L84.739 82.6956C83.1502 82.9828 81.5446 83.1679 79.9321 83.2499L79.1261 83.2905L76.5707 88.6635H74.3861L76.9219 83.3377L74.9667 83.1817C73.3415 83.0508 71.7266 82.814 70.1323 82.4728L69.346 82.3024L65.5967 86.6991L63.4868 86.133L67.2034 81.7782L65.3608 81.123C63.813 80.5678 62.3036 79.9111 60.8423 79.1572L60.1241 78.7877L55.5033 81.9669L53.611 80.8753L58.2069 77.7157L56.6055 76.6005C55.245 75.6547 53.9483 74.6202 52.7238 73.5038L52.1249 72.9573L46.9799 74.7802L45.4349 73.2352L50.5458 71.4228L49.289 69.9301C48.2136 68.6535 47.2242 67.3069 46.3273 65.8991L45.8883 65.2137L40.6057 65.633L39.5128 63.7407L44.7705 63.324L43.9514 61.5614C43.2452 60.0391 42.6415 58.4713 42.1443 56.8685L41.9031 56.0822L36.8171 55.1426L36.251 53.0327L41.3278 53.9697L41.0068 52.0656C40.7279 50.4069 40.5602 48.7314 40.5048 47.0504L40.4773 46.23L35.8723 44.0362V41.8556L40.4721 44.0454L40.6582 42.1269C40.8198 40.4481 41.0948 38.7822 41.4811 37.1405L41.6699 36.3371L37.8341 33.0609L38.3989 30.951L42.2412 34.2273L42.9227 32.4358C43.5217 30.8613 44.2261 29.3289 45.0313 27.8491L45.4244 27.1205L42.5649 22.9676L43.6605 21.0805L46.5318 25.2531L47.6548 23.7106C48.6438 22.3534 49.7216 21.0632 50.8813 19.8486L51.4566 19.2471L49.7529 14.4494L51.3006 12.9043L53.0121 17.7296L54.4956 16.5344C55.7981 15.4844 57.1683 14.5213 58.5974 13.6513L59.3116 13.2202L58.9027 8.06866L60.7938 6.97702L61.2053 12.16L62.9456 11.4052C64.4655 10.7372 66.0284 10.172 67.624 9.71332L68.4287 9.48005L69.3866 4.28791L71.4978 3.72178L70.5254 8.95324L72.3981 8.67279C74.0286 8.4286 75.6732 8.29071 77.3216 8.25999L78.1577 8.24557L80.4956 3.3365H82.6802L80.3213 8.27703L82.2071 8.48801C83.8344 8.67089 85.4479 8.95981 87.0375 9.35293L87.8474 9.55344L91.4722 5.30353L93.5834 5.86835L89.935 10.1432L91.6989 10.8351C93.2062 11.4275 94.6736 12.1169 96.0917 12.8991L96.8216 13.3014L101.563 10.0383L103.455 11.1313L98.6865 14.4075L100.216 15.5319C101.51 16.4839 102.742 17.5173 103.905 18.6259L104.506 19.1999L110.086 17.2198L111.631 18.7635L106.026 20.7581L107.219 22.2416C108.22 23.484 109.142 24.7883 109.979 26.1468L110.413 26.8505L116.454 26.3722L117.547 28.2632L111.494 28.7442L112.28 30.4911C112.927 31.9395 113.48 33.4277 113.937 34.9467L114.175 35.733L120.249 36.8561L120.814 38.966L114.735 37.8429L115.041 39.7352C115.293 41.2945 115.446 42.868 115.501 44.4464L115.53 45.2655L121.193 47.9677L121.191 50.1497Z" fill="black"/>
<path d="M78.5332 18.3823C63.3027 18.3823 50.9121 30.7717 50.9121 46.0008C50.9121 61.23 63.3027 73.6219 78.5332 73.6219C93.7637 73.6219 106.154 61.2313 106.154 46.0021C106.154 30.773 93.7637 18.3823 78.5332 18.3823ZM78.5332 71.2408C64.6159 71.2408 53.2946 59.9182 53.2946 46.0008C53.2946 32.0834 64.6159 20.7648 78.5332 20.7648C92.4506 20.7648 103.772 32.0848 103.772 46.0021C103.772 59.9195 92.4506 71.2408 78.5332 71.2408Z" fill="black"/>
<path d="M155.098 34.6374L145.258 39.2241C136.404 35.045 139.454 27.0261 139.454 27.0261C139.454 27.0261 149.205 22.5705 149.282 21.8432C149.36 21.1159 135.488 17.8881 131.201 25.6894C128.856 29.9656 126.746 31.8081 120.98 33.4515L116.283 34.4514V34.4422C116.283 34.4422 38.157 50.4235 24.7901 53.0865C24.156 53.2091 23.5015 53.1737 22.8844 52.9833C22.2672 52.7929 21.7065 52.4534 21.2518 51.9948C20.1679 50.9189 18.8785 50.0721 17.4605 49.5049C12.4584 47.4933 6.6071 49.3686 3.69127 53.9186C2.80666 55.2937 2.22891 56.8433 1.9974 58.4618C1.7659 60.0804 1.88608 61.7298 2.34976 63.2977C2.81344 64.8656 3.60971 66.3151 4.6843 67.5474C5.7589 68.7797 7.08655 69.7658 8.57676 70.4386C13.5369 72.69 19.5101 71.0322 22.6055 66.5517C23.0874 65.8561 23.4901 65.1089 23.8059 64.3239C24.0421 63.7307 24.4203 63.2045 24.9072 62.7914C25.394 62.3783 25.9748 62.091 26.5986 61.9545L29.2693 61.3792V61.3884L122.856 42.3326C135.529 39.8755 136.336 48.1433 144.297 46.4488C152.258 44.7544 155.787 35.0856 155.098 34.6374ZM21.6987 59.4056L21.2596 59.5196L20.9019 59.614C20.8593 59.6248 20.819 59.643 20.7826 59.6677L20.9661 60.585L20.7446 61.2324C20.772 61.2515 20.8014 61.2673 20.8324 61.2796L21.2072 61.4172L21.6004 61.5587C21.6954 61.5941 21.7725 61.6657 21.815 61.7577C21.8575 61.8498 21.8618 61.9549 21.8271 62.0502L21.0644 64.1207C21.047 64.1679 21.0205 64.2112 20.9864 64.2481C20.9523 64.285 20.9113 64.3148 20.8656 64.3359C20.82 64.3569 20.7707 64.3688 20.7204 64.3708C20.6702 64.3728 20.6201 64.3648 20.5729 64.3475L20.2558 64.2308L19.8443 64.0867C19.8239 64.0792 19.8028 64.0735 19.7814 64.0696L19.6766 64.3763L18.9126 65.0446C18.9168 65.1184 18.9423 65.1894 18.9859 65.2491L19.1642 65.4863L19.4433 65.8598C19.4735 65.8999 19.4955 65.9457 19.5081 65.9944C19.5206 66.043 19.5234 66.0937 19.5164 66.1435C19.5093 66.1933 19.4925 66.2412 19.4669 66.2845C19.4414 66.3277 19.4075 66.3656 19.3673 66.3957L17.6008 67.718C17.5606 67.7482 17.5148 67.7702 17.4662 67.7828C17.4175 67.7953 17.3668 67.7981 17.317 67.7911C17.2672 67.784 17.2193 67.7672 17.1761 67.7416C17.1328 67.7161 17.095 67.6822 17.0648 67.642L16.9206 67.4494L16.6284 67.0562C16.619 67.0438 16.609 67.032 16.5982 67.0208L14.9352 67.3498C14.8776 67.3823 14.8295 67.4295 14.7959 67.4866C14.7623 67.5436 14.7444 67.6086 14.7439 67.6748V68.4113C14.7439 68.5128 14.7036 68.6101 14.6318 68.6819C14.5601 68.7536 14.4627 68.7939 14.3612 68.7939H12.1544C12.0529 68.7939 11.9556 68.7536 11.8838 68.6819C11.812 68.6101 11.7717 68.5128 11.7717 68.4113V67.6787C11.7702 67.5799 11.7297 67.4857 11.659 67.4166L10.0301 66.8623C9.93442 66.8765 9.84798 66.9272 9.78896 67.0038L9.60549 67.2423L9.3434 67.5857C9.31273 67.6254 9.27453 67.6587 9.23097 67.6837C9.18741 67.7086 9.13935 67.7247 9.08955 67.731C9.03975 67.7374 8.9892 67.7338 8.94078 67.7205C8.89236 67.7073 8.84704 67.6846 8.80741 67.6538L7.0566 66.3014C6.97642 66.2394 6.92409 66.1482 6.91107 66.0478C6.89805 65.9473 6.92541 65.8457 6.98714 65.7654L7.30297 65.3552L7.45499 65.16C7.48759 65.1169 7.51075 65.0674 7.52294 65.0148C7.53514 64.9622 7.5361 64.9076 7.52575 64.8546L6.32666 63.4852L6.31224 63.4314L5.8313 63.5625L5.5692 63.6319C5.52058 63.6448 5.46991 63.6479 5.42008 63.6412C5.37024 63.6344 5.32223 63.6179 5.27878 63.5926C5.23533 63.5673 5.1973 63.5337 5.16685 63.4936C5.13641 63.4536 5.11415 63.408 5.10136 63.3593L4.54309 61.2246C4.53024 61.1759 4.5271 61.1253 4.53385 61.0754C4.54059 61.0256 4.5571 60.9776 4.58241 60.9341C4.60773 60.8907 4.64136 60.8527 4.68138 60.8222C4.72141 60.7918 4.76704 60.7695 4.81567 60.7567L5.25337 60.6427L5.61113 60.5497C5.65393 60.5382 5.69432 60.5191 5.73039 60.4933L5.54823 59.576L5.7697 58.9207C5.74651 58.9057 5.72194 58.893 5.69632 58.8827L5.30317 58.7399L4.91002 58.597C4.86287 58.5797 4.8196 58.5532 4.78268 58.5191C4.74577 58.485 4.71593 58.4439 4.69488 58.3983C4.67383 58.3526 4.66197 58.3033 4.65998 58.2531C4.658 58.2029 4.66593 58.1528 4.68331 58.1056L5.44601 56.0364C5.46325 55.9893 5.48962 55.946 5.5236 55.9091C5.55758 55.8722 5.5985 55.8424 5.64403 55.8213C5.68956 55.8002 5.7388 55.7884 5.78892 55.7864C5.83905 55.7844 5.88907 55.7923 5.93613 55.8096L6.25458 55.9263L6.73291 56.0927L6.83775 55.7808L7.64239 55.0771C7.63148 55.0514 7.6174 55.0272 7.60045 55.005L7.35146 54.6721L7.07101 54.2973C7.04086 54.2571 7.01895 54.2113 7.00651 54.1625C6.99408 54.1138 6.99138 54.0631 6.99856 54.0133C7.00574 53.9635 7.02266 53.9157 7.04836 53.8724C7.07406 53.8292 7.10803 53.7914 7.14833 53.7614L8.91356 52.4391C8.95381 52.4089 8.99962 52.387 9.04836 52.3746C9.09709 52.3621 9.1478 52.3594 9.19758 52.3666C9.24736 52.3738 9.29524 52.3907 9.33847 52.4164C9.38171 52.4421 9.41945 52.4761 9.44955 52.5164L9.5937 52.709L9.91215 53.1349L11.7468 52.7693C11.7589 52.7321 11.7651 52.6932 11.7652 52.654V51.7367C11.7652 51.6352 11.8055 51.5378 11.8773 51.4661C11.949 51.3943 12.0463 51.354 12.1478 51.354H14.3547C14.4049 51.354 14.4547 51.3639 14.5011 51.3831C14.5476 51.4024 14.5897 51.4305 14.6253 51.4661C14.6608 51.5016 14.689 51.5438 14.7082 51.5902C14.7275 51.6366 14.7374 51.6864 14.7374 51.7367V52.654C14.7374 52.6684 14.7374 52.6828 14.7374 52.6972L16.572 53.3223C16.5841 53.3107 16.5954 53.2985 16.6061 53.2856L16.8983 52.9082L17.1604 52.5662C17.1911 52.5263 17.2294 52.4929 17.273 52.4678C17.3166 52.4427 17.3648 52.4265 17.4147 52.42C17.4646 52.4136 17.5153 52.417 17.5639 52.4302C17.6124 52.4433 17.6579 52.466 17.6977 52.4967L19.4433 53.8452C19.4831 53.8758 19.5166 53.9139 19.5416 53.9574C19.5667 54.0009 19.5829 54.049 19.5894 54.0988C19.5958 54.1486 19.5924 54.1992 19.5792 54.2476C19.5661 54.2961 19.5435 54.3415 19.5128 54.3812L19.1969 54.7901L18.9728 55.0797C18.9431 55.1188 18.9213 55.1633 18.9086 55.2108L20.1746 56.6523L20.1863 56.7099L20.6673 56.5789L20.9294 56.5094C21.0277 56.4839 21.1322 56.4984 21.2199 56.5497C21.3076 56.6011 21.3714 56.6851 21.3972 56.7833L21.9555 58.9168C21.9712 58.9655 21.977 59.0168 21.9726 59.0678C21.9681 59.1187 21.9534 59.1683 21.9295 59.2135C21.9056 59.2587 21.8728 59.2986 21.8331 59.331C21.7935 59.3633 21.7478 59.3873 21.6987 59.4017V59.4056Z" fill="white"/>
<path d="M158.892 32.7927C158.831 32.7468 158.761 32.7049 158.709 32.6616L157.469 31.857C157.344 31.7758 157.201 31.7278 157.052 31.7175C156.904 31.7072 156.755 31.7349 156.62 31.798L147.53 36.0427C147.389 36.1098 147.232 36.1375 147.076 36.1228C146.92 36.108 146.771 36.0513 146.644 35.9588C146.447 35.812 146.251 35.6521 146.068 35.4831L146.023 35.4438C145.444 34.9205 144.978 34.2846 144.654 33.575L144.615 33.4912V33.4767C144.604 33.4466 144.592 33.4165 144.58 33.3876L144.56 33.3352C144.542 33.2933 144.525 33.2513 144.508 33.2042L144.491 33.1504C144.449 33.0325 144.415 32.9106 144.381 32.7914C144.354 32.6931 144.331 32.5922 144.311 32.4926V32.4808C144.291 32.3864 144.271 32.2921 144.257 32.1964C144.212 31.9036 144.188 31.608 144.185 31.3118C144.185 31.2279 144.185 31.1454 144.185 31.0654C144.189 30.903 144.238 30.745 144.327 30.6089C144.416 30.4729 144.541 30.3642 144.688 30.2949C145.562 29.8834 146.58 29.3972 147.596 28.8979C149.075 28.1693 150.269 27.5507 151.143 27.0632C152.609 26.2402 154.27 25.3072 154.501 23.2523C154.511 23.1567 154.518 23.0558 154.521 22.9522C154.555 21.5107 153.764 20.2264 152.407 19.5096C152.002 19.3014 151.579 19.1303 151.143 18.9985C149.479 18.4743 145.527 17.7037 141.268 18.1768C141.105 18.1952 140.945 18.2148 140.783 18.2358C140.302 18.3 139.826 18.3799 139.369 18.473C139.107 18.528 138.833 18.5883 138.575 18.6512C134.558 19.6485 131.52 21.8423 129.794 24.9966C128.746 26.9099 127.922 27.9727 126.86 28.7891C126.696 28.9202 126.522 29.0381 126.336 29.1548C126.061 29.3334 125.777 29.4978 125.485 29.6475C125.386 29.6999 125.282 29.751 125.177 29.8008C124.222 30.2428 123.234 30.6108 122.222 30.9016L121.84 31.0143C121.819 31.021 121.797 31.0262 121.775 31.0301L118.41 31.7469L117.257 31.9828C116.513 32.1348 38.8689 48.0126 25.7928 50.6179C25.7289 50.6247 25.6643 50.6163 25.6042 50.5936C25.5442 50.5708 25.4902 50.5343 25.4469 50.4868C24.9299 49.9745 24.3758 49.501 23.7891 49.0702L23.7485 49.0388C23.5676 48.906 23.375 48.7723 23.1706 48.6377L23.1352 48.6142C22.2989 48.0667 21.4104 47.6036 20.4828 47.2316C17.7434 46.1325 14.7397 45.8703 11.8514 46.4782C8.96305 47.0861 6.31981 48.5367 4.25583 50.6466C2.19186 52.7566 0.799837 55.4312 0.255764 58.3322C-0.28831 61.2332 0.0399946 64.2304 1.19917 66.9449C2.35835 69.6593 4.29634 71.9691 6.76813 73.5823C9.23992 75.1954 12.1345 76.0394 15.0859 76.0076C18.0374 75.9758 20.9131 75.0696 23.3496 73.4036C25.786 71.7376 27.6738 69.3865 28.7742 66.6477C28.7969 66.5907 28.8323 66.5396 28.8777 66.4983C28.8904 66.4867 28.904 66.4762 28.9184 66.4669C28.94 66.4516 28.9639 66.4397 28.9891 66.4315L29.0258 66.421L30.8605 66.0279L125.215 46.8109C125.759 46.7061 126.291 46.6209 126.797 46.558C131.436 45.984 133.727 47.2984 136.151 48.6889C138.818 50.2182 141.84 51.9533 146.709 50.9167C151.347 49.9299 154.547 46.9472 156.414 44.6185C156.474 44.5425 156.535 44.4678 156.592 44.3931C158.85 41.4995 160 38.5876 160.298 36.9731C160.368 36.6099 160.401 36.2408 160.398 35.871C160.385 34.5893 159.848 33.4964 158.892 32.7927Z" fill="black"/>
<path d="M155.098 34.6374L145.258 39.2241C136.404 35.045 139.454 27.0261 139.454 27.0261C139.454 27.0261 149.205 22.5705 149.282 21.8432C149.36 21.1159 135.488 17.8881 131.201 25.6894C128.856 29.9656 126.746 31.8081 120.98 33.4515L116.283 34.4514V34.4422C116.283 34.4422 38.157 50.4235 24.7901 53.0865C24.156 53.2091 23.5015 53.1737 22.8844 52.9833C22.2672 52.7929 21.7065 52.4534 21.2518 51.9948C20.1679 50.9189 18.8785 50.0721 17.4605 49.5049C12.4584 47.4933 6.6071 49.3686 3.69127 53.9186C2.80666 55.2937 2.22891 56.8433 1.9974 58.4618C1.7659 60.0804 1.88608 61.7298 2.34976 63.2977C2.81344 64.8656 3.60971 66.3151 4.6843 67.5474C5.7589 68.7797 7.08655 69.7658 8.57676 70.4386C13.5369 72.69 19.5101 71.0322 22.6055 66.5517C23.0874 65.8561 23.4901 65.1089 23.8059 64.3239C24.0421 63.7307 24.4203 63.2045 24.9072 62.7914C25.394 62.3783 25.9748 62.091 26.5986 61.9545L29.2693 61.3792V61.3884L122.856 42.3326C135.529 39.8755 136.336 48.1433 144.297 46.4488C152.258 44.7544 155.787 35.0856 155.098 34.6374ZM21.6987 59.4056L21.2596 59.5196L20.9019 59.614C20.8593 59.6248 20.819 59.643 20.7826 59.6677L20.9661 60.585L20.7446 61.2324C20.772 61.2515 20.8014 61.2673 20.8324 61.2796L21.2072 61.4172L21.6004 61.5587C21.6954 61.5941 21.7725 61.6657 21.815 61.7577C21.8575 61.8498 21.8618 61.9549 21.8271 62.0502L21.0644 64.1207C21.047 64.1679 21.0205 64.2112 20.9864 64.2481C20.9523 64.285 20.9113 64.3148 20.8656 64.3359C20.82 64.3569 20.7707 64.3688 20.7204 64.3708C20.6702 64.3728 20.6201 64.3648 20.5729 64.3475L20.2558 64.2308L19.8443 64.0867C19.8239 64.0792 19.8028 64.0735 19.7814 64.0696L19.6766 64.3763L18.9126 65.0446C18.9168 65.1184 18.9423 65.1894 18.9859 65.2491L19.1642 65.4863L19.4433 65.8598C19.4735 65.8999 19.4955 65.9457 19.5081 65.9944C19.5206 66.043 19.5234 66.0937 19.5164 66.1435C19.5093 66.1933 19.4925 66.2412 19.4669 66.2845C19.4414 66.3277 19.4075 66.3656 19.3673 66.3957L17.6008 67.718C17.5606 67.7482 17.5148 67.7702 17.4662 67.7828C17.4175 67.7953 17.3668 67.7981 17.317 67.7911C17.2672 67.784 17.2193 67.7672 17.1761 67.7416C17.1328 67.7161 17.095 67.6822 17.0648 67.642L16.9206 67.4494L16.6284 67.0562C16.619 67.0438 16.609 67.032 16.5982 67.0208L14.9352 67.3498C14.8776 67.3823 14.8295 67.4295 14.7959 67.4866C14.7623 67.5436 14.7444 67.6086 14.7439 67.6748V68.4113C14.7439 68.5128 14.7036 68.6101 14.6318 68.6819C14.5601 68.7536 14.4627 68.7939 14.3612 68.7939H12.1544C12.0529 68.7939 11.9556 68.7536 11.8838 68.6819C11.812 68.6101 11.7717 68.5128 11.7717 68.4113V67.6787C11.7702 67.5799 11.7297 67.4857 11.659 67.4166L10.0301 66.8623C9.93442 66.8765 9.84798 66.9272 9.78896 67.0038L9.60549 67.2423L9.3434 67.5857C9.31273 67.6254 9.27453 67.6587 9.23097 67.6837C9.18741 67.7086 9.13935 67.7247 9.08955 67.731C9.03975 67.7374 8.9892 67.7338 8.94078 67.7205C8.89236 67.7073 8.84704 67.6846 8.80741 67.6538L7.0566 66.3014C6.97642 66.2394 6.92409 66.1482 6.91107 66.0478C6.89805 65.9473 6.92541 65.8457 6.98714 65.7654L7.30297 65.3552L7.45499 65.16C7.48759 65.1169 7.51075 65.0674 7.52294 65.0148C7.53514 64.9622 7.5361 64.9076 7.52575 64.8546L6.32666 63.4852L6.31224 63.4314L5.8313 63.5625L5.5692 63.6319C5.52058 63.6448 5.46991 63.6479 5.42008 63.6412C5.37024 63.6344 5.32223 63.6179 5.27878 63.5926C5.23533 63.5673 5.1973 63.5337 5.16685 63.4936C5.13641 63.4536 5.11415 63.408 5.10136 63.3593L4.54309 61.2246C4.53024 61.1759 4.5271 61.1253 4.53385 61.0754C4.54059 61.0256 4.5571 60.9776 4.58241 60.9341C4.60773 60.8907 4.64136 60.8527 4.68138 60.8222C4.72141 60.7918 4.76704 60.7695 4.81567 60.7567L5.25337 60.6427L5.61113 60.5497C5.65393 60.5382 5.69432 60.5191 5.73039 60.4933L5.54823 59.576L5.7697 58.9207C5.74651 58.9057 5.72194 58.893 5.69632 58.8827L5.30317 58.7399L4.91002 58.597C4.86287 58.5797 4.8196 58.5532 4.78268 58.5191C4.74577 58.485 4.71593 58.4439 4.69488 58.3983C4.67383 58.3526 4.66197 58.3033 4.65998 58.2531C4.658 58.2029 4.66593 58.1528 4.68331 58.1056L5.44601 56.0364C5.46325 55.9893 5.48962 55.946 5.5236 55.9091C5.55758 55.8722 5.5985 55.8424 5.64403 55.8213C5.68956 55.8002 5.7388 55.7884 5.78892 55.7864C5.83905 55.7844 5.88907 55.7923 5.93613 55.8096L6.25458 55.9263L6.73291 56.0927L6.83775 55.7808L7.64239 55.0771C7.63148 55.0514 7.6174 55.0272 7.60045 55.005L7.35146 54.6721L7.07101 54.2973C7.04086 54.2571 7.01895 54.2113 7.00651 54.1625C6.99408 54.1138 6.99138 54.0631 6.99856 54.0133C7.00574 53.9635 7.02266 53.9157 7.04836 53.8724C7.07406 53.8292 7.10803 53.7914 7.14833 53.7614L8.91356 52.4391C8.95381 52.4089 8.99962 52.387 9.04836 52.3746C9.09709 52.3621 9.1478 52.3594 9.19758 52.3666C9.24736 52.3738 9.29524 52.3907 9.33847 52.4164C9.38171 52.4421 9.41945 52.4761 9.44955 52.5164L9.5937 52.709L9.91215 53.1349L11.7468 52.7693C11.7589 52.7321 11.7651 52.6932 11.7652 52.654V51.7367C11.7652 51.6352 11.8055 51.5378 11.8773 51.4661C11.949 51.3943 12.0463 51.354 12.1478 51.354H14.3547C14.4049 51.354 14.4547 51.3639 14.5011 51.3831C14.5476 51.4024 14.5897 51.4305 14.6253 51.4661C14.6608 51.5016 14.689 51.5438 14.7082 51.5902C14.7275 51.6366 14.7374 51.6864 14.7374 51.7367V52.654C14.7374 52.6684 14.7374 52.6828 14.7374 52.6972L16.572 53.3223C16.5841 53.3107 16.5954 53.2985 16.6061 53.2856L16.8983 52.9082L17.1604 52.5662C17.1911 52.5263 17.2294 52.4929 17.273 52.4678C17.3166 52.4427 17.3648 52.4265 17.4147 52.42C17.4646 52.4136 17.5153 52.417 17.5639 52.4302C17.6124 52.4433 17.6579 52.466 17.6977 52.4967L19.4433 53.8452C19.4831 53.8758 19.5166 53.9139 19.5416 53.9574C19.5667 54.0009 19.5829 54.049 19.5894 54.0988C19.5958 54.1486 19.5924 54.1992 19.5792 54.2476C19.5661 54.2961 19.5435 54.3415 19.5128 54.3812L19.1969 54.7901L18.9728 55.0797C18.9431 55.1188 18.9213 55.1633 18.9086 55.2108L20.1746 56.6523L20.1863 56.7099L20.6673 56.5789L20.9294 56.5094C21.0277 56.4839 21.1322 56.4984 21.2199 56.5497C21.3076 56.6011 21.3714 56.6851 21.3972 56.7833L21.9555 58.9168C21.9712 58.9655 21.977 59.0168 21.9726 59.0678C21.9681 59.1187 21.9534 59.1683 21.9295 59.2135C21.9056 59.2587 21.8728 59.2986 21.8331 59.331C21.7935 59.3633 21.7478 59.3873 21.6987 59.4017V59.4056Z" fill="white"/>
<path d="M155.098 34.6374L145.258 39.2241C136.404 35.045 139.454 27.0261 139.454 27.0261C139.454 27.0261 149.205 22.5705 149.282 21.8432C149.36 21.1159 135.488 17.8881 131.201 25.6894C128.856 29.9656 126.746 31.8081 120.98 33.4515L116.283 34.4514V34.4422C116.283 34.4422 38.157 50.4235 24.7901 53.0865C24.156 53.2091 23.5015 53.1737 22.8844 52.9833C22.2672 52.7929 21.7065 52.4534 21.2518 51.9948C20.1679 50.9189 18.8785 50.0721 17.4605 49.5049C12.4584 47.4933 6.6071 49.3686 3.69127 53.9186C2.80666 55.2937 2.22891 56.8433 1.9974 58.4618C1.7659 60.0804 1.88608 61.7298 2.34976 63.2977C2.81344 64.8656 3.60971 66.3151 4.6843 67.5474C5.7589 68.7797 7.08655 69.7658 8.57676 70.4386C13.5369 72.69 19.5101 71.0322 22.6055 66.5517C23.0874 65.8561 23.4901 65.1089 23.8059 64.3239C24.0421 63.7307 24.4203 63.2045 24.9072 62.7914C25.394 62.3783 25.9748 62.091 26.5986 61.9545L29.2693 61.3792V61.3884L122.856 42.3326C135.529 39.8755 136.336 48.1433 144.297 46.4488C152.258 44.7544 155.787 35.0856 155.098 34.6374ZM21.6987 59.4056L21.2596 59.5196L20.9019 59.614C20.8593 59.6248 20.819 59.643 20.7826 59.6677L20.9661 60.585L20.7446 61.2324C20.772 61.2515 20.8014 61.2673 20.8324 61.2796L21.2072 61.4172L21.6004 61.5587C21.6954 61.5941 21.7725 61.6657 21.815 61.7577C21.8575 61.8498 21.8618 61.9549 21.8271 62.0502L21.0644 64.1207C21.047 64.1679 21.0205 64.2112 20.9864 64.2481C20.9523 64.285 20.9113 64.3148 20.8656 64.3359C20.82 64.3569 20.7707 64.3688 20.7204 64.3708C20.6702 64.3728 20.6201 64.3648 20.5729 64.3475L20.2558 64.2308L19.8443 64.0867C19.8239 64.0792 19.8028 64.0735 19.7814 64.0696L19.6766 64.3763L18.9126 65.0446C18.9168 65.1184 18.9423 65.1894 18.9859 65.2491L19.1642 65.4863L19.4433 65.8598C19.4735 65.8999 19.4955 65.9457 19.5081 65.9944C19.5206 66.043 19.5234 66.0937 19.5164 66.1435C19.5093 66.1933 19.4925 66.2412 19.4669 66.2845C19.4414 66.3277 19.4075 66.3656 19.3673 66.3957L17.6008 67.718C17.5606 67.7482 17.5148 67.7702 17.4662 67.7828C17.4175 67.7953 17.3668 67.7981 17.317 67.7911C17.2672 67.784 17.2193 67.7672 17.1761 67.7416C17.1328 67.7161 17.095 67.6822 17.0648 67.642L16.9206 67.4494L16.6284 67.0562C16.619 67.0438 16.609 67.032 16.5982 67.0208L14.9352 67.3498C14.8776 67.3823 14.8295 67.4295 14.7959 67.4866C14.7623 67.5436 14.7444 67.6086 14.7439 67.6748V68.4113C14.7439 68.5128 14.7036 68.6101 14.6318 68.6819C14.5601 68.7536 14.4627 68.7939 14.3612 68.7939H12.1544C12.0529 68.7939 11.9556 68.7536 11.8838 68.6819C11.812 68.6101 11.7717 68.5128 11.7717 68.4113V67.6787C11.7702 67.5799 11.7297 67.4857 11.659 67.4166L10.0301 66.8623C9.93442 66.8765 9.84798 66.9272 9.78896 67.0038L9.60549 67.2423L9.3434 67.5857C9.31273 67.6254 9.27453 67.6587 9.23097 67.6837C9.18741 67.7086 9.13935 67.7247 9.08955 67.731C9.03975 67.7374 8.9892 67.7338 8.94078 67.7205C8.89236 67.7073 8.84704 67.6846 8.80741 67.6538L7.0566 66.3014C6.97642 66.2394 6.92409 66.1482 6.91107 66.0478C6.89805 65.9473 6.92541 65.8457 6.98714 65.7654L7.30297 65.3552L7.45499 65.16C7.48759 65.1169 7.51075 65.0674 7.52294 65.0148C7.53514 64.9622 7.5361 64.9076 7.52575 64.8546L6.32666 63.4852L6.31224 63.4314L5.8313 63.5625L5.5692 63.6319C5.52058 63.6448 5.46991 63.6479 5.42008 63.6412C5.37024 63.6344 5.32223 63.6179 5.27878 63.5926C5.23533 63.5673 5.1973 63.5337 5.16685 63.4936C5.13641 63.4536 5.11415 63.408 5.10136 63.3593L4.54309 61.2246C4.53024 61.1759 4.5271 61.1253 4.53385 61.0754C4.54059 61.0256 4.5571 60.9776 4.58241 60.9341C4.60773 60.8907 4.64136 60.8527 4.68138 60.8222C4.72141 60.7918 4.76704 60.7695 4.81567 60.7567L5.25337 60.6427L5.61113 60.5497C5.65393 60.5382 5.69432 60.5191 5.73039 60.4933L5.54823 59.576L5.7697 58.9207C5.74651 58.9057 5.72194 58.893 5.69632 58.8827L5.30317 58.7399L4.91002 58.597C4.86287 58.5797 4.8196 58.5532 4.78268 58.5191C4.74577 58.485 4.71593 58.4439 4.69488 58.3983C4.67383 58.3526 4.66197 58.3033 4.65998 58.2531C4.658 58.2029 4.66593 58.1528 4.68331 58.1056L5.44601 56.0364C5.46325 55.9893 5.48962 55.946 5.5236 55.9091C5.55758 55.8722 5.5985 55.8424 5.64403 55.8213C5.68956 55.8002 5.7388 55.7884 5.78892 55.7864C5.83905 55.7844 5.88907 55.7923 5.93613 55.8096L6.25458 55.9263L6.73291 56.0927L6.83775 55.7808L7.64239 55.0771C7.63148 55.0514 7.6174 55.0272 7.60045 55.005L7.35146 54.6721L7.07101 54.2973C7.04086 54.2571 7.01895 54.2113 7.00651 54.1625C6.99408 54.1138 6.99138 54.0631 6.99856 54.0133C7.00574 53.9635 7.02266 53.9157 7.04836 53.8724C7.07406 53.8292 7.10803 53.7914 7.14833 53.7614L8.91356 52.4391C8.95381 52.4089 8.99962 52.387 9.04836 52.3746C9.09709 52.3621 9.1478 52.3594 9.19758 52.3666C9.24736 52.3738 9.29524 52.3907 9.33847 52.4164C9.38171 52.4421 9.41945 52.4761 9.44955 52.5164L9.5937 52.709L9.91215 53.1349L11.7468 52.7693C11.7589 52.7321 11.7651 52.6932 11.7652 52.654V51.7367C11.7652 51.6352 11.8055 51.5378 11.8773 51.4661C11.949 51.3943 12.0463 51.354 12.1478 51.354H14.3547C14.4049 51.354 14.4547 51.3639 14.5011 51.3831C14.5476 51.4024 14.5897 51.4305 14.6253 51.4661C14.6608 51.5016 14.689 51.5438 14.7082 51.5902C14.7275 51.6366 14.7374 51.6864 14.7374 51.7367V52.654C14.7374 52.6684 14.7374 52.6828 14.7374 52.6972L16.572 53.3223C16.5841 53.3107 16.5954 53.2985 16.6061 53.2856L16.8983 52.9082L17.1604 52.5662C17.1911 52.5263 17.2294 52.4929 17.273 52.4678C17.3166 52.4427 17.3648 52.4265 17.4147 52.42C17.4646 52.4136 17.5153 52.417 17.5639 52.4302C17.6124 52.4433 17.6579 52.466 17.6977 52.4967L19.4433 53.8452C19.4831 53.8758 19.5166 53.9139 19.5416 53.9574C19.5667 54.0009 19.5829 54.049 19.5894 54.0988C19.5958 54.1486 19.5924 54.1992 19.5792 54.2476C19.5661 54.2961 19.5435 54.3415 19.5128 54.3812L19.1969 54.7901L18.9728 55.0797C18.9431 55.1188 18.9213 55.1633 18.9086 55.2108L20.1746 56.6523L20.1863 56.7099L20.6673 56.5789L20.9294 56.5094C21.0277 56.4839 21.1322 56.4984 21.2199 56.5497C21.3076 56.6011 21.3714 56.6851 21.3972 56.7833L21.9555 58.9168C21.9712 58.9655 21.977 59.0168 21.9726 59.0678C21.9681 59.1187 21.9534 59.1683 21.9295 59.2135C21.9056 59.2587 21.8728 59.2986 21.8331 59.331C21.7935 59.3633 21.7478 59.3873 21.6987 59.4017V59.4056Z" fill="#FAF33E"/>
<path d="M57.9024 68.1923L58.6244 68.7361L58.6821 72.4264L62.2073 71.4396L62.9228 71.9796L60.0227 75.8232L59.1958 75.1994L60.9886 72.8222C61.0187 72.7829 61.0619 72.7318 61.1196 72.6676C61.1773 72.6034 61.2507 72.5273 61.3306 72.4356C61.2271 72.4893 61.1301 72.5378 61.041 72.5798C60.9643 72.6156 60.885 72.6454 60.8038 72.6689L57.9089 73.501L57.7294 73.37L57.7399 70.3559C57.7399 70.2628 57.7399 70.1685 57.7543 70.0741C57.7631 69.9771 57.7806 69.881 57.8067 69.7871C57.7019 69.9575 57.6062 70.099 57.5197 70.213L55.7283 72.5902L55.0049 72.0451L57.9024 68.1923Z" fill="black"/>
<path d="M67.0305 73.8696L68.037 74.2628L68.8495 79.7524L67.6779 79.2924L67.5246 78.0999L64.6834 76.986L63.7779 77.7618L62.7295 77.3529L67.0305 73.8696ZM67.4066 77.1249L67.1576 74.9219L65.4435 76.3543L67.4066 77.1249Z" fill="black"/>
<path d="M73.4087 76.6189L73.051 79.6487L76.052 80.0039L76.1739 78.9752L77.259 79.3382L77.1921 79.903C77.1725 80.0909 77.1285 80.2755 77.0611 80.4521C77.0146 80.5815 76.9306 80.6942 76.8199 80.7758C76.7049 80.8527 76.5715 80.8979 76.4333 80.9068C76.2446 80.9218 76.0548 80.9165 75.8672 80.8911L73.0156 80.5556C72.8271 80.5372 72.6412 80.4981 72.4613 80.439C72.3291 80.3968 72.21 80.3214 72.1153 80.2201C72.028 80.1144 71.9733 79.9855 71.958 79.8493C71.9333 79.6622 71.9333 79.4728 71.958 79.2857L72.2555 76.7657C72.2744 76.5776 72.3185 76.3929 72.3866 76.2166C72.4331 76.0875 72.5164 75.975 72.6264 75.8929C72.7437 75.8156 72.8793 75.7704 73.0195 75.7618C73.2083 75.7469 73.398 75.7522 73.5857 75.7776L76.4399 76.1157C76.6284 76.1341 76.8143 76.1732 76.9942 76.2323C77.1265 76.2742 77.2457 76.3496 77.3402 76.4512C77.4277 76.5573 77.4824 76.6866 77.4975 76.8233C77.5222 77.0099 77.5222 77.199 77.4975 77.3855L77.4437 77.8403L76.3115 77.8848L76.4189 76.9767L73.4087 76.6189Z" fill="black"/>
<path d="M80.293 76.2295L81.4003 76.0579L81.686 77.9017L85.1431 77.3644L84.8574 75.5206L85.9726 75.3476L86.7117 80.1047L85.5965 80.279L85.2794 78.232L81.821 78.764L82.1381 80.811L81.0321 80.9919L80.293 76.2295Z" fill="black"/>
<path d="M88.6602 74.4003L89.7085 74.0071L91.4043 78.5139L90.3559 78.907L88.6602 74.4003Z" fill="black"/>
<path d="M92.3594 72.9441L93.0041 72.5313L97.3916 73.1001C97.5201 73.1158 97.6446 73.1342 97.7651 73.1551C97.887 73.1787 98.0102 73.2075 98.1373 73.2442C98.0194 73.083 97.9198 72.9468 97.8359 72.834C97.752 72.7213 97.6917 72.6322 97.6511 72.572L96.2908 70.4411L97.14 69.8986L99.7309 73.9611L99.0861 74.3726L94.4994 73.7658C94.409 73.7514 94.3186 73.7344 94.2373 73.7173C94.1561 73.7003 94.0551 73.678 93.9569 73.6518C94.0735 73.7999 94.1678 73.9257 94.2425 74.0292C94.3172 74.1327 94.3736 74.214 94.4077 74.2716L95.8086 76.4667L94.9594 77.0079L92.3594 72.9441Z" fill="black"/>
<path d="M99.2422 68.0245L102.563 64.3853L103.17 64.9383L100.604 67.7559L101.39 68.4793L102.896 66.8385L103.503 67.3916L102.003 69.0271L102.885 69.8317L105.483 66.9853L106.151 67.5947L102.8 71.2641L99.2422 68.0245Z" fill="black"/>
<path d="M105.204 61.8352L106.121 62.3214L107.527 59.6663C107.614 59.4961 107.719 59.3354 107.839 59.1867C107.926 59.0775 108.041 58.9926 108.171 58.9403C108.301 58.8968 108.441 58.8922 108.574 58.9272C108.757 58.9737 108.933 59.0437 109.098 59.1356L109.684 59.4462C109.853 59.5309 110.009 59.6371 110.151 59.762C110.254 59.8524 110.328 59.9707 110.366 60.1027C110.395 60.2396 110.389 60.3818 110.347 60.5155C110.292 60.6975 110.218 60.8731 110.126 61.0397L108.733 63.6699C108.646 63.8399 108.541 64.0002 108.421 64.1482C108.334 64.2578 108.219 64.3427 108.089 64.3946C107.959 64.4386 107.819 64.4436 107.686 64.409C107.503 64.3625 107.326 64.2925 107.161 64.2006L107.046 64.139L107.328 63.1693L107.831 63.4314L109.426 60.4172L108.452 59.9009L107.046 62.556C106.96 62.7276 106.855 62.8893 106.734 63.0382C106.647 63.1466 106.533 63.2305 106.404 63.282C106.274 63.3249 106.134 63.3294 106.002 63.2951C105.819 63.2486 105.642 63.1786 105.477 63.0867L105.007 62.8377C104.838 62.7533 104.681 62.6471 104.54 62.5219C104.437 62.4317 104.362 62.3132 104.326 62.1812C104.296 62.0458 104.301 61.905 104.341 61.7723C104.395 61.5903 104.469 61.4146 104.56 61.2481L105.84 58.8316C105.924 58.6689 106.023 58.5149 106.137 58.3716C106.222 58.2623 106.333 58.1759 106.46 58.12C106.583 58.0722 106.718 58.0612 106.847 58.0885C107.017 58.1244 107.18 58.1858 107.332 58.2707L107.422 58.3192L107.16 59.302L106.673 59.0399L105.204 61.8352Z" fill="black"/>
<path d="M78.5329 14.431C91.0624 14.431 101.909 21.7697 107.006 32.3689C107.695 32.1566 108.391 31.9627 109.086 31.7635C103.713 20.2705 92.0361 12.2897 78.5329 12.2897C61.1886 12.2897 46.8637 25.4561 45.0225 42.3181C45.7288 42.4269 46.4339 42.5448 47.1376 42.6667C48.8098 26.8203 62.2514 14.431 78.5329 14.431Z" fill="black"/>
<path d="M132.704 36.3278C133.389 35.5508 133.763 34.5476 133.752 33.5115V33.1341C133.712 29.4268 132.198 27.4296 130.936 26.4061C129.72 25.4219 127.57 24.3892 124.232 25.0615C122.031 25.5045 120.292 26.5712 119.121 28.1163C119.067 28.0678 119.013 28.0193 118.957 27.9734C118.476 27.5747 117.911 27.2885 117.305 27.1359C116.699 26.9834 116.067 26.9682 115.454 27.0915L112.25 27.7362C111.227 27.9427 110.319 28.5236 109.702 29.3652C108.442 28.841 106.768 28.5789 104.619 29.01C102.364 29.4634 100.58 30.521 99.3482 32.0726C98.0272 31.2981 96.072 30.7307 93.3724 31.2745C92.0406 31.523 90.7782 32.0563 89.6716 32.8379C88.9853 32.6116 88.2522 32.5665 87.5434 32.7069L79.5193 34.3214C78.8571 34.4554 78.2374 34.7481 77.7134 35.1745C77.0636 34.9847 76.3774 34.955 75.7136 35.088L72.5095 35.7328C71.6843 35.8987 70.9284 36.3098 70.3406 36.9122C69.5662 36.5856 68.7113 36.4997 67.8874 36.6659L62.9691 37.6553C62.3386 37.7825 61.7458 38.0529 61.2366 38.4458C60.7274 38.8387 60.3153 39.3435 60.0323 39.9211C58.7389 39.1676 56.8203 38.6303 54.126 39.1728C51.623 39.6761 50.0111 40.8201 48.9692 42.1725C47.6483 41.4124 45.7127 40.862 43.0445 41.4033C40.6136 41.8934 38.7317 43.082 37.4972 44.8367C37.3711 44.6998 37.2363 44.5711 37.0936 44.4515C36.6122 44.0529 36.0479 43.767 35.4418 43.6147C34.8357 43.4623 34.2033 43.4473 33.5907 43.5708L30.3865 44.2195C29.4437 44.4088 28.5946 44.9163 27.9814 45.6571C27.3683 46.3979 27.0283 47.327 27.0186 48.2886L26.843 65.912C26.8367 66.5367 26.97 67.155 27.2333 67.7216C27.4965 68.2882 27.8831 68.7888 28.3646 69.1868C28.8462 69.5849 29.4106 69.8703 30.0167 70.0222C30.6227 70.1741 31.255 70.1887 31.8674 70.0649L38.8352 68.6614C39.6453 68.4989 40.3888 68.0993 40.9713 67.5134C41.7143 67.7317 42.4851 67.8403 43.2594 67.8358C43.948 67.8337 44.6345 67.763 45.309 67.6248C47.892 67.1006 49.5668 65.9985 50.6545 64.6958C51.7765 65.317 53.0416 65.6333 54.3239 65.6132C55.0126 65.6099 55.6992 65.5375 56.3735 65.3969C57.946 65.0811 59.1543 64.5189 60.0913 63.8493C60.7668 64.0656 61.4864 64.1053 62.1815 63.9646L65.5469 63.2831C66.0463 63.1828 66.5232 62.9923 66.9543 62.7209C67.4562 62.8046 67.9692 62.7957 68.4679 62.6947L71.6799 62.0487C72.0706 61.9715 72.4484 61.8392 72.8017 61.6555C72.9197 61.666 73.0402 61.6712 73.1595 61.6712C73.4376 61.671 73.715 61.6434 73.9877 61.5887L80.9556 60.1865C81.3683 60.1019 81.7659 59.9557 82.135 59.7527C82.5543 59.7996 82.9785 59.7802 83.3917 59.695L86.5788 59.0529C87.2399 58.9195 87.859 58.6287 88.3838 58.205C88.9085 57.7814 89.3233 57.2374 89.593 56.6193C90.5404 57.2104 91.8496 57.7083 93.5834 57.7083C94.2725 57.7051 94.9595 57.6331 95.6343 57.4934C98.2736 56.9692 99.9589 55.8186 101.051 54.4793C102.204 55.1291 103.509 55.4598 104.833 55.4373C105.522 55.4339 106.209 55.3619 106.883 55.2223C108.765 54.8436 110.16 54.153 111.208 53.3025C112 53.6547 112.881 53.7518 113.731 53.5803L120.699 52.1781C121.469 52.0223 122.18 51.6531 122.751 51.1127C123.452 51.3025 124.175 51.3968 124.901 51.3931C125.601 51.39 126.299 51.3171 126.984 51.1756C131.637 50.2386 134.22 47.0397 134.257 42.1647C134.273 39.6918 133.738 37.8846 132.704 36.3278Z" fill="black"/>
<path d="M29.1981 46.8381L32.4022 46.1934L32.2358 60.8839L36.2367 60.078L35.9903 63.0593L29.0225 64.4615L29.1981 46.8381Z" fill="#FAF33E"/>
<path d="M46.5441 48.3203L46.4602 56.4558C46.4327 59.6966 45.5848 61.3898 42.458 62.0188C39.3771 62.6387 37.9028 61.0464 37.9251 57.7833L37.9893 49.1957C38.0129 45.9863 39.4151 44.516 41.8486 44.0258C44.8405 43.4243 46.5913 44.8986 46.5441 48.3203ZM41.2275 48.5051L41.1515 57.782C41.1397 58.7164 41.3559 59.5223 42.2628 59.3402C43.0399 59.1829 43.2089 58.4726 43.226 57.4321L43.3007 48.1473C43.3007 47.133 43.0176 46.5262 42.1501 46.7058C41.5289 46.8263 41.2314 47.3728 41.2327 48.5051H41.2275Z" fill="#FAF33E"/>
<path d="M57.3931 53.1625L57.3774 53.9357C57.2896 56.4623 57.2254 59.0466 53.5311 59.791C50.5393 60.3925 49.0951 58.9654 49.1397 55.5398L49.2288 47.5576C49.2733 44.1909 50.0478 42.3759 52.9375 41.7914C56.9056 40.9934 57.4534 43.7912 57.3748 45.8789L57.3669 46.5629L54.1719 47.2064L54.1864 45.9378C54.2034 44.8121 53.9714 44.3102 53.2769 44.4504C52.6413 44.5815 52.4906 45.1057 52.4788 46.3677L52.3897 55.4467C52.3897 56.5999 52.5207 57.2735 53.2651 57.1228C53.9347 56.9918 54.0999 56.4165 54.1274 55.0863L54.1497 53.8125L57.3931 53.1625Z" fill="#FAF33E"/>
<path d="M63.138 53.2973L62.7042 57.6796L59.3389 58.3571L61.7803 40.2724L66.6986 39.2817L68.8359 56.4451L65.624 57.0912L65.1679 52.8884L63.138 53.2973ZM64.9163 50.0277C64.7158 47.9885 64.3357 44.3716 64.1601 42.7571L64.0291 42.782C63.9609 44.1252 63.6608 48.003 63.4407 50.3251L64.9163 50.0277Z" fill="#FAF33E"/>
<path d="M71.3182 38.3564L74.5223 37.7117L74.3559 52.4022L78.3581 51.5976L78.1104 54.5776L71.1426 55.9798L71.3182 38.3564Z" fill="#FAF33E"/>
<path d="M80.6971 39.3801L78.291 39.8637L78.3303 36.9452L86.3531 35.3294L86.3151 38.2479L83.8842 38.738L83.7374 53.4442L80.5516 54.0864L80.6971 39.3801Z" fill="#FAF33E"/>
<path d="M96.8791 38.1875L96.7939 46.323C96.7677 49.5625 95.9185 51.2557 92.7917 51.8847C89.7107 52.5059 88.2377 50.9123 88.26 47.6505L88.3242 39.0616C88.3478 35.8536 89.7487 34.3832 92.1836 33.8931C95.1741 33.2903 96.9197 34.7659 96.8791 38.1875ZM91.5611 38.3723L91.4851 47.6479C91.4733 48.5836 91.6895 49.3896 92.5964 49.2061C93.3735 49.0501 93.5426 48.3385 93.5596 47.2993L93.6343 38.0132C93.6343 36.9989 93.3512 36.3922 92.485 36.5717C91.8586 36.6975 91.5598 37.2401 91.5611 38.3723Z" fill="#FAF33E"/>
<path d="M108.124 35.9229L108.04 44.0584C108.013 47.2979 107.165 48.9911 104.038 49.6214C100.957 50.2413 99.4841 48.649 99.5051 45.3859L99.5706 36.797C99.5929 33.589 100.995 32.1186 103.43 31.6285C106.421 31.0256 108.166 32.5039 108.124 35.9229ZM102.808 36.1077L102.732 45.3833C102.72 46.319 102.936 47.125 103.843 46.9415C104.62 46.7855 104.789 46.0739 104.806 45.0347L104.881 35.7486C104.881 34.7356 104.598 34.1289 103.73 34.3071C103.104 34.429 102.806 34.9754 102.808 36.1077Z" fill="#FAF33E"/>
<path d="M111.061 30.3549L114.265 29.7101L114.099 44.4007L118.097 43.596L117.85 46.5761L110.89 47.9783L111.061 30.3549Z" fill="#FAF33E"/>
<path d="M122.816 40.5178V41.3525C122.847 42.5542 123.115 43.14 123.905 42.9815C124.588 42.8439 124.822 42.2489 124.822 41.0603C124.813 39.6188 124.412 38.8207 122.636 37.4643C120.526 35.8485 119.622 34.8787 119.6 32.2001C119.579 29.5962 120.701 28.1507 123.04 27.6789C126.739 26.9346 127.515 29.4507 127.539 31.6877V32.0586L124.478 32.6745V32.0193C124.457 30.8687 124.284 30.0968 123.506 30.254C122.982 30.3589 122.702 30.7428 122.72 31.6471C122.746 32.8763 123.05 33.3782 124.479 34.5052C127.268 36.6911 128.047 37.923 128.032 40.6423C128.009 43.5083 126.861 45.0167 124.122 45.5684C120.959 46.2053 119.6 44.5645 119.623 41.5635L119.63 41.1507L122.816 40.5178Z" fill="#FAF33E"/>
</svg>
