<svg width="34" height="32" viewBox="0 0 34 32" fill="none" xmlns="http://www.w3.org/2000/svg">
<path fill-rule="evenodd" clip-rule="evenodd" d="M5.6 0H28C31.0928 0 33.6 2.50721 33.6 5.6V16.8C33.6 19.8928 31.0928 22.4 28 22.4H5.6C2.50721 22.4 0 19.8928 0 16.8V5.6C0 2.50721 2.50721 0 5.6 0ZM33.6 21.6V20.8C33.6 20.8 32.3911 23.7287 28 24H5.6C1.11491 23.6688 0 20.8 0 20.8V21.6C0 24.6928 2.50721 27.2 5.6 27.2H28C31.0928 27.2 33.6 24.6928 33.6 21.6ZM33.6 26.4V25.6C33.6 25.6 32.3911 28.5287 28 28.8H5.6C1.11491 28.4688 0 25.6 0 25.6V26.4C0 29.4928 2.50721 32 5.6 32H28C31.0928 32 33.6 29.4928 33.6 26.4ZM20 6.4H17.6V5.6C17.6 5.15817 17.2418 4.8 16.8 4.8C16.3582 4.8 16 5.15817 16 5.6V6.4H15.2223C13.8968 6.4 12.8223 7.47452 12.8223 8.8V9.60121C12.8223 10.9267 13.8968 12.0012 15.2223 12.0012H18.4C18.8418 12.0012 19.2 12.3594 19.2 12.8012V13.6C19.2 14.0418 18.8418 14.4 18.4 14.4H14.4196C14.3867 13.9997 14.0576 13.6795 13.6466 13.667C13.205 13.6535 12.8361 14.0007 12.8227 14.4423L12.8004 15.1757C12.7867 15.6268 13.1487 16 13.6 16H16V16.786C16 17.2278 16.3582 17.586 16.8 17.586C17.2418 17.586 17.6 17.2278 17.6 16.786V16H18.4C19.7255 16 20.8 14.9255 20.8 13.6V12.8012C20.8 11.4757 19.7255 10.4012 18.4 10.4012H15.2223C14.7805 10.4012 14.4223 10.043 14.4223 9.60121V8.8C14.4223 8.35817 14.7805 8 15.2223 8H19.2238C19.3106 8.34792 19.6252 8.60566 20 8.60566C20.4418 8.60566 20.8 8.24749 20.8 7.80566V7.2C20.8 6.75817 20.4418 6.4 20 6.4Z" fill="#00005B"/>
</svg>
