<svg width="32" height="26" viewBox="0 0 32 26" fill="none" xmlns="http://www.w3.org/2000/svg">
<path d="M32 24.7228C31.827 24.9967 31.5744 25.0749 31.2591 25.0742C21.0824 25.0702 10.9056 25.0689 0.728852 25.0702C0.168351 25.0702 0 24.9005 0 24.3441C0 23.0422 0 21.7402 0 20.4379C0 19.9075 0.178372 19.7318 0.717495 19.7311C2.83257 19.7311 4.94809 19.7311 7.06405 19.7311H7.44885V17.0709C7.01662 17.0709 6.59307 17.0522 6.17152 17.0762C6.00076 17.0932 5.82848 17.0672 5.67028 17.0007C5.51209 16.9342 5.37301 16.8293 5.26564 16.6954C5.04515 16.4455 4.80979 16.209 4.56083 15.9873C4.45736 15.8999 4.37619 15.7891 4.32403 15.6641C4.27187 15.5391 4.25022 15.4035 4.26088 15.2685C4.27557 15.0013 4.26088 14.728 4.26088 14.4314H2.13779V16.5171H1.08225V11.2114H4.26155C4.26155 10.8867 4.22881 10.5847 4.2729 10.2948C4.30421 10.0657 4.39444 9.84859 4.53478 9.6648C4.80989 9.33802 5.11203 9.03499 5.438 8.75891C5.58657 8.63623 5.76908 8.56187 5.96109 8.5458C6.44676 8.51641 6.93578 8.53578 7.44418 8.53578V5.8709H6.42004V4.8147H11.7204V5.85954H10.6889V10.6395H12.8053C12.8053 10.3476 12.7806 10.0469 12.8134 9.75299C12.8306 9.53931 12.8993 9.33299 13.0138 9.15173C13.458 8.52242 13.9404 7.91983 14.39 7.29453C14.4693 7.17301 14.5794 7.07467 14.7091 7.00954C14.8387 6.94441 14.9833 6.91481 15.1282 6.92376C16.1804 6.93445 17.2326 6.92777 18.2848 6.92777H18.6489V5.87891C18.546 5.87357 18.4371 5.86288 18.3275 5.86221C17.765 5.86221 17.2025 5.86221 16.64 5.86221C16.1951 5.86221 16.0053 5.67449 16.0027 5.24159C15.998 4.58555 16.0027 3.92952 16.0027 3.27282C15.9939 3.15277 16.0228 3.03298 16.0855 2.93021C16.1481 2.82743 16.2413 2.74681 16.3521 2.69962C16.6701 2.54463 16.98 2.37228 17.3034 2.23198C17.4477 2.17623 17.6009 2.14703 17.7557 2.1458C18.0449 2.13244 18.3349 2.1418 18.6756 2.1418V0.782965C18.6729 0.136952 18.8112 0 19.4659 0H22.0286C22.8302 0 22.9351 0.106889 22.9365 0.893194C22.9365 1.27866 22.9398 1.66347 22.9431 2.04894C22.9431 2.06697 22.9585 2.08568 22.9752 2.12309C23.0635 2.13777 23.1531 2.14248 23.2424 2.13712C24.0187 2.01219 24.6667 2.3509 25.29 2.73169C25.3712 2.78919 25.4395 2.86296 25.4905 2.94831C25.5416 3.03365 25.5743 3.1287 25.5866 3.22739C25.6214 3.91349 25.6107 4.60225 25.598 5.28902C25.5906 5.67315 25.3916 5.85754 25.0041 5.86088C24.3287 5.86823 23.6533 5.86088 22.9565 5.86088V6.92977H28.0197C28.641 6.92977 28.8027 7.08944 28.8033 7.70071C28.8033 8.14564 28.8033 8.59056 28.8033 9.06889C29.3044 9.06889 29.7714 9.06889 30.2377 9.06889C30.7581 9.0729 30.9331 9.24727 30.9331 9.76301C30.9331 11.7841 30.9331 13.805 30.9331 15.8256C30.9331 16.3601 30.7547 16.5318 30.217 16.5324C29.76 16.5324 29.303 16.5324 28.8027 16.5324C28.8027 17.0054 28.8027 17.459 28.8027 17.9127C28.8027 18.4965 28.6403 18.6615 28.0678 18.6615C27.3588 18.6615 26.6504 18.6615 25.9427 18.6615H25.6214V19.7304H25.9875C27.7378 19.7304 29.4874 19.7365 31.2377 19.7251C31.5718 19.7251 31.827 19.8046 31.998 20.0972L32 24.7228ZM1.08359 23.976H30.9111V20.8147H1.08359V23.976ZM27.7244 8.0167C27.6095 8.00935 27.528 7.99933 27.4458 7.99933C23.4468 7.99933 19.4476 8.00178 15.4482 8.00668C15.3011 8.01708 15.1641 8.085 15.0667 8.19574C14.6953 8.65804 14.3432 9.1357 13.9978 9.61804C13.9227 9.72619 13.8807 9.85386 13.8769 9.98547C13.8698 11.86 13.8698 13.7346 13.8769 15.6092C13.8824 15.7509 13.9288 15.8881 14.0105 16.004C14.3365 16.4616 14.6893 16.9005 15.0126 17.3595C15.1409 17.5419 15.2798 17.6047 15.501 17.604C19.4585 17.5973 23.4163 17.5955 27.3744 17.5987H27.7244V8.0167ZM9.58397 9.6C8.68142 9.6 7.79624 9.64944 6.91841 9.58397C6.27708 9.53654 5.81946 9.74096 5.45871 10.2353C5.3891 10.3204 5.3459 10.424 5.33445 10.5333C5.32643 12.0413 5.32487 13.5493 5.32977 15.0574C5.32977 15.4275 5.69253 15.5364 5.86422 15.7809C5.98914 15.9552 6.16017 16.0073 6.37729 16.0047C7.33395 15.994 8.29061 16.0007 9.24994 15.9993C9.35883 15.9993 9.46839 15.9866 9.58397 15.98V9.6ZM15.9933 18.6656C15.676 18.6656 15.3861 18.6522 15.0975 18.6689C14.7968 18.6863 14.5864 18.574 14.4094 18.3315C13.9417 17.6915 13.4547 17.0696 12.9957 16.4256C12.8906 16.2633 12.8279 16.0772 12.8134 15.8844C12.784 15.5798 12.8053 15.2698 12.8053 14.9491H10.6996V19.7077H15.9933V18.6656ZM24.5351 4.78129C24.5351 4.39182 24.5391 4.02973 24.5304 3.66764C24.5296 3.63331 24.5209 3.59964 24.505 3.56918C24.4892 3.53873 24.4666 3.51231 24.4389 3.49194C24.163 3.38706 23.8811 3.22472 23.5992 3.22004C21.7587 3.19532 19.9168 3.2167 18.0763 3.19933C17.7283 3.19933 17.4564 3.33962 17.1731 3.48526C17.1446 3.50378 17.1206 3.52846 17.1029 3.55749C17.0853 3.58651 17.0743 3.61913 17.0709 3.65294C17.0615 4.02372 17.0662 4.39516 17.0662 4.78129H24.5351ZM29.8542 15.4629V10.1612H28.8321V15.4629H29.8542ZM12.7873 11.7511H10.6956V13.8368H12.7873V11.7511ZM22.3866 18.6856H19.22V19.7077H22.3866V18.6856ZM8.55783 5.88359V8.51374H9.57996V5.88359H8.55783ZM9.58864 19.7124V17.097H8.55449V19.7144L9.58864 19.7124ZM19.7572 2.10973H21.8455V1.08827H19.7572V2.10973ZM21.8535 5.88292H19.7618V6.90572H21.8535V5.88292ZM2.13779 13.3191H4.23616V12.3016H2.13779V13.3191ZM23.4849 18.6796V19.7171H24.5177V18.6796H23.4849ZM18.1044 19.7184V18.6829H17.0849V19.7184H18.1044Z" fill="black"/>
<path d="M5.31106 21.8829V22.9144H3.2207V21.8829H5.31106Z" fill="black"/>
<path d="M7.98263 21.8849V22.9144H6.9585V21.8849H7.98263Z" fill="black"/>
<path d="M27.7578 22.9057V21.8883H28.7866V22.9057H27.7578Z" fill="black"/>
<path d="M25.5866 13.3612V14.3846H16.0167V13.3612H25.5866Z" fill="black"/>
<path d="M16.0154 16.5138V15.4883H25.5867V16.5138H16.0154Z" fill="black"/>
<path d="M16.0174 10.1398V9.09027H25.6034C25.6034 9.39825 25.6134 9.68752 25.596 9.97545C25.592 10.0329 25.4958 10.103 25.427 10.1338C25.3582 10.1645 25.2834 10.1398 25.2105 10.1398H16.0174Z" fill="black"/>
<path d="M25.5867 11.2321V12.2549H16.0174V11.2321H25.5867Z" fill="black"/>
<path d="M8.51571 10.6889V11.7164H7.49091V10.6889H8.51571Z" fill="black"/>
</svg>
