<svg width="32" height="30" viewBox="0 0 32 30" fill="none" xmlns="http://www.w3.org/2000/svg">
<mask id="path-1-outside-1_8_1153" maskUnits="userSpaceOnUse" x="0" y="0" width="32" height="30" fill="black">
<rect fill="white" width="32" height="30"/>
<path d="M29.85 10.9153C28.7424 10.9153 27.6396 10.9153 26.5344 10.9153H26.1388C26.4078 9.84491 25.513 9.67482 24.9252 9.23732C25.0937 9.15821 25.2417 9.08622 25.392 9.01423C25.854 8.79192 25.979 8.46044 25.7725 7.99763C25.585 7.57438 25.3857 7.15587 25.1982 6.73183C25.1441 6.59881 25.054 6.48349 24.938 6.39881C24.822 6.31412 24.6847 6.26343 24.5415 6.25241C24.2014 6.20573 23.8643 6.13769 23.4846 6.07203C23.6428 5.87504 23.7765 5.7089 23.9071 5.53881C24.1998 5.15986 24.1737 4.81968 23.8224 4.49373C23.4973 4.19152 23.1563 3.90513 22.8406 3.59343C22.7298 3.47337 22.5863 3.38824 22.4278 3.34848C22.2693 3.30871 22.1026 3.31603 21.9482 3.36954C21.669 3.44865 21.3842 3.5072 21.0574 3.58552C21.1255 3.39723 21.1745 3.25958 21.2243 3.12271C21.4134 2.59661 21.2671 2.277 20.7386 2.07842C20.3327 1.92336 19.9214 1.78729 19.5187 1.62906C19.3841 1.56665 19.2345 1.54363 19.0874 1.56267C18.9402 1.58171 18.8015 1.64203 18.6872 1.73666C18.4135 1.94472 18.1279 2.13222 17.8114 2.36007C17.779 2.0982 17.7584 1.87431 17.7228 1.6528C17.6492 1.19474 17.3937 0.984297 16.9317 1.00091C16.4784 1.01673 16.0251 1.04759 15.5718 1.06104C15.4181 1.05841 15.2668 1.09937 15.1355 1.17918C15.0042 1.25899 14.8981 1.37438 14.8297 1.51198C14.6849 1.77305 14.518 2.02225 14.3368 2.31497C14.2347 2.10374 14.1635 1.94552 14.0852 1.78729C13.8811 1.38302 13.5441 1.25882 13.124 1.4384C12.8708 1.54995 12.6296 1.68128 12.3701 1.7778C12.2068 1.83383 12.0604 1.93035 11.9446 2.05833C11.8288 2.18631 11.7474 2.34157 11.7079 2.50959C11.5853 2.93996 11.4223 3.35926 11.2815 3.77539C11.2372 3.77539 11.2245 3.77935 11.219 3.77539C11.0077 3.61716 10.8005 3.44628 10.5861 3.28885C10.2522 3.0436 9.91995 3.06733 9.63039 3.364C9.41679 3.58315 9.22534 3.82365 9.00699 4.03804C8.75304 4.28329 8.67392 4.56968 8.71506 4.92015C8.76569 5.33865 8.78468 5.76112 8.82028 6.22313C8.56396 6.12899 8.34561 6.04197 8.1233 5.96918C7.70717 5.83153 7.37964 5.98184 7.2143 6.38611C7.11699 6.62344 7.04895 6.87265 6.93819 7.10287C6.75149 7.49289 6.77443 7.85127 6.98962 8.22706C7.2048 8.60284 7.37252 8.99049 7.57505 9.40267C7.26572 9.44064 7.00227 9.46992 6.73883 9.50473C6.31004 9.56248 6.09485 9.8101 6.09327 10.2413C6.09327 10.4549 6.09327 10.6693 6.09327 10.9145H5.75704C4.71117 10.9145 3.66372 10.9414 2.61864 10.9066C1.81644 10.8797 1.2674 11.17 1 11.9414V21.4753C1.35838 22.4626 2.16216 22.5662 3.06879 22.4642C2.95487 23.1232 2.84886 23.7347 2.74364 24.3462C2.51342 25.6912 2.26897 27.0258 2.06011 28.3699C1.94935 29.0819 2.44381 29.6231 3.16294 29.6357C3.40977 29.642 3.6566 29.6357 3.90264 29.6357C4.59409 29.6357 4.94139 29.3849 5.15262 28.7338C5.45088 27.8161 5.75309 26.8992 6.03868 25.9768C6.10197 25.7711 6.19691 25.7038 6.40972 25.7038C12.9144 25.7101 19.4185 25.7101 25.9221 25.7038C26.1277 25.7038 26.2164 25.7687 26.2757 25.9601C26.5692 26.9008 26.873 27.8375 27.1776 28.7742C27.3722 29.3746 27.7401 29.6349 28.373 29.6397C28.6396 29.6397 28.9062 29.646 29.172 29.6397C29.8753 29.6215 30.3468 29.0859 30.2677 28.3865C30.2384 28.1231 30.1846 27.8612 30.1395 27.5954C30.0604 27.1271 29.9813 26.6571 29.8983 26.1896C29.7883 25.5147 29.3832 23.2252 29.3358 22.946C29.24 22.385 29.1451 21.8241 29.043 21.2229H29.8421C30.8104 21.2189 31.3231 20.7063 31.3231 19.7411C31.3231 17.2934 31.3231 14.8459 31.3231 12.3987C31.3199 11.4232 30.8207 10.9177 29.85 10.9153ZM7.01256 10.3671C7.27759 10.3378 7.54894 10.3053 7.82109 10.2792C8.49196 10.2136 8.74433 9.76421 8.44766 9.15663C8.26175 8.7761 8.09007 8.38686 7.87726 8.02136C7.71903 7.74763 7.69372 7.50001 7.84482 7.22391C7.8977 7.10916 7.94289 6.99102 7.98011 6.87028C8.25542 6.96917 8.51095 7.0641 8.77123 7.15271C9.31948 7.341 9.75065 7.02138 9.72058 6.44069C9.69843 5.99687 9.68656 5.55068 9.62407 5.11239C9.58214 4.8173 9.64384 4.59816 9.86615 4.40829C9.97579 4.30664 10.0796 4.19888 10.1771 4.08551L10.7973 4.59183C11.3574 5.04515 11.84 4.90828 12.0694 4.23741C12.2031 3.8458 12.3582 3.45973 12.465 3.06021C12.5441 2.75088 12.7023 2.55864 13.0038 2.46845C13.1224 2.42554 13.2386 2.37615 13.3519 2.32051C13.4626 2.5531 13.5718 2.77066 13.6683 2.99297C13.7862 3.26037 13.9784 3.42413 14.2743 3.44074C14.5702 3.45736 14.7783 3.30863 14.927 3.06021C15.1145 2.74376 15.302 2.43364 15.5029 2.12985C15.5559 2.05073 15.6556 1.95422 15.7403 1.95026C16.1026 1.93048 16.4673 1.94156 16.8684 1.94156C16.8921 2.15912 16.9198 2.4107 16.9475 2.66228C17.0266 3.39011 17.5591 3.63061 18.1579 3.20973L18.3992 3.03806C19.3043 2.39092 19.3043 2.39092 20.362 2.90436C20.2734 3.14565 20.1832 3.37429 20.1057 3.60688C19.9095 4.19231 20.3051 4.65275 20.9126 4.53408C21.2892 4.4605 21.6587 4.35054 22.0345 4.27143C22.1255 4.24959 22.2216 4.26436 22.3019 4.31256C22.5867 4.5499 22.8556 4.81097 23.146 5.07521C22.9537 5.31255 22.7726 5.53565 22.6001 5.76112C22.2275 6.24924 22.4506 6.80224 23.0598 6.90588C23.4292 6.96837 23.8018 7.01347 24.1673 7.09733C24.3019 7.13242 24.4181 7.21724 24.4925 7.33467C24.6507 7.6171 24.7694 7.92168 24.9197 8.25079C24.6824 8.36155 24.4593 8.46914 24.2322 8.57436C23.9806 8.69066 23.8184 8.86945 23.7971 9.15742C23.7757 9.44539 23.9094 9.6677 24.1586 9.8188C24.445 9.99206 24.7227 10.1835 25.0186 10.3394C25.2559 10.4644 25.3445 10.6289 25.2678 10.8995H21.0448C20.8755 8.01503 18.5037 6.11475 15.9918 6.20336C13.6564 6.28247 11.4698 8.08386 11.2831 10.9026C11.1842 10.9074 11.0805 10.9177 10.9769 10.9177H7.4548C6.96034 10.9145 6.96034 10.9145 7.01256 10.3671ZM16.1105 8.79588C15.5832 8.80653 15.0761 9.00032 14.6761 9.34402C14.2761 9.68772 14.0082 10.1599 13.9183 10.6795C13.9064 10.746 13.8954 10.8125 13.8811 10.8963H12.1818C12.2807 9.57513 12.8297 8.51424 13.9223 7.78877C15.3028 6.87186 16.7529 6.8323 18.1943 7.6527C19.3652 8.31883 20.2157 9.79744 20.1017 10.9129C19.5946 10.9129 19.0836 10.92 18.5733 10.9034C18.5155 10.9034 18.4285 10.7713 18.4151 10.6898C18.1896 9.54903 17.2576 8.77926 16.1105 8.79588ZM17.5076 10.8971H14.8178C14.8597 10.1914 15.4729 9.66928 16.2141 9.68431C16.8921 9.69855 17.4863 10.246 17.5037 10.8971H17.5076ZM6.14628 22.779C5.53948 24.6603 4.92636 26.5392 4.32668 28.4229C4.24757 28.6769 4.12178 28.7781 3.8615 28.7552C3.66609 28.7386 3.46594 28.7552 3.27132 28.7512C2.96199 28.7465 2.90108 28.6856 2.95487 28.377C3.08857 27.5614 3.23177 26.7473 3.37259 25.9332C3.57037 24.7901 3.76815 23.6469 3.9691 22.4934H6.22143C6.19216 22.5939 6.17555 22.6896 6.14628 22.779ZM2.50314 21.5915C2.00869 21.5915 1.89002 21.4737 1.89002 20.9848C1.89002 19.4563 1.89002 17.9271 1.89002 16.3495H2.54111C2.8631 16.3495 6.43266 16.3495 8.20637 16.3495H11.4539C11.9879 16.3495 12.041 16.4041 12.041 16.9476C12.041 18.3189 12.041 19.6902 12.041 21.0615C12.041 21.5148 11.9618 21.59 11.503 21.59L2.50314 21.5915ZM6.42712 24.8043C6.67237 24.0488 6.9018 23.3194 7.15338 22.5979C7.17553 22.5338 7.33771 22.4855 7.43502 22.4847C8.76648 22.4776 10.0987 22.48 11.431 22.48C12.3859 22.48 12.7522 22.1881 12.9563 21.2474H15.707C15.707 21.9998 15.9539 22.6445 16.5504 23.1208C16.9688 23.4605 17.4987 23.6322 18.0369 23.6026C19.2236 23.5527 19.9767 22.7221 20.1587 21.2411C20.2481 21.2355 20.343 21.2245 20.4372 21.2245C21.7821 21.2245 23.1215 21.2292 24.4632 21.2189C24.68 21.2189 24.7662 21.2878 24.8295 21.4919C25.146 22.5077 25.4806 23.5171 25.8073 24.5298C25.8334 24.6089 25.8516 24.6951 25.8809 24.8043H6.42712ZM12.946 20.3178V18.3463C13.0087 18.3295 13.0728 18.3183 13.1375 18.3131C13.7094 18.3131 14.2814 18.3052 14.8534 18.3131C15.3961 18.321 15.6928 18.613 15.7094 19.1565C15.7205 19.5378 15.7094 19.9199 15.7094 20.3178H12.946ZM16.6137 21.2427H19.2323C19.2758 21.7964 19.0741 22.2221 18.6239 22.5085C18.4186 22.6495 18.1755 22.7254 17.9264 22.7261C17.6772 22.7268 17.4337 22.6523 17.2276 22.5124C16.7727 22.2284 16.5789 21.8028 16.6168 21.2427H16.6137ZM29.047 28.7512C28.85 28.7512 28.6514 28.7378 28.4552 28.756C28.1942 28.7797 28.0692 28.6769 27.9893 28.4237C27.3659 26.4609 26.7298 24.5029 26.0969 22.5433C25.9592 22.1161 25.8216 21.6881 25.676 21.2371H28.1214C28.142 21.3305 28.1633 21.4151 28.1783 21.5006C28.3144 22.2869 28.8286 25.2647 29.0122 26.3067C29.0209 26.3636 29.0304 26.4206 29.0399 26.4775C29.1483 27.1104 29.2614 27.7433 29.3627 28.3762C29.4157 28.6856 29.3563 28.7465 29.0502 28.7512H29.047ZM30.4299 17.4002C30.4299 18.1992 30.4299 18.999 30.4299 19.7981C30.4299 20.1936 30.2899 20.3337 29.8927 20.3344C25.5405 20.3344 21.1893 20.3344 16.8391 20.3344C16.7609 20.3295 16.683 20.3205 16.6058 20.3076C16.6058 19.9745 16.6058 19.6509 16.6058 19.3273C16.6058 18.0821 15.9483 17.4239 14.707 17.4231H12.9278C12.9278 17.1786 12.9278 16.965 12.9278 16.7514C12.912 15.9603 12.4349 15.4682 11.6517 15.4643C10.2588 15.4579 8.8659 15.4579 7.47299 15.4643C5.53553 15.4643 2.62023 15.4643 2.27292 15.4643H1.88843V14.5845C1.88843 13.8535 1.88843 13.1231 1.88843 12.3931C1.88843 11.9184 2.00236 11.8037 2.48336 11.8037H29.7503C29.8781 11.795 30.0066 11.8027 30.1324 11.8267C30.3887 11.8955 30.4338 12.1012 30.4331 12.3377C30.4309 14.0255 30.4299 15.713 30.4299 17.4002Z"/>
</mask>
<path d="M29.85 10.9153C28.7424 10.9153 27.6396 10.9153 26.5344 10.9153H26.1388C26.4078 9.84491 25.513 9.67482 24.9252 9.23732C25.0937 9.15821 25.2417 9.08622 25.392 9.01423C25.854 8.79192 25.979 8.46044 25.7725 7.99763C25.585 7.57438 25.3857 7.15587 25.1982 6.73183C25.1441 6.59881 25.054 6.48349 24.938 6.39881C24.822 6.31412 24.6847 6.26343 24.5415 6.25241C24.2014 6.20573 23.8643 6.13769 23.4846 6.07203C23.6428 5.87504 23.7765 5.7089 23.9071 5.53881C24.1998 5.15986 24.1737 4.81968 23.8224 4.49373C23.4973 4.19152 23.1563 3.90513 22.8406 3.59343C22.7298 3.47337 22.5863 3.38824 22.4278 3.34848C22.2693 3.30871 22.1026 3.31603 21.9482 3.36954C21.669 3.44865 21.3842 3.5072 21.0574 3.58552C21.1255 3.39723 21.1745 3.25958 21.2243 3.12271C21.4134 2.59661 21.2671 2.277 20.7386 2.07842C20.3327 1.92336 19.9214 1.78729 19.5187 1.62906C19.3841 1.56665 19.2345 1.54363 19.0874 1.56267C18.9402 1.58171 18.8015 1.64203 18.6872 1.73666C18.4135 1.94472 18.1279 2.13222 17.8114 2.36007C17.779 2.0982 17.7584 1.87431 17.7228 1.6528C17.6492 1.19474 17.3937 0.984297 16.9317 1.00091C16.4784 1.01673 16.0251 1.04759 15.5718 1.06104C15.4181 1.05841 15.2668 1.09937 15.1355 1.17918C15.0042 1.25899 14.8981 1.37438 14.8297 1.51198C14.6849 1.77305 14.518 2.02225 14.3368 2.31497C14.2347 2.10374 14.1635 1.94552 14.0852 1.78729C13.8811 1.38302 13.5441 1.25882 13.124 1.4384C12.8708 1.54995 12.6296 1.68128 12.3701 1.7778C12.2068 1.83383 12.0604 1.93035 11.9446 2.05833C11.8288 2.18631 11.7474 2.34157 11.7079 2.50959C11.5853 2.93996 11.4223 3.35926 11.2815 3.77539C11.2372 3.77539 11.2245 3.77935 11.219 3.77539C11.0077 3.61716 10.8005 3.44628 10.5861 3.28885C10.2522 3.0436 9.91995 3.06733 9.63039 3.364C9.41679 3.58315 9.22534 3.82365 9.00699 4.03804C8.75304 4.28329 8.67392 4.56968 8.71506 4.92015C8.76569 5.33865 8.78468 5.76112 8.82028 6.22313C8.56396 6.12899 8.34561 6.04197 8.1233 5.96918C7.70717 5.83153 7.37964 5.98184 7.2143 6.38611C7.11699 6.62344 7.04895 6.87265 6.93819 7.10287C6.75149 7.49289 6.77443 7.85127 6.98962 8.22706C7.2048 8.60284 7.37252 8.99049 7.57505 9.40267C7.26572 9.44064 7.00227 9.46992 6.73883 9.50473C6.31004 9.56248 6.09485 9.8101 6.09327 10.2413C6.09327 10.4549 6.09327 10.6693 6.09327 10.9145H5.75704C4.71117 10.9145 3.66372 10.9414 2.61864 10.9066C1.81644 10.8797 1.2674 11.17 1 11.9414V21.4753C1.35838 22.4626 2.16216 22.5662 3.06879 22.4642C2.95487 23.1232 2.84886 23.7347 2.74364 24.3462C2.51342 25.6912 2.26897 27.0258 2.06011 28.3699C1.94935 29.0819 2.44381 29.6231 3.16294 29.6357C3.40977 29.642 3.6566 29.6357 3.90264 29.6357C4.59409 29.6357 4.94139 29.3849 5.15262 28.7338C5.45088 27.8161 5.75309 26.8992 6.03868 25.9768C6.10197 25.7711 6.19691 25.7038 6.40972 25.7038C12.9144 25.7101 19.4185 25.7101 25.9221 25.7038C26.1277 25.7038 26.2164 25.7687 26.2757 25.9601C26.5692 26.9008 26.873 27.8375 27.1776 28.7742C27.3722 29.3746 27.7401 29.6349 28.373 29.6397C28.6396 29.6397 28.9062 29.646 29.172 29.6397C29.8753 29.6215 30.3468 29.0859 30.2677 28.3865C30.2384 28.1231 30.1846 27.8612 30.1395 27.5954C30.0604 27.1271 29.9813 26.6571 29.8983 26.1896C29.7883 25.5147 29.3832 23.2252 29.3358 22.946C29.24 22.385 29.1451 21.8241 29.043 21.2229H29.8421C30.8104 21.2189 31.3231 20.7063 31.3231 19.7411C31.3231 17.2934 31.3231 14.8459 31.3231 12.3987C31.3199 11.4232 30.8207 10.9177 29.85 10.9153ZM7.01256 10.3671C7.27759 10.3378 7.54894 10.3053 7.82109 10.2792C8.49196 10.2136 8.74433 9.76421 8.44766 9.15663C8.26175 8.7761 8.09007 8.38686 7.87726 8.02136C7.71903 7.74763 7.69372 7.50001 7.84482 7.22391C7.8977 7.10916 7.94289 6.99102 7.98011 6.87028C8.25542 6.96917 8.51095 7.0641 8.77123 7.15271C9.31948 7.341 9.75065 7.02138 9.72058 6.44069C9.69843 5.99687 9.68656 5.55068 9.62407 5.11239C9.58214 4.8173 9.64384 4.59816 9.86615 4.40829C9.97579 4.30664 10.0796 4.19888 10.1771 4.08551L10.7973 4.59183C11.3574 5.04515 11.84 4.90828 12.0694 4.23741C12.2031 3.8458 12.3582 3.45973 12.465 3.06021C12.5441 2.75088 12.7023 2.55864 13.0038 2.46845C13.1224 2.42554 13.2386 2.37615 13.3519 2.32051C13.4626 2.5531 13.5718 2.77066 13.6683 2.99297C13.7862 3.26037 13.9784 3.42413 14.2743 3.44074C14.5702 3.45736 14.7783 3.30863 14.927 3.06021C15.1145 2.74376 15.302 2.43364 15.5029 2.12985C15.5559 2.05073 15.6556 1.95422 15.7403 1.95026C16.1026 1.93048 16.4673 1.94156 16.8684 1.94156C16.8921 2.15912 16.9198 2.4107 16.9475 2.66228C17.0266 3.39011 17.5591 3.63061 18.1579 3.20973L18.3992 3.03806C19.3043 2.39092 19.3043 2.39092 20.362 2.90436C20.2734 3.14565 20.1832 3.37429 20.1057 3.60688C19.9095 4.19231 20.3051 4.65275 20.9126 4.53408C21.2892 4.4605 21.6587 4.35054 22.0345 4.27143C22.1255 4.24959 22.2216 4.26436 22.3019 4.31256C22.5867 4.5499 22.8556 4.81097 23.146 5.07521C22.9537 5.31255 22.7726 5.53565 22.6001 5.76112C22.2275 6.24924 22.4506 6.80224 23.0598 6.90588C23.4292 6.96837 23.8018 7.01347 24.1673 7.09733C24.3019 7.13242 24.4181 7.21724 24.4925 7.33467C24.6507 7.6171 24.7694 7.92168 24.9197 8.25079C24.6824 8.36155 24.4593 8.46914 24.2322 8.57436C23.9806 8.69066 23.8184 8.86945 23.7971 9.15742C23.7757 9.44539 23.9094 9.6677 24.1586 9.8188C24.445 9.99206 24.7227 10.1835 25.0186 10.3394C25.2559 10.4644 25.3445 10.6289 25.2678 10.8995H21.0448C20.8755 8.01503 18.5037 6.11475 15.9918 6.20336C13.6564 6.28247 11.4698 8.08386 11.2831 10.9026C11.1842 10.9074 11.0805 10.9177 10.9769 10.9177H7.4548C6.96034 10.9145 6.96034 10.9145 7.01256 10.3671ZM16.1105 8.79588C15.5832 8.80653 15.0761 9.00032 14.6761 9.34402C14.2761 9.68772 14.0082 10.1599 13.9183 10.6795C13.9064 10.746 13.8954 10.8125 13.8811 10.8963H12.1818C12.2807 9.57513 12.8297 8.51424 13.9223 7.78877C15.3028 6.87186 16.7529 6.8323 18.1943 7.6527C19.3652 8.31883 20.2157 9.79744 20.1017 10.9129C19.5946 10.9129 19.0836 10.92 18.5733 10.9034C18.5155 10.9034 18.4285 10.7713 18.4151 10.6898C18.1896 9.54903 17.2576 8.77926 16.1105 8.79588ZM17.5076 10.8971H14.8178C14.8597 10.1914 15.4729 9.66928 16.2141 9.68431C16.8921 9.69855 17.4863 10.246 17.5037 10.8971H17.5076ZM6.14628 22.779C5.53948 24.6603 4.92636 26.5392 4.32668 28.4229C4.24757 28.6769 4.12178 28.7781 3.8615 28.7552C3.66609 28.7386 3.46594 28.7552 3.27132 28.7512C2.96199 28.7465 2.90108 28.6856 2.95487 28.377C3.08857 27.5614 3.23177 26.7473 3.37259 25.9332C3.57037 24.7901 3.76815 23.6469 3.9691 22.4934H6.22143C6.19216 22.5939 6.17555 22.6896 6.14628 22.779ZM2.50314 21.5915C2.00869 21.5915 1.89002 21.4737 1.89002 20.9848C1.89002 19.4563 1.89002 17.9271 1.89002 16.3495H2.54111C2.8631 16.3495 6.43266 16.3495 8.20637 16.3495H11.4539C11.9879 16.3495 12.041 16.4041 12.041 16.9476C12.041 18.3189 12.041 19.6902 12.041 21.0615C12.041 21.5148 11.9618 21.59 11.503 21.59L2.50314 21.5915ZM6.42712 24.8043C6.67237 24.0488 6.9018 23.3194 7.15338 22.5979C7.17553 22.5338 7.33771 22.4855 7.43502 22.4847C8.76648 22.4776 10.0987 22.48 11.431 22.48C12.3859 22.48 12.7522 22.1881 12.9563 21.2474H15.707C15.707 21.9998 15.9539 22.6445 16.5504 23.1208C16.9688 23.4605 17.4987 23.6322 18.0369 23.6026C19.2236 23.5527 19.9767 22.7221 20.1587 21.2411C20.2481 21.2355 20.343 21.2245 20.4372 21.2245C21.7821 21.2245 23.1215 21.2292 24.4632 21.2189C24.68 21.2189 24.7662 21.2878 24.8295 21.4919C25.146 22.5077 25.4806 23.5171 25.8073 24.5298C25.8334 24.6089 25.8516 24.6951 25.8809 24.8043H6.42712ZM12.946 20.3178V18.3463C13.0087 18.3295 13.0728 18.3183 13.1375 18.3131C13.7094 18.3131 14.2814 18.3052 14.8534 18.3131C15.3961 18.321 15.6928 18.613 15.7094 19.1565C15.7205 19.5378 15.7094 19.9199 15.7094 20.3178H12.946ZM16.6137 21.2427H19.2323C19.2758 21.7964 19.0741 22.2221 18.6239 22.5085C18.4186 22.6495 18.1755 22.7254 17.9264 22.7261C17.6772 22.7268 17.4337 22.6523 17.2276 22.5124C16.7727 22.2284 16.5789 21.8028 16.6168 21.2427H16.6137ZM29.047 28.7512C28.85 28.7512 28.6514 28.7378 28.4552 28.756C28.1942 28.7797 28.0692 28.6769 27.9893 28.4237C27.3659 26.4609 26.7298 24.5029 26.0969 22.5433C25.9592 22.1161 25.8216 21.6881 25.676 21.2371H28.1214C28.142 21.3305 28.1633 21.4151 28.1783 21.5006C28.3144 22.2869 28.8286 25.2647 29.0122 26.3067C29.0209 26.3636 29.0304 26.4206 29.0399 26.4775C29.1483 27.1104 29.2614 27.7433 29.3627 28.3762C29.4157 28.6856 29.3563 28.7465 29.0502 28.7512H29.047ZM30.4299 17.4002C30.4299 18.1992 30.4299 18.999 30.4299 19.7981C30.4299 20.1936 30.2899 20.3337 29.8927 20.3344C25.5405 20.3344 21.1893 20.3344 16.8391 20.3344C16.7609 20.3295 16.683 20.3205 16.6058 20.3076C16.6058 19.9745 16.6058 19.6509 16.6058 19.3273C16.6058 18.0821 15.9483 17.4239 14.707 17.4231H12.9278C12.9278 17.1786 12.9278 16.965 12.9278 16.7514C12.912 15.9603 12.4349 15.4682 11.6517 15.4643C10.2588 15.4579 8.8659 15.4579 7.47299 15.4643C5.53553 15.4643 2.62023 15.4643 2.27292 15.4643H1.88843V14.5845C1.88843 13.8535 1.88843 13.1231 1.88843 12.3931C1.88843 11.9184 2.00236 11.8037 2.48336 11.8037H29.7503C29.8781 11.795 30.0066 11.8027 30.1324 11.8267C30.3887 11.8955 30.4338 12.1012 30.4331 12.3377C30.4309 14.0255 30.4299 15.713 30.4299 17.4002Z" fill="black"/>
<path d="M29.85 10.9153C28.7424 10.9153 27.6396 10.9153 26.5344 10.9153H26.1388C26.4078 9.84491 25.513 9.67482 24.9252 9.23732C25.0937 9.15821 25.2417 9.08622 25.392 9.01423C25.854 8.79192 25.979 8.46044 25.7725 7.99763C25.585 7.57438 25.3857 7.15587 25.1982 6.73183C25.1441 6.59881 25.054 6.48349 24.938 6.39881C24.822 6.31412 24.6847 6.26343 24.5415 6.25241C24.2014 6.20573 23.8643 6.13769 23.4846 6.07203C23.6428 5.87504 23.7765 5.7089 23.9071 5.53881C24.1998 5.15986 24.1737 4.81968 23.8224 4.49373C23.4973 4.19152 23.1563 3.90513 22.8406 3.59343C22.7298 3.47337 22.5863 3.38824 22.4278 3.34848C22.2693 3.30871 22.1026 3.31603 21.9482 3.36954C21.669 3.44865 21.3842 3.5072 21.0574 3.58552C21.1255 3.39723 21.1745 3.25958 21.2243 3.12271C21.4134 2.59661 21.2671 2.277 20.7386 2.07842C20.3327 1.92336 19.9214 1.78729 19.5187 1.62906C19.3841 1.56665 19.2345 1.54363 19.0874 1.56267C18.9402 1.58171 18.8015 1.64203 18.6872 1.73666C18.4135 1.94472 18.1279 2.13222 17.8114 2.36007C17.779 2.0982 17.7584 1.87431 17.7228 1.6528C17.6492 1.19474 17.3937 0.984297 16.9317 1.00091C16.4784 1.01673 16.0251 1.04759 15.5718 1.06104C15.4181 1.05841 15.2668 1.09937 15.1355 1.17918C15.0042 1.25899 14.8981 1.37438 14.8297 1.51198C14.6849 1.77305 14.518 2.02225 14.3368 2.31497C14.2347 2.10374 14.1635 1.94552 14.0852 1.78729C13.8811 1.38302 13.5441 1.25882 13.124 1.4384C12.8708 1.54995 12.6296 1.68128 12.3701 1.7778C12.2068 1.83383 12.0604 1.93035 11.9446 2.05833C11.8288 2.18631 11.7474 2.34157 11.7079 2.50959C11.5853 2.93996 11.4223 3.35926 11.2815 3.77539C11.2372 3.77539 11.2245 3.77935 11.219 3.77539C11.0077 3.61716 10.8005 3.44628 10.5861 3.28885C10.2522 3.0436 9.91995 3.06733 9.63039 3.364C9.41679 3.58315 9.22534 3.82365 9.00699 4.03804C8.75304 4.28329 8.67392 4.56968 8.71506 4.92015C8.76569 5.33865 8.78468 5.76112 8.82028 6.22313C8.56396 6.12899 8.34561 6.04197 8.1233 5.96918C7.70717 5.83153 7.37964 5.98184 7.2143 6.38611C7.11699 6.62344 7.04895 6.87265 6.93819 7.10287C6.75149 7.49289 6.77443 7.85127 6.98962 8.22706C7.2048 8.60284 7.37252 8.99049 7.57505 9.40267C7.26572 9.44064 7.00227 9.46992 6.73883 9.50473C6.31004 9.56248 6.09485 9.8101 6.09327 10.2413C6.09327 10.4549 6.09327 10.6693 6.09327 10.9145H5.75704C4.71117 10.9145 3.66372 10.9414 2.61864 10.9066C1.81644 10.8797 1.2674 11.17 1 11.9414V21.4753C1.35838 22.4626 2.16216 22.5662 3.06879 22.4642C2.95487 23.1232 2.84886 23.7347 2.74364 24.3462C2.51342 25.6912 2.26897 27.0258 2.06011 28.3699C1.94935 29.0819 2.44381 29.6231 3.16294 29.6357C3.40977 29.642 3.6566 29.6357 3.90264 29.6357C4.59409 29.6357 4.94139 29.3849 5.15262 28.7338C5.45088 27.8161 5.75309 26.8992 6.03868 25.9768C6.10197 25.7711 6.19691 25.7038 6.40972 25.7038C12.9144 25.7101 19.4185 25.7101 25.9221 25.7038C26.1277 25.7038 26.2164 25.7687 26.2757 25.9601C26.5692 26.9008 26.873 27.8375 27.1776 28.7742C27.3722 29.3746 27.7401 29.6349 28.373 29.6397C28.6396 29.6397 28.9062 29.646 29.172 29.6397C29.8753 29.6215 30.3468 29.0859 30.2677 28.3865C30.2384 28.1231 30.1846 27.8612 30.1395 27.5954C30.0604 27.1271 29.9813 26.6571 29.8983 26.1896C29.7883 25.5147 29.3832 23.2252 29.3358 22.946C29.24 22.385 29.1451 21.8241 29.043 21.2229H29.8421C30.8104 21.2189 31.3231 20.7063 31.3231 19.7411C31.3231 17.2934 31.3231 14.8459 31.3231 12.3987C31.3199 11.4232 30.8207 10.9177 29.85 10.9153ZM7.01256 10.3671C7.27759 10.3378 7.54894 10.3053 7.82109 10.2792C8.49196 10.2136 8.74433 9.76421 8.44766 9.15663C8.26175 8.7761 8.09007 8.38686 7.87726 8.02136C7.71903 7.74763 7.69372 7.50001 7.84482 7.22391C7.8977 7.10916 7.94289 6.99102 7.98011 6.87028C8.25542 6.96917 8.51095 7.0641 8.77123 7.15271C9.31948 7.341 9.75065 7.02138 9.72058 6.44069C9.69843 5.99687 9.68656 5.55068 9.62407 5.11239C9.58214 4.8173 9.64384 4.59816 9.86615 4.40829C9.97579 4.30664 10.0796 4.19888 10.1771 4.08551L10.7973 4.59183C11.3574 5.04515 11.84 4.90828 12.0694 4.23741C12.2031 3.8458 12.3582 3.45973 12.465 3.06021C12.5441 2.75088 12.7023 2.55864 13.0038 2.46845C13.1224 2.42554 13.2386 2.37615 13.3519 2.32051C13.4626 2.5531 13.5718 2.77066 13.6683 2.99297C13.7862 3.26037 13.9784 3.42413 14.2743 3.44074C14.5702 3.45736 14.7783 3.30863 14.927 3.06021C15.1145 2.74376 15.302 2.43364 15.5029 2.12985C15.5559 2.05073 15.6556 1.95422 15.7403 1.95026C16.1026 1.93048 16.4673 1.94156 16.8684 1.94156C16.8921 2.15912 16.9198 2.4107 16.9475 2.66228C17.0266 3.39011 17.5591 3.63061 18.1579 3.20973L18.3992 3.03806C19.3043 2.39092 19.3043 2.39092 20.362 2.90436C20.2734 3.14565 20.1832 3.37429 20.1057 3.60688C19.9095 4.19231 20.3051 4.65275 20.9126 4.53408C21.2892 4.4605 21.6587 4.35054 22.0345 4.27143C22.1255 4.24959 22.2216 4.26436 22.3019 4.31256C22.5867 4.5499 22.8556 4.81097 23.146 5.07521C22.9537 5.31255 22.7726 5.53565 22.6001 5.76112C22.2275 6.24924 22.4506 6.80224 23.0598 6.90588C23.4292 6.96837 23.8018 7.01347 24.1673 7.09733C24.3019 7.13242 24.4181 7.21724 24.4925 7.33467C24.6507 7.6171 24.7694 7.92168 24.9197 8.25079C24.6824 8.36155 24.4593 8.46914 24.2322 8.57436C23.9806 8.69066 23.8184 8.86945 23.7971 9.15742C23.7757 9.44539 23.9094 9.6677 24.1586 9.8188C24.445 9.99206 24.7227 10.1835 25.0186 10.3394C25.2559 10.4644 25.3445 10.6289 25.2678 10.8995H21.0448C20.8755 8.01503 18.5037 6.11475 15.9918 6.20336C13.6564 6.28247 11.4698 8.08386 11.2831 10.9026C11.1842 10.9074 11.0805 10.9177 10.9769 10.9177H7.4548C6.96034 10.9145 6.96034 10.9145 7.01256 10.3671ZM16.1105 8.79588C15.5832 8.80653 15.0761 9.00032 14.6761 9.34402C14.2761 9.68772 14.0082 10.1599 13.9183 10.6795C13.9064 10.746 13.8954 10.8125 13.8811 10.8963H12.1818C12.2807 9.57513 12.8297 8.51424 13.9223 7.78877C15.3028 6.87186 16.7529 6.8323 18.1943 7.6527C19.3652 8.31883 20.2157 9.79744 20.1017 10.9129C19.5946 10.9129 19.0836 10.92 18.5733 10.9034C18.5155 10.9034 18.4285 10.7713 18.4151 10.6898C18.1896 9.54903 17.2576 8.77926 16.1105 8.79588ZM17.5076 10.8971H14.8178C14.8597 10.1914 15.4729 9.66928 16.2141 9.68431C16.8921 9.69855 17.4863 10.246 17.5037 10.8971H17.5076ZM6.14628 22.779C5.53948 24.6603 4.92636 26.5392 4.32668 28.4229C4.24757 28.6769 4.12178 28.7781 3.8615 28.7552C3.66609 28.7386 3.46594 28.7552 3.27132 28.7512C2.96199 28.7465 2.90108 28.6856 2.95487 28.377C3.08857 27.5614 3.23177 26.7473 3.37259 25.9332C3.57037 24.7901 3.76815 23.6469 3.9691 22.4934H6.22143C6.19216 22.5939 6.17555 22.6896 6.14628 22.779ZM2.50314 21.5915C2.00869 21.5915 1.89002 21.4737 1.89002 20.9848C1.89002 19.4563 1.89002 17.9271 1.89002 16.3495H2.54111C2.8631 16.3495 6.43266 16.3495 8.20637 16.3495H11.4539C11.9879 16.3495 12.041 16.4041 12.041 16.9476C12.041 18.3189 12.041 19.6902 12.041 21.0615C12.041 21.5148 11.9618 21.59 11.503 21.59L2.50314 21.5915ZM6.42712 24.8043C6.67237 24.0488 6.9018 23.3194 7.15338 22.5979C7.17553 22.5338 7.33771 22.4855 7.43502 22.4847C8.76648 22.4776 10.0987 22.48 11.431 22.48C12.3859 22.48 12.7522 22.1881 12.9563 21.2474H15.707C15.707 21.9998 15.9539 22.6445 16.5504 23.1208C16.9688 23.4605 17.4987 23.6322 18.0369 23.6026C19.2236 23.5527 19.9767 22.7221 20.1587 21.2411C20.2481 21.2355 20.343 21.2245 20.4372 21.2245C21.7821 21.2245 23.1215 21.2292 24.4632 21.2189C24.68 21.2189 24.7662 21.2878 24.8295 21.4919C25.146 22.5077 25.4806 23.5171 25.8073 24.5298C25.8334 24.6089 25.8516 24.6951 25.8809 24.8043H6.42712ZM12.946 20.3178V18.3463C13.0087 18.3295 13.0728 18.3183 13.1375 18.3131C13.7094 18.3131 14.2814 18.3052 14.8534 18.3131C15.3961 18.321 15.6928 18.613 15.7094 19.1565C15.7205 19.5378 15.7094 19.9199 15.7094 20.3178H12.946ZM16.6137 21.2427H19.2323C19.2758 21.7964 19.0741 22.2221 18.6239 22.5085C18.4186 22.6495 18.1755 22.7254 17.9264 22.7261C17.6772 22.7268 17.4337 22.6523 17.2276 22.5124C16.7727 22.2284 16.5789 21.8028 16.6168 21.2427H16.6137ZM29.047 28.7512C28.85 28.7512 28.6514 28.7378 28.4552 28.756C28.1942 28.7797 28.0692 28.6769 27.9893 28.4237C27.3659 26.4609 26.7298 24.5029 26.0969 22.5433C25.9592 22.1161 25.8216 21.6881 25.676 21.2371H28.1214C28.142 21.3305 28.1633 21.4151 28.1783 21.5006C28.3144 22.2869 28.8286 25.2647 29.0122 26.3067C29.0209 26.3636 29.0304 26.4206 29.0399 26.4775C29.1483 27.1104 29.2614 27.7433 29.3627 28.3762C29.4157 28.6856 29.3563 28.7465 29.0502 28.7512H29.047ZM30.4299 17.4002C30.4299 18.1992 30.4299 18.999 30.4299 19.7981C30.4299 20.1936 30.2899 20.3337 29.8927 20.3344C25.5405 20.3344 21.1893 20.3344 16.8391 20.3344C16.7609 20.3295 16.683 20.3205 16.6058 20.3076C16.6058 19.9745 16.6058 19.6509 16.6058 19.3273C16.6058 18.0821 15.9483 17.4239 14.707 17.4231H12.9278C12.9278 17.1786 12.9278 16.965 12.9278 16.7514C12.912 15.9603 12.4349 15.4682 11.6517 15.4643C10.2588 15.4579 8.8659 15.4579 7.47299 15.4643C5.53553 15.4643 2.62023 15.4643 2.27292 15.4643H1.88843V14.5845C1.88843 13.8535 1.88843 13.1231 1.88843 12.3931C1.88843 11.9184 2.00236 11.8037 2.48336 11.8037H29.7503C29.8781 11.795 30.0066 11.8027 30.1324 11.8267C30.3887 11.8955 30.4338 12.1012 30.4331 12.3377C30.4309 14.0255 30.4299 15.713 30.4299 17.4002Z" stroke="black" stroke-width="0.6" mask="url(#path-1-outside-1_8_1153)"/>
<path d="M6.69297 18.983L6.69297 18.9827C6.6957 18.6163 6.58956 18.2573 6.388 17.9513C6.18645 17.6453 5.89856 17.406 5.56085 17.2638C5.22313 17.1216 4.85079 17.0829 4.49105 17.1526C4.1313 17.2223 3.80035 17.3972 3.54016 17.6552C3.27997 17.9133 3.10225 18.2427 3.02955 18.6019C2.95684 18.961 2.99242 19.3337 3.13177 19.6726C3.27113 20.0115 3.50798 20.3013 3.81229 20.5055C4.11661 20.7096 4.47469 20.8187 4.84112 20.8191L4.84126 20.6691L4.8414 20.8191C5.32965 20.8187 5.79801 20.6256 6.14471 20.2818C6.49141 19.938 6.68843 19.4712 6.69297 18.983ZM4.83568 19.6283L4.83554 19.6283C4.70398 19.6278 4.57554 19.5881 4.46657 19.5144C4.3576 19.4407 4.27302 19.3362 4.22357 19.2143C4.17412 19.0924 4.16205 18.9585 4.18889 18.8297C4.21573 18.7009 4.28027 18.583 4.37429 18.491C4.46832 18.399 4.58759 18.337 4.71694 18.3129C4.84628 18.2889 4.97986 18.3038 5.10069 18.3559C5.22151 18.4079 5.32412 18.4947 5.39548 18.6053C5.46683 18.7158 5.5037 18.8451 5.5014 18.9766L5.5014 18.9768C5.49851 19.1511 5.427 19.3173 5.30238 19.4393C5.17775 19.5612 5.01006 19.6292 4.83568 19.6283Z" fill="black" stroke="black" stroke-width="0.3"/>
<path d="M10.9391 18.9832C10.936 19.3494 10.8243 19.7064 10.6181 20.0089C10.4119 20.3116 10.1203 20.5462 9.78048 20.6829C9.44066 20.8196 9.06788 20.8523 8.70946 20.7768C8.35104 20.7012 8.02313 20.5209 7.76735 20.2587C7.51158 19.9965 7.33946 19.6643 7.27285 19.3041C7.20624 18.9439 7.24814 18.572 7.39323 18.2357C7.53832 17.8994 7.78005 17.6137 8.08776 17.415C8.39535 17.2164 8.755 17.1136 9.12109 17.1196M10.9391 18.9832C10.9423 18.7415 10.8979 18.5015 10.8083 18.277C10.7186 18.0523 10.5855 17.8475 10.4166 17.6744C10.2477 17.5012 10.0463 17.3631 9.8239 17.2679C9.60165 17.1728 9.36283 17.1224 9.12109 17.1196M10.9391 18.9832C10.9391 18.9834 10.9391 18.9835 10.9391 18.9837L10.7891 18.9816L10.9391 18.9828C10.9391 18.983 10.9391 18.9831 10.9391 18.9832ZM9.12109 17.1196C9.12095 17.1196 9.12082 17.1196 9.12068 17.1196L9.119 17.2696L9.12151 17.1196C9.12137 17.1196 9.12123 17.1196 9.12109 17.1196ZM9.097 19.6283L9.09568 19.6283C8.96519 19.6293 8.83734 19.5915 8.72836 19.5198C8.61937 19.448 8.53416 19.3455 8.48355 19.2252C8.43293 19.1049 8.41919 18.9723 8.44407 18.8442C8.46895 18.7161 8.53132 18.5983 8.62327 18.5057C8.71523 18.4131 8.83261 18.35 8.96054 18.3242C9.08846 18.2984 9.22115 18.3113 9.34177 18.3611C9.46239 18.4108 9.5655 18.4953 9.63802 18.6038C9.71053 18.7123 9.74918 18.8399 9.74905 18.9704L9.74906 18.9717C9.74974 19.0578 9.73337 19.1431 9.7009 19.2227C9.66842 19.3024 9.62049 19.3749 9.55987 19.4359C9.49924 19.4969 9.42712 19.5454 9.34768 19.5784C9.26824 19.6114 9.18304 19.6284 9.097 19.6283Z" fill="black" stroke="black" stroke-width="0.3"/>
</svg>
