<svg width="34" height="34" viewBox="0 0 34 34" fill="none" xmlns="http://www.w3.org/2000/svg">
<path fill-rule="evenodd" clip-rule="evenodd" d="M33.6 21.8257C32.9509 21.0235 32.1328 20.3636 31.2 19.9V16.7516C31.2 8.57775 24.9738 2.4 16.8 2.4C8.62619 2.4 2.4 8.57775 2.4 16.7516V19.9C1.46717 20.3636 0.649147 21.0235 0 21.8257V16.7516C0 7.25226 7.3007 0 16.8 0C26.2993 0 33.6 7.25226 33.6 16.7516V21.8257ZM4.87076 20.7986C4.82431 21.0425 4.8 21.2942 4.8 21.5516V31.1516C4.8 31.4089 4.82431 31.6607 4.87076 31.9045C2.12251 31.5471 0 29.1972 0 26.3516C0 23.5059 2.12251 21.156 4.87076 20.7986ZM28.8 31.1516C28.8 31.4089 28.7757 31.6607 28.7292 31.9045C31.4775 31.5471 33.6 29.1972 33.6 26.3516C33.6 23.5059 31.4775 21.156 28.7292 20.7986C28.7757 21.0425 28.8 21.2942 28.8 21.5516V31.1516ZM8.8 19.1516H10.4C11.7255 19.1516 12.8 20.2261 12.8 21.5516V31.1516C12.8 32.477 11.7255 33.5516 10.4 33.5516H8.8C7.47452 33.5516 6.4 32.477 6.4 31.1516V21.5516C6.4 20.2261 7.47452 19.1516 8.8 19.1516ZM24.8 19.1516H23.2C21.8745 19.1516 20.8 20.2261 20.8 21.5516V31.1516C20.8 32.477 21.8745 33.5516 23.2 33.5516H24.8C26.1255 33.5516 27.2 32.477 27.2 31.1516V21.5516C27.2 20.2261 26.1255 19.1516 24.8 19.1516Z" fill="black"/>
</svg>
