<svg width="24" height="24" viewBox="0 0 24 24" fill="none" xmlns="http://www.w3.org/2000/svg">
<path d="M12 7.63636C9.58909 7.63636 7.63636 9.58909 7.63636 12C7.63636 14.4109 9.58909 16.3636 12 16.3636C14.4109 16.3636 16.3636 14.4109 16.3636 12C16.3636 9.58909 14.4109 7.63636 12 7.63636ZM21.7527 10.9091C21.5056 8.69686 20.5136 6.63441 18.9396 5.06039C17.3656 3.48638 15.3031 2.49438 13.0909 2.24727V0H10.9091V2.24727C8.69686 2.49438 6.63441 3.48638 5.06039 5.06039C3.48638 6.63441 2.49438 8.69686 2.24727 10.9091H0V13.0909H2.24727C2.49438 15.3031 3.48638 17.3656 5.06039 18.9396C6.63441 20.5136 8.69686 21.5056 10.9091 21.7527V24H13.0909V21.7527C15.3031 21.5056 17.3656 20.5136 18.9396 18.9396C20.5136 17.3656 21.5056 15.3031 21.7527 13.0909H24V10.9091H21.7527ZM12 19.6364C7.77818 19.6364 4.36364 16.2218 4.36364 12C4.36364 7.77818 7.77818 4.36364 12 4.36364C16.2218 4.36364 19.6364 7.77818 19.6364 12C19.6364 16.2218 16.2218 19.6364 12 19.6364Z" fill="#92929D"/>
</svg>
