<svg width="32" height="26" viewBox="0 0 32 26" fill="none" xmlns="http://www.w3.org/2000/svg">
<path d="M14.9801 8.26032C13.7651 8.35397 13.4056 7.84223 13.4031 6.70584C13.4031 5.49755 13.8387 5.13464 14.986 5.13631C16.1048 5.13631 16.6157 5.50173 16.5304 6.69581C16.5187 6.85134 16.5304 7.00854 16.5304 7.16491C16.5129 7.83386 16.0889 8.25196 15.4208 8.25948C15.272 8.26199 15.1265 8.26032 14.9801 8.26032ZM15.4651 7.20588V6.21583H14.4918V7.20588H15.4651Z" fill="black"/>
<path d="M19.1076 8.26032C17.911 8.35314 17.5339 7.85811 17.5306 6.70584C17.5306 5.47664 17.9871 5.10788 19.1135 5.14467C20.3803 5.18565 20.6554 5.42814 20.6554 6.69581V6.72675C20.739 7.79874 20.3477 8.35481 19.1076 8.26032ZM18.6059 7.19752H19.596V6.22336H18.6059V7.19752Z" fill="black"/>
<path d="M23.21 23.7156H22.2199V22.7247H23.21V23.7156Z" fill="black"/>
<path d="M31.9439 3.89792C31.5777 1.68202 29.6678 0.0146538 27.4285 0.00880044C22.5987 -0.00457861 17.7697 0.00127473 12.9407 0.00127473C12.6569 -0.00870821 12.3762 0.063064 12.1321 0.208048C11.8879 0.353032 11.6905 0.565121 11.5635 0.819069C11.5338 0.888837 11.4821 0.946964 11.4162 0.984564C11.3504 1.02216 11.2741 1.03717 11.1989 1.02728C10.7607 1.01975 10.3226 1.02059 9.8844 1.02728C9.23552 1.03648 8.75136 1.31995 8.4311 1.89357C8.39923 1.94 8.35769 1.97898 8.30934 2.00785C8.26099 2.03672 8.20697 2.05478 8.15098 2.06081C7.71365 2.07837 7.27047 2.11098 6.83816 2.06081C5.91166 1.95127 5.12146 2.17537 4.46505 2.85268C3.84794 3.48903 2.10783 3.62114 2.05599 3.62449C1.10691 3.69473 0.438793 4.17637 0.028223 5.0226C-0.00940767 5.11363 -0.00940767 5.21587 0.028223 5.3069C0.368553 6.01432 0.908732 6.50767 1.69224 6.63896C2.16051 6.71756 2.64801 6.67157 3.12464 6.71254C3.32537 6.72609 3.51948 6.78992 3.68906 6.89817C4.23928 7.27613 4.75939 7.70008 5.30459 8.08473C5.45472 8.18702 5.63062 8.24498 5.81215 8.25197C6.58396 8.26953 7.35576 8.25197 8.12756 8.26702C8.18804 8.27087 8.24696 8.28782 8.30024 8.31669C8.35352 8.34557 8.39988 8.38568 8.43612 8.43426C8.76474 9.00036 9.24053 9.28884 9.89611 9.28383C10.3451 9.28383 10.7933 9.27546 11.2415 9.28968C11.2938 9.29109 11.3451 9.30377 11.392 9.32687C11.4389 9.34996 11.4803 9.38291 11.5133 9.42347C11.8586 10.0824 12.4114 10.3324 13.1322 10.3274C14.6549 10.3165 16.1776 10.3274 17.7003 10.3274H18.069V10.6987C18.069 11.095 18.0557 11.4922 18.0749 11.8877C18.1184 12.7916 18.7438 13.4305 19.6478 13.3996C20.262 13.3688 20.8712 13.5244 21.3954 13.8461C21.5539 13.9462 21.722 14.0302 21.8971 14.0969C22.143 14.1856 22.2007 14.3478 22.1981 14.5987C22.1856 15.8086 22.1923 17.0186 22.1923 18.2286V18.563L22.1137 18.4928C21.7901 18.7018 21.3661 18.8423 21.1646 19.1358C20.7607 19.7212 20.4773 20.3901 20.1495 21.0306C20.1297 21.0901 20.1231 21.1532 20.1302 21.2154C20.1302 22.2189 20.1169 23.2223 20.1302 24.219C20.147 25.1656 20.7992 25.7961 21.7483 25.7969C24.4492 25.8008 27.1506 25.8008 29.8526 25.7969C30.826 25.7969 31.4732 25.1447 31.4824 24.1638C31.4882 23.5693 31.4464 22.9723 31.4924 22.3811C31.5635 21.4671 31.3561 20.6527 30.9071 19.8516C30.555 19.2261 30.2147 18.6634 29.5198 18.5923C29.381 17.4977 29.3125 16.4433 29.1017 15.4148C28.9136 14.5125 28.5557 13.6471 28.289 12.7607C28.0484 11.9602 27.9151 11.1312 27.8926 10.2956C27.9762 10.2822 28.0356 10.2739 28.095 10.2613C29.9262 9.89675 31.1621 8.83981 31.7792 7.07461C31.8779 6.79198 31.9272 6.48928 32 6.20079V4.13707C31.9772 4.05837 31.9585 3.97855 31.9439 3.89792V3.89792ZM3.09537 5.66647C2.39799 5.6765 1.68806 5.81447 1.15374 5.16475C1.67301 4.4958 2.39297 4.65468 3.09537 4.64882V5.66647ZM5.12648 6.74682L4.0804 5.89976V4.33441L5.12648 3.57264V6.74682ZM8.26303 7.19251H6.22858V3.1211H8.26303V7.19251ZM11.3419 8.24611C10.7984 8.24611 10.2548 8.27454 9.72385 8.23524C9.40526 8.21183 9.29572 7.94258 9.29572 7.6382V5.32446C9.29572 4.46988 9.29572 3.61529 9.29572 2.7607C9.29572 2.23307 9.46296 2.07001 9.98892 2.06917C10.4346 2.06917 10.8803 2.06917 11.3419 2.06917V8.24611ZM14.4893 1.05487H25.8046C25.8046 1.23633 25.8138 1.40189 25.8046 1.56746C25.7862 1.85929 25.6131 2.019 25.333 2.06332C25.2294 2.07379 25.1251 2.0763 25.0211 2.07085H15.3539C14.5361 2.06917 14.3956 1.90779 14.4893 1.0532V1.05487ZM20.1252 12.3769C19.9272 12.3901 19.7284 12.3882 19.5307 12.371C19.4144 12.3591 19.3069 12.3039 19.2295 12.2164C19.152 12.1289 19.1103 12.0154 19.1126 11.8986C19.1009 11.3902 19.1126 10.881 19.1126 10.3307C19.3074 10.3307 19.463 10.3249 19.6185 10.3307C19.9237 10.3458 20.1202 10.5114 20.1269 10.8115C20.1369 11.3174 20.1252 11.8275 20.1252 12.3769ZM30.4472 21.6879V22.0851C30.4472 22.7733 30.4472 23.4614 30.4472 24.1496C30.4472 24.5778 30.2691 24.7517 29.8401 24.7701C29.7774 24.7701 29.7147 24.7701 29.6519 24.7701H21.959C21.3059 24.7701 21.1713 24.6355 21.1713 23.9824V21.6804H24.2602C24.2602 21.8476 24.256 21.9973 24.2602 22.1486C24.2895 23.091 24.9375 23.7257 25.8774 23.7299C26.514 23.7299 27.1501 23.7299 27.7856 23.7299C28.7622 23.7299 29.4136 23.0826 29.427 22.1093C29.427 21.9755 29.427 21.8417 29.427 21.6912L30.4472 21.6879ZM25.2979 21.6879H28.3826C28.3826 21.8601 28.3876 22.0056 28.3826 22.1511C28.3684 22.5023 28.1936 22.6938 27.8366 22.7013C27.1802 22.7139 26.5221 22.7139 25.8657 22.7013C25.4777 22.6947 25.3071 22.5007 25.2987 22.1068C25.2954 21.973 25.2979 21.8392 25.2979 21.687V21.6879ZM29.2522 19.6158C29.4195 19.6158 29.6361 19.768 29.754 19.9118C29.912 20.1075 29.9956 20.3634 30.1286 20.6259H21.4916C21.6429 20.3332 21.7466 20.0565 21.918 19.8299C21.9747 19.7652 22.0438 19.7127 22.1213 19.6753C22.1987 19.638 22.2829 19.6166 22.3687 19.6125C24.6632 19.5985 26.9577 19.5994 29.2522 19.615V19.6158ZM28.4604 9.10154C27.9503 9.22697 27.4202 9.26878 26.8549 9.35741C26.7991 10.6028 26.9482 11.8488 27.2964 13.0458C27.5715 13.9732 27.8976 14.8855 28.1443 15.8212C28.3801 16.71 28.4119 17.6282 28.3726 18.5655H23.2476V14.4197C23.4541 14.352 23.6657 14.2951 23.8663 14.214C24.4314 13.9879 24.9169 13.5997 25.2618 13.0983C25.6067 12.5968 25.7956 12.0046 25.8046 11.396C25.8138 10.9069 25.7846 10.4102 25.8607 9.9302C25.9373 9.46752 26.1749 9.04676 26.5315 8.74216C26.8881 8.43757 27.3408 8.2687 27.8098 8.26535C28.4629 8.2528 29.1168 8.26535 29.8434 8.26535C29.422 8.69766 28.973 8.97444 28.4604 9.1007V9.10154ZM30.7239 6.97427C30.6729 7.16325 30.5626 7.22512 30.361 7.22512C29.5583 7.21342 28.755 7.21342 27.9511 7.22512C26.3624 7.24519 25.1031 8.25615 24.8397 9.76882C24.7561 10.2572 24.7928 10.7664 24.7828 11.2664C24.7611 12.3585 24.1197 13.1679 23.092 13.3669C22.9415 13.3937 22.7864 13.3763 22.6455 13.3168C22.2098 13.1186 21.7809 12.9029 21.362 12.6712C21.3112 12.6375 21.2684 12.5931 21.2367 12.5411C21.2049 12.4891 21.1849 12.4308 21.178 12.3702C21.1579 11.9019 21.1705 11.432 21.1688 10.9629C21.1688 9.93271 20.5191 9.29052 19.4814 9.29052C17.3842 9.29052 15.2873 9.29052 13.1907 9.29052C12.5217 9.29052 12.4005 9.17094 12.4005 8.51537C12.4005 6.30364 12.4214 4.09192 12.3905 1.88103C12.3779 1.02812 12.7835 0.973764 13.4232 1.06658C13.4232 1.21041 13.4232 1.36176 13.4232 1.51311C13.4457 2.44044 14.0779 3.09267 15.0069 3.09518C18.418 3.1041 21.8291 3.1041 25.2402 3.09518C26.1926 3.09518 26.8131 2.45884 26.8432 1.50642C26.8482 1.36259 26.8432 1.21877 26.8432 1.08247C28.2647 0.801509 30.0466 1.75727 30.5718 3.08933H27.8859V4.11868H30.9271V5.15221H27.8918V6.19327H30.9405C30.8619 6.48008 30.79 6.72592 30.7239 6.97343V6.97427Z" fill="black"/>
</svg>
