<svg width="32" height="33" viewBox="0 0 32 33" fill="none" xmlns="http://www.w3.org/2000/svg">
<path d="M32 30.1443V32.0209H0V30.1251H1.87321V23.5304H3.71133V10.3553H0V4.68971H3.73138V0H9.42287C9.41245 0.0506866 9.40574 0.102068 9.40282 0.153734C9.40282 1.60195 9.40282 3.05017 9.40282 4.49838C9.4071 4.56642 9.41491 4.63418 9.42621 4.70141H9.84397C14.7735 4.70141 19.703 4.70141 24.6325 4.70141C24.7236 4.69252 24.8153 4.70841 24.8981 4.74738C24.9809 4.78635 25.0517 4.84697 25.1029 4.92282C26.3829 6.6448 27.6737 8.35927 28.9604 10.0771C29.0189 10.1548 29.0674 10.2442 29.1568 10.3762H23.5221C23.5221 11.3504 23.5288 12.2862 23.5171 13.2228C23.5171 13.4425 23.5822 13.5503 23.7878 13.6405C25.7796 14.5139 27.7681 15.3943 29.7533 16.2816C30.3123 16.5322 30.8696 16.7829 31.4402 17.0335L30.6782 18.743C30.5579 18.6937 30.461 18.6594 30.3674 18.6168C27.877 17.5128 25.3869 16.4038 22.8971 15.2898C22.8025 15.2405 22.6975 15.2142 22.5908 15.2132C22.4841 15.2122 22.3786 15.2364 22.283 15.284C19.7865 16.4036 17.2872 17.5176 14.7852 18.626C14.6933 18.6669 14.5989 18.7004 14.4852 18.7455C14.2287 18.1665 13.9839 17.61 13.7291 17.0419C13.8552 16.9826 13.9572 16.9324 14.0633 16.8865C16.4969 15.8037 18.9315 14.7231 21.3673 13.6447C21.5687 13.5561 21.6497 13.4542 21.643 13.2269C21.6272 12.6646 21.638 12.1024 21.638 11.5392V10.3904H9.42956V23.5614H11.2911V30.126H15.99V29.7358C15.99 26.9507 15.988 24.1679 15.9841 21.3874C15.9841 21.1568 16.0535 21.0431 16.2598 20.9404C18.284 19.9378 20.3043 18.9279 22.3206 17.9108C22.3985 17.8631 22.4877 17.8373 22.579 17.8359C22.6703 17.8346 22.7603 17.8579 22.8395 17.9033C24.8648 18.9254 26.8936 19.94 28.9262 20.9471C29.1284 21.0465 29.1843 21.1634 29.1835 21.3757C29.1768 24.1685 29.1754 26.9616 29.1793 29.755V30.1443H32ZM27.2794 30.1293C27.2869 30.0332 27.2961 29.9622 27.2961 29.892C27.2961 27.4231 27.2961 24.9542 27.3019 22.4852C27.3019 22.278 27.2092 22.1978 27.0454 22.1168C25.6284 21.4149 24.2144 20.7073 22.8036 19.9937C22.7334 19.9539 22.6538 19.9339 22.5731 19.9358C22.4925 19.9377 22.4139 19.9615 22.3457 20.0046C20.9437 20.7131 19.5387 21.4155 18.1305 22.1117C17.9359 22.2078 17.864 22.3139 17.8649 22.5345C17.8732 24.9617 17.8699 27.3888 17.8707 29.8168C17.8707 29.9171 17.8807 30.0173 17.8857 30.1143H19.7606V25.4596H25.4245V30.1293H27.2794ZM25.3995 8.46204C24.9692 7.88888 24.564 7.37086 24.1888 6.83697C24.0518 6.6423 23.9031 6.58632 23.6716 6.58632C16.5247 6.59189 9.37775 6.59356 2.23081 6.59133H1.8799V8.46538L25.3995 8.46204ZM3.76397 25.4521V30.1234H9.38193V25.4521H3.76397ZM5.62465 10.3829V23.1879C5.62465 23.2505 5.6046 23.3249 5.63133 23.3725C5.66893 23.4394 5.73995 23.5321 5.79843 23.5338C6.35739 23.5455 6.91634 23.5413 7.49201 23.5413V10.3829H5.62465ZM7.49452 4.68721V1.90078H5.64721V4.68721H7.49452ZM21.6556 27.3354V30.1184H23.4937V27.3354H21.6556Z" fill="black"/>
</svg>
