<svg width="25" height="32" viewBox="0 0 25 32" fill="none" xmlns="http://www.w3.org/2000/svg">
<path d="M18.6891 31.7821L17.4138 30.4329C17.4843 30.3326 17.5581 30.2331 17.6261 30.1303C18.1161 29.379 18.0531 28.7206 17.4602 28.0422C17.1649 27.7258 16.9021 27.3805 16.6757 27.0115C15.7885 25.4426 16.4925 23.7393 17.3723 22.8819L18.6842 24.2137C18.6634 24.2435 18.6137 24.3181 18.5623 24.3919C18.0025 25.1897 18.0407 25.8912 18.7082 26.5985C19.1767 27.0961 19.5665 27.6326 19.7414 28.2993C20.0731 29.5432 19.6701 30.6154 18.9064 31.5881C18.8558 31.6527 18.8027 31.7149 18.7513 31.7788L18.6891 31.7821Z" fill="black"/>
<path d="M7.26818 31.7821C6.94478 31.4396 6.62304 31.0963 6.29715 30.7563C6.2051 30.6601 6.09979 30.5755 5.99033 30.476C6.04755 30.384 6.08569 30.3143 6.13047 30.2505C6.72503 29.4055 6.68357 28.7172 5.97126 27.9717C5.38416 27.3581 4.96125 26.6616 4.87833 25.8016C4.76721 24.6457 5.22246 23.6937 5.95633 22.8554L7.29057 24.1888C7.19106 24.3447 7.06834 24.5105 6.9738 24.6913C6.63382 25.3389 6.70182 25.9111 7.17697 26.4683C7.32457 26.6408 7.48876 26.8 7.63222 26.9758C8.76246 28.3607 8.71022 30.1336 7.51198 31.5715C7.45227 31.6428 7.39091 31.7116 7.33038 31.7821H7.26818Z" fill="black"/>
<path d="M12.9791 31.7821C12.6474 31.433 12.3157 31.0806 11.9799 30.7364C11.8815 30.65 11.7764 30.5715 11.6656 30.5018C11.7386 30.389 11.7651 30.3459 11.795 30.3036C12.4542 29.369 12.4095 28.7463 11.6175 27.9071C10.9459 27.1989 10.5312 26.3697 10.5661 25.3746C10.6017 24.3953 11.0155 23.5702 11.654 22.8678L12.9808 24.1987C12.8871 24.3513 12.7619 24.5263 12.664 24.7162C12.3481 25.3315 12.4061 25.9111 12.8564 26.4426C12.9302 26.5297 13.0073 26.6126 13.0844 26.6956C14.4651 28.1716 14.5074 30.0424 13.1956 31.593C13.1425 31.6552 13.0903 31.7182 13.038 31.7813L12.9791 31.7821Z" fill="black"/>
<path d="M0 17.1378V16.8061C0 12.7948 0.00138206 8.78215 0.00414618 4.7681C0.00829235 2.47693 1.54818 0.586269 3.79126 0.106971C4.12624 0.0378065 4.46753 0.00389944 4.80956 0.00580465C9.84413 0.00193488 14.8801 0 19.9174 0C22.6074 0.00580465 24.7054 2.0905 24.7112 4.77639C24.7212 8.78989 24.7112 12.8026 24.7112 16.8161C24.7112 16.9064 24.7021 16.9977 24.6955 17.1113H20.9357V20.8967H3.80702V17.1378H0ZM22.804 15.2007C22.8089 15.0813 22.8164 14.9893 22.8164 14.8972C22.8164 11.5676 22.8164 8.23762 22.8164 4.90741C22.8214 4.65956 22.8 4.41188 22.7526 4.16856C22.4441 2.76965 21.318 1.90724 19.7872 1.90724C14.8328 1.90337 9.87895 1.90337 4.92566 1.90724C4.68818 1.9013 4.4507 1.9188 4.21666 1.95948C2.81194 2.23893 1.90724 3.37499 1.90724 4.88005C1.90061 8.22021 1.90061 11.5604 1.90724 14.9005C1.90724 14.9984 1.92051 15.0971 1.92797 15.2007H22.804ZM18.9986 17.1419H5.72172V18.9837H18.9969L18.9986 17.1419Z" fill="black"/>
<path d="M5.72815 3.81448H18.9893V5.69021H5.72815V3.81448Z" fill="black"/>
<path d="M5.72162 9.48314V7.62897H18.9894V9.4848L5.72162 9.48314Z" fill="black"/>
<path d="M18.9894 11.436V13.291H5.72162V11.436H18.9894Z" fill="black"/>
</svg>
