<svg width="24" height="20" viewBox="0 0 24 20" fill="none" xmlns="http://www.w3.org/2000/svg">
<path d="M15.3937 15.9458H12.4785C12.4785 15.3211 12.4785 14.7145 12.4785 14.1074C12.4785 13.3873 12.409 12.678 12.2105 11.9825C11.8047 10.56 11.0306 9.3773 9.87743 8.46016C8.26711 7.17931 6.42821 6.70779 4.40005 7.02569C3.34691 7.1935 2.34958 7.61218 1.49223 8.24638C1.39274 8.31903 1.29511 8.39445 1.19654 8.46756C1.17595 8.479 1.15462 8.48905 1.13269 8.49764L0.263672 7.44492C1.21737 6.65226 2.28674 6.1215 3.46348 5.80361V1.38172H2.10581V0H13.1577V1.36414H12.0222C12.5816 3.23405 13.1328 5.06832 13.6829 6.91278H16.7273V6.66337C16.7273 5.62268 16.724 4.58106 16.7273 3.54084C16.7305 2.50061 17.3103 1.72924 18.2853 1.45206C18.4445 1.40578 18.6134 1.3956 18.7943 1.36645V2.68386C18.6032 2.80972 18.4093 2.90273 18.2635 3.04479C18.1756 3.13086 18.1247 3.29281 18.1215 3.42145C18.1108 4.57829 18.115 5.73512 18.115 6.92342C18.5426 6.92342 18.9641 6.90029 19.3815 6.93036C19.7457 6.95674 20.1219 6.99376 20.4638 7.11175C21.5235 7.4787 22.2421 8.49394 22.2643 9.61607C22.2796 10.3944 22.2643 11.1736 22.2759 11.9519C22.2817 12.0768 22.3308 12.1958 22.4147 12.2884C23.6354 13.5317 23.994 15.3507 23.312 16.9004C22.6049 18.5084 21.0363 19.4848 19.2783 19.4108C17.4607 19.3344 15.8541 17.98 15.4455 16.1795L15.3937 15.9458ZM4.86695 5.56622C4.9743 5.56021 5.05806 5.55466 5.14181 5.55095C6.52359 5.48 7.90093 5.75884 9.14631 6.36166C9.52436 6.54167 9.87743 6.81283 10.274 6.90445C10.683 6.997 11.131 6.92527 11.5622 6.92527H12.2401C11.6793 5.05213 11.1296 3.21785 10.5822 1.38681H4.86695V5.56622ZM19.5009 18.03C20.0501 18.0307 20.5871 17.8685 21.0441 17.564C21.5011 17.2595 21.8575 16.8263 22.0683 16.3192C22.2791 15.8121 22.3348 15.2539 22.2283 14.7152C22.1218 14.1765 21.858 13.6814 21.4701 13.2926C21.0822 12.9039 20.5878 12.6389 20.0493 12.5311C19.5108 12.4234 18.9525 12.4777 18.4449 12.6873C17.9373 12.8969 17.5033 13.2524 17.1977 13.7087C16.8921 14.165 16.7287 14.7016 16.7282 15.2508C16.7286 15.9866 17.0206 16.6923 17.5403 17.2133C18.06 17.7342 18.7651 18.0279 19.5009 18.03V18.03ZM11.7779 8.31255C12.0805 8.73965 12.3868 9.11909 12.6335 9.53416C12.8801 9.94924 13.0865 10.4069 13.2868 10.8557C13.3627 11.0256 13.4391 11.095 13.6344 11.094C15.5195 11.0852 17.4047 11.0876 19.2899 11.0908C19.5436 11.0893 19.7971 11.1048 20.0488 11.1371C20.3264 11.1741 20.5976 11.244 20.8817 11.3023V9.8826C20.8817 8.87014 20.3232 8.31347 19.3084 8.31347H11.7779V8.31255ZM13.8532 14.5595C14.3285 14.5595 14.7653 14.5539 15.2012 14.5627C15.3483 14.5655 15.3978 14.5164 15.4511 14.3744C15.6246 13.9014 15.8212 13.4355 16.0313 12.9778C16.1114 12.8048 16.2557 12.6613 16.3811 12.4901H13.7644C13.7949 12.8404 13.8357 13.1759 13.85 13.5127C13.8643 13.8496 13.8532 14.1893 13.8532 14.5604V14.5595Z" fill="black"/>
<path d="M19.5039 15.9468C19.3664 15.9478 19.2317 15.9079 19.1169 15.8323C19.0021 15.7566 18.9123 15.6486 18.859 15.5218C18.8057 15.3951 18.7912 15.2554 18.8174 15.1204C18.8436 14.9854 18.9093 14.8613 19.0062 14.7637C19.103 14.6661 19.2267 14.5995 19.3615 14.5723C19.4963 14.5451 19.6361 14.5586 19.7632 14.6109C19.8903 14.6633 19.9991 14.7523 20.0755 14.8665C20.152 14.9808 20.1929 15.1152 20.1929 15.2527C20.1918 15.4356 20.119 15.6107 19.9902 15.7405C19.8614 15.8703 19.6867 15.9444 19.5039 15.9468Z" fill="black"/>
<path d="M5.56321 11.7852C6.69737 11.7945 7.63395 12.7394 7.62978 13.8675C7.62562 15.0105 6.66128 15.9651 5.53221 15.9438C4.39157 15.9225 3.46148 14.9721 3.47675 13.8481C3.49202 12.7107 4.43692 11.776 5.56321 11.7852ZM5.55812 13.1734C5.42066 13.1719 5.28583 13.2112 5.17072 13.2863C5.05562 13.3615 4.96544 13.4692 4.9116 13.5957C4.85776 13.7222 4.8427 13.8618 4.86833 13.9969C4.89396 14.1319 4.95911 14.2563 5.05554 14.3543C5.15196 14.4523 5.27532 14.5195 5.40995 14.5473C5.54459 14.575 5.68445 14.5622 5.81179 14.5104C5.93913 14.4586 6.04823 14.3702 6.12524 14.2563C6.20225 14.1424 6.24371 14.0082 6.24436 13.8708C6.24426 13.6878 6.17228 13.5121 6.04392 13.3817C5.91556 13.2513 5.7411 13.1765 5.55812 13.1734V13.1734Z" fill="black"/>
<path d="M5.55281 19.4181C4.45457 19.4181 3.38099 19.0924 2.46783 18.4823C1.55468 17.8721 0.842963 17.0049 0.422685 15.9903C0.00240594 14.9756 -0.107558 13.8591 0.106698 12.782C0.320954 11.7049 0.849808 10.7155 1.62638 9.93888C2.40295 9.16231 3.39237 8.63345 4.46951 8.4192C5.54665 8.20494 6.66313 8.31491 7.67777 8.73518C8.69242 9.15546 9.55965 9.86718 10.1698 10.7803C10.7799 11.6935 11.1056 12.7671 11.1056 13.8653C11.1041 15.3376 10.5186 16.7491 9.47761 17.7901C8.43658 18.8311 7.02505 19.4166 5.55281 19.4181ZM5.55281 9.7007C4.72913 9.7007 3.92394 9.94495 3.23908 10.4026C2.55421 10.8602 2.02042 11.5106 1.70522 12.2716C1.39001 13.0326 1.30753 13.8699 1.46823 14.6778C1.62892 15.4856 2.02556 16.2277 2.60799 16.8101C3.19042 17.3926 3.93248 17.7892 4.74033 17.9499C5.54819 18.1106 6.38555 18.0281 7.14653 17.7129C7.90751 17.3977 8.55794 16.8639 9.01555 16.179C9.47316 15.4942 9.71741 14.689 9.71741 13.8653C9.71606 12.7613 9.27682 11.703 8.49605 10.9225C7.71529 10.142 6.65679 9.70307 5.55281 9.70209V9.7007Z" fill="black"/>
</svg>
