<svg width="32" height="32" viewBox="0 0 32 32" fill="none" xmlns="http://www.w3.org/2000/svg">
<path d="M20.1154 0.000646134C20.1154 0.979539 20.1116 1.95779 20.1245 2.93668C20.1245 3.04523 20.1943 3.20353 20.2802 3.25134C20.8921 3.59057 21.1706 4.112 21.1505 4.79302C21.1421 5.07861 21.199 5.22011 21.5156 5.30993C22.5875 5.61296 23.2912 6.67779 23.1956 7.78979C23.18 7.97006 23.2246 8.06181 23.3894 8.15292C24.7411 8.90825 25.3763 10.0668 25.2509 11.6104C25.1217 13.1656 24.9627 14.7189 24.818 16.2729C24.8122 16.3343 24.818 16.3969 24.818 16.5074C25.0183 16.5074 25.2231 16.521 25.4247 16.5035C25.6076 16.488 25.6993 16.5623 25.729 16.731C25.8583 17.4482 26.1775 17.927 26.9509 18.1661C27.4187 18.3108 27.7456 18.3166 28.1508 18.0853C28.7161 17.7622 28.7284 17.7848 29.1904 18.2468C29.6246 18.6817 30.051 19.1243 30.4969 19.5462C30.6687 19.7084 30.7211 19.8421 30.5796 20.0469C30.1919 20.6059 30.0898 21.1325 30.4503 21.8096C30.6849 22.2541 30.8936 22.53 31.3788 22.656C31.9998 22.8176 31.9914 22.8499 31.9914 23.4792C31.9914 24.1253 31.9836 24.7715 31.9959 25.4176C31.9998 25.6069 31.941 25.7084 31.7581 25.7407C31.037 25.8654 30.5595 26.2027 30.3366 26.9729C30.2132 27.3941 30.1602 27.6991 30.3799 28.0868C30.7405 28.7232 30.7178 28.7362 30.2029 29.2498C29.7758 29.6776 29.3435 30.0995 28.9261 30.535C28.7891 30.6778 28.6677 30.7288 28.5016 30.6067C27.9143 30.1867 27.3502 30.0898 26.6543 30.4697C26.2602 30.6842 25.9946 30.8645 25.8731 31.3065C25.6825 32.0011 25.6567 31.994 24.9543 31.994C24.3399 31.994 23.7267 31.9849 23.1116 31.9998C22.908 32.0043 22.8008 31.9429 22.7652 31.7458C22.6392 31.0545 22.333 30.5873 21.5815 30.3541C21.1111 30.2087 20.7751 30.1732 20.3539 30.4187C19.7885 30.7482 19.7723 30.7217 19.3123 30.261C18.8929 29.841 18.4807 29.4133 18.051 29.0049C17.8682 28.8311 17.7338 28.6761 17.9864 28.3775H17.6039C15.3347 28.3775 13.0653 28.3775 10.7956 28.3775C9.53887 28.3775 8.59552 27.7586 8.23304 26.6298C8.08313 26.162 8.056 25.6502 8.00818 25.1553C7.80465 23.0631 7.61469 20.9696 7.41891 18.8768C7.40986 18.785 7.38789 18.6939 7.36657 18.5725C7.08098 18.5725 6.80056 18.586 6.5266 18.5647C6.47683 18.5565 6.42959 18.5371 6.38849 18.5079C6.34739 18.4786 6.31352 18.4404 6.28947 18.3961C6.13569 18.0381 6.11113 17.5903 5.87723 17.3306C5.64979 17.0812 5.1975 17.0515 4.87379 16.8712C4.58367 16.7103 4.34977 16.7155 4.07323 16.8854C3.8193 17.0411 3.51367 17.2796 3.27137 17.2395C3.02907 17.1994 2.82683 16.8641 2.61296 16.6528C2.22076 16.2651 1.8376 15.8684 1.43959 15.4852C1.31553 15.3657 1.26901 15.2604 1.37497 15.1118C1.80917 14.5057 1.90545 13.9132 1.51001 13.2083C1.31036 12.8522 1.17144 12.5621 0.741762 12.4827C0.488477 12.4368 0.246823 12.3282 0 12.2481V9.4342C0.15701 9.38122 0.31079 9.30497 0.472324 9.27783C1.04738 9.17574 1.4538 8.91729 1.55331 8.28279C1.58303 8.09605 1.73099 7.93065 1.79367 7.74521C1.83213 7.63496 1.83213 7.51494 1.79367 7.40469C1.66444 7.10941 1.50291 6.83028 1.3711 6.53629C1.33685 6.46005 1.3291 6.31596 1.37562 6.26814C1.9972 5.62718 2.63106 4.99849 3.25651 4.37174C3.50011 4.49257 3.73142 4.57398 3.92397 4.71031C4.29937 4.97588 4.61986 4.86151 5.03726 4.74327C5.79323 4.52358 6.12599 4.05707 6.2507 3.34439C6.27719 3.19319 6.34245 3.09304 6.53823 3.09563C7.33879 3.1079 8.13999 3.09563 8.94055 3.1092C8.99536 3.11808 9.04731 3.13973 9.0922 3.17239C9.1371 3.20505 9.17368 3.24781 9.19901 3.29722C9.32113 3.5938 9.40448 3.90652 9.51367 4.20956C9.5434 4.29097 9.59509 4.395 9.66487 4.42602C10.0325 4.59078 10.4092 4.73551 10.8053 4.89576C10.8221 4.75231 10.8376 4.63084 10.8499 4.50808C10.9042 3.95822 11.1768 3.54598 11.6614 3.29334C11.8294 3.20612 11.874 3.10855 11.8727 2.93345C11.8662 1.95585 11.8727 0.9776 11.8727 0H14.9296C14.9386 0.881326 14.9479 1.76265 14.9573 2.64398C14.9573 2.78484 14.9573 2.92634 14.9573 3.07237H17.025C17.025 2.7661 17.025 2.48697 17.025 2.20784C17.034 1.47254 17.0441 0.736808 17.0553 0.000646134H20.1154ZM15.9918 6.18996C14.4506 6.18996 12.9095 6.18996 11.3687 6.18996C10.2936 6.18996 9.67779 6.92849 9.83351 7.98427C10.0041 9.13698 10.1501 10.2936 10.3084 11.4476C10.5766 13.406 10.8408 15.3651 11.1167 17.3222C11.2208 18.0607 11.7629 18.5595 12.4936 18.5628C14.8258 18.5744 17.1579 18.5744 19.49 18.5628C20.2078 18.5589 20.7499 18.0665 20.863 17.3526C20.9573 16.7562 21.0323 16.1572 21.1137 15.5595C21.4562 13.0441 21.7902 10.5281 22.1436 8.014C22.2994 6.90911 21.703 6.18996 20.5832 6.18867C19.0528 6.18824 17.5223 6.18867 15.9918 6.18996ZM23.0489 9.12922C23.023 9.24165 23.0043 9.2998 22.9965 9.35925C22.6356 12.0174 22.2755 14.6759 21.9162 17.3345C21.8251 18.0084 21.5854 18.619 21.0155 19.0144C20.7202 19.2205 20.6343 19.4506 20.6155 19.7846C20.5063 21.7172 20.3784 23.6478 20.2589 25.5798C20.2233 26.1581 20.1943 26.737 20.1607 27.3405C20.613 27.3405 21.0265 27.3709 21.4368 27.334C22.2606 27.2604 22.7898 26.737 22.8725 25.9093C23.0864 23.7564 23.2841 21.6015 23.4876 19.448C23.6677 17.5324 23.8473 15.6166 24.0265 13.7006C24.1014 12.893 24.2022 12.0853 24.2326 11.2757C24.2675 10.3653 23.8456 9.66616 23.0489 9.12922ZM11.8062 27.3399C11.81 27.2488 11.8184 27.1867 11.8146 27.1253C11.6601 24.5918 11.5076 22.0577 11.339 19.5242C11.33 19.3879 11.2143 19.2199 11.098 19.1365C10.5475 18.734 10.2063 18.2068 10.112 17.5354C9.79733 15.2908 9.493 13.0448 9.18414 10.7995C9.10984 10.2574 9.0336 9.71591 8.95154 9.12405C8.81585 9.22033 8.72022 9.27848 8.63622 9.3502C7.97006 9.91815 7.67865 10.6425 7.7549 11.5122C7.85892 12.6933 7.97587 13.8731 8.08636 15.0536C8.2858 17.1768 8.48546 19.2998 8.68533 21.4226C8.82683 22.9242 8.96187 24.4264 9.11565 25.9268C9.19901 26.7351 9.72431 27.2591 10.5333 27.334C10.941 27.3709 11.3577 27.3399 11.8029 27.3399H11.8062ZM19.6011 19.6431H12.3825C12.5434 22.2212 12.7056 24.7734 12.8639 27.3405H19.1191C19.28 24.7663 19.4402 22.2076 19.6011 19.6431ZM24.5117 19.6134L24.9976 19.6832C27.597 20.0637 29.3991 22.7458 28.7704 25.2968C28.0422 28.2483 24.9582 29.7086 22.2037 28.4099C22.0835 28.3557 21.9531 28.3282 21.8212 28.3291C21.5938 28.3291 21.3689 28.3743 21.1389 28.3769C20.5251 28.3847 19.9113 28.3769 19.2968 28.3834C19.2192 28.3916 19.1453 28.4206 19.0829 28.4674C19.0807 28.5232 19.0986 28.578 19.1333 28.6218C19.404 28.8945 19.6418 29.2718 19.9733 29.39C20.1891 29.4669 20.5399 29.1671 20.8307 29.036C20.8404 29.0314 20.8488 29.0205 20.8572 29.0205C20.9696 29.0237 21.0963 28.9965 21.1912 29.0392C21.5511 29.2001 21.8839 29.4611 22.2574 29.5419C22.9739 29.697 23.4572 30.0142 23.5451 30.7902C23.5589 30.8301 23.5825 30.8658 23.6138 30.894C23.6451 30.9223 23.683 30.9421 23.7241 30.9517C24.1079 30.9614 24.5363 31.048 24.86 30.9046C25.0577 30.8173 25.0771 30.3567 25.2102 30.0801C25.2766 29.9539 25.3839 29.8539 25.5145 29.7965C25.8693 29.6511 26.246 29.558 26.5987 29.4088C26.9031 29.2796 27.1854 28.9869 27.4807 28.983C27.776 28.9791 28.0745 29.2479 28.3782 29.3816C28.4428 29.4114 28.572 29.4088 28.6186 29.3648C28.8964 29.0999 29.2615 28.8583 29.3881 28.5281C29.4656 28.3259 29.1697 27.9808 29.0411 27.6998C29.0376 27.6899 29.0328 27.6806 29.0269 27.672C28.9184 27.5356 28.9662 27.4206 29.0424 27.2785C29.2363 26.9225 29.4773 26.5677 29.5593 26.1846C29.706 25.4887 30.0349 25.0571 30.7657 24.975C30.8341 24.9673 30.944 24.8665 30.9453 24.807C30.955 24.4129 31.0248 23.9871 30.8968 23.6375C30.8322 23.4605 30.3935 23.4204 30.1215 23.3196C30.0924 23.3086 30.0517 23.3119 30.0329 23.2925C29.9483 23.204 29.8391 23.1232 29.7945 23.0166C29.642 22.6289 29.5865 22.1863 29.361 21.8535C28.9533 21.2539 28.9345 20.7196 29.3648 20.1484C29.4062 20.0928 29.4146 19.9487 29.3739 19.9061C29.1032 19.6192 28.857 19.26 28.5165 19.1094C28.3362 19.0299 27.9821 19.3097 27.7217 19.4551C27.546 19.5527 27.4187 19.5494 27.2404 19.4467C26.8992 19.2528 26.549 19.017 26.1749 18.9453C25.4674 18.809 25.0577 18.4594 24.9692 17.737C24.9608 17.6724 24.8606 17.6162 24.8025 17.5561C24.7624 17.6278 24.6946 17.6963 24.6868 17.7713C24.6203 18.3702 24.5686 18.9711 24.5098 19.6108L24.5117 19.6134ZM3.40512 5.60069C3.34627 5.6945 3.28152 5.7845 3.21128 5.87012C2.99741 6.1079 2.64463 6.31466 2.59487 6.58087C2.549 6.82769 2.83782 7.12879 2.94766 7.42085C2.98969 7.54744 2.98534 7.68485 2.93539 7.80853C2.77256 8.1891 2.49601 8.54189 2.41848 8.93603C2.28537 9.62804 1.93582 10.0209 1.23347 10.121C1.15981 10.1314 1.04544 10.2438 1.04286 10.3149C1.03123 10.698 0.953693 11.1213 1.09067 11.4514C1.1695 11.6401 1.6121 11.6776 1.89123 11.7835C1.91062 11.7913 1.93582 11.7926 1.94874 11.8062C2.03403 11.8934 2.15098 11.9696 2.19298 12.0749C2.34547 12.4626 2.40168 12.9039 2.62589 13.238C3.02843 13.8376 3.06074 14.3726 2.62589 14.9444C2.58324 15.0006 2.57226 15.146 2.61232 15.188C2.88305 15.4743 3.1331 15.8264 3.47103 15.9841C3.63967 16.0635 3.97889 15.7786 4.24058 15.6578C4.25015 15.6538 4.25925 15.6489 4.26771 15.6429C4.43054 15.5305 4.57075 15.5427 4.74908 15.6494C5.05987 15.8354 5.38165 16.0441 5.72668 16.1223C6.44066 16.2845 6.95757 16.5888 7.03252 17.3894C7.03833 17.454 7.13849 17.5083 7.19535 17.5671L7.27547 17.5219C7.22313 16.9339 7.15787 16.3472 7.12556 15.7586C7.11264 15.5175 7.02735 15.4303 6.79216 15.3754C4.89059 14.9263 3.65389 13.7594 3.22808 11.8624C2.80874 10.0067 3.38251 8.41589 4.86086 7.21021C6.0168 6.26814 7.36334 6.00129 8.8236 6.325C8.93538 6.3502 9.10661 6.3418 9.17704 6.27331C9.38962 6.0672 9.56472 5.82102 9.75856 5.59358C9.75404 5.58906 9.74822 5.57936 9.74047 5.57613C9.4174 5.46048 9.01615 5.42623 8.79905 5.20719C8.58195 4.98815 8.55546 4.58238 8.43205 4.26384C8.41573 4.23043 8.39179 4.20133 8.36216 4.17889C8.33253 4.15644 8.29804 4.14127 8.26147 4.13461C7.87379 4.1275 7.44863 4.03834 7.12492 4.18049C6.93108 4.26707 6.89683 4.72259 6.79087 5.01206C6.78876 5.02228 6.78458 5.03195 6.77859 5.04049C6.68102 5.1303 6.59832 5.25242 6.48331 5.30282C5.90179 5.55481 5.31251 5.77514 4.73874 6.03618C4.56817 6.11372 4.44475 6.13633 4.28128 6.04523C4.01831 5.89791 3.74499 5.77127 3.40512 5.60069ZM23.129 27.6494C24.3676 28.1417 25.9229 27.7508 26.8727 26.7293C27.9065 25.6173 28.1514 24.0627 27.5046 22.7045C26.9289 21.4943 25.5837 20.6084 24.4329 20.6937C24.4125 20.7705 24.3963 20.8484 24.3844 20.927C24.2727 22.1178 24.1822 23.3112 24.0485 24.4988C23.9212 25.5979 24.0588 26.7777 23.129 27.6494ZM6.97566 14.3364C6.89166 13.4118 6.80443 12.513 6.72948 11.6136C6.61253 10.2173 7.12879 9.09369 8.2983 8.33706C8.66853 8.0967 8.86431 7.88477 8.77837 7.45509C8.77356 7.43645 8.76707 7.41829 8.75899 7.40082C6.94982 6.74305 4.76976 7.93969 4.25414 9.87034C3.72173 11.8727 4.98104 13.9688 6.97566 14.3364ZM18.0401 4.14882H13.9429V5.14646H18.0401V4.14882ZM12.9201 1.05772V3.08012H13.9022V1.05772H12.9201ZM18.0756 1.04932V3.08077H19.0616V1.04932H18.0756ZM11.8863 5.14581H12.8678V4.15399C12.0116 4.05255 11.8049 4.26061 11.8863 5.14581ZM19.1055 5.14581H20.0922C20.1846 4.27611 19.9035 4.00151 19.1049 4.17079L19.1055 5.14581Z" fill="black"/>
<path d="M11.3726 11.3409V7.24768H20.609V11.3409H11.3726ZM19.5978 8.27439H12.3909V10.2903H19.5978V8.27439Z" fill="black"/>
<path d="M18.0368 15.471H13.9539V12.4006H18.0394L18.0368 15.471ZM17.003 14.4282V13.4402H14.9754V14.4275L17.003 14.4282Z" fill="black"/>
<path d="M13.4332 17.527V16.5275H14.4172V17.527H13.4332Z" fill="black"/>
<path d="M16.4873 16.5313V17.5315H15.5046V16.5313H16.4873Z" fill="black"/>
<path d="M17.5638 17.5335V16.5255H18.546V17.5335H17.5638Z" fill="black"/>
<path d="M18.5524 23.2492V26.286H13.437V23.2492H18.5524ZM14.4559 25.2716H17.5225V24.2739H14.4559V25.2716Z" fill="black"/>
</svg>
