<svg width="34" height="23" viewBox="0 0 34 23" fill="none" xmlns="http://www.w3.org/2000/svg">
<path d="M32.4146 17.0646C31.912 17.2211 32.1218 17.6829 32.0381 18.0187H29.9967C29.9967 16.7124 29.9967 15.4318 29.9967 14.1521C29.9967 13.4116 29.6249 13.0414 28.8829 13.0328C28.5941 13.0328 28.3053 13.0328 27.9945 13.0328V12.6195C27.9945 10.2972 28.0094 7.97405 27.9836 5.65328C27.9836 5.11275 27.9013 4.57537 27.7394 4.05966C27.1155 2.17408 25.4382 1.01096 23.4031 1.00391C21.368 0.996869 19.3415 1.00391 17.3104 1.00391C13.4291 1.0013 9.54472 1 5.6572 1C2.9482 1.0047 1.00391 2.94506 1 5.64389C1 8.54883 1 11.4546 1 14.3611C1 15.0467 1.09941 15.7144 1.40075 16.332C2.25236 18.0821 3.67769 18.9596 5.61806 18.9776C7.4512 18.9948 9.28433 18.9776 11.1175 18.9776H11.5206C11.5527 19.8072 11.8235 20.5258 12.3988 21.1011C12.6727 21.3818 13.0006 21.6041 13.3627 21.7546C13.7249 21.9051 14.1137 21.9808 14.5059 21.977C15.1258 21.9834 15.7307 21.7862 16.2279 21.4157C17.0325 20.8217 17.4293 20.0068 17.4716 18.983H17.8951C22.5084 18.983 27.1218 18.9776 31.7352 18.9901C32.3308 18.9901 32.7636 18.8085 33 18.2457V17.3691C32.8623 17.1546 32.6932 16.9793 32.4146 17.0646ZM16.5253 19.0527C16.4901 20.1759 15.5508 21.0831 14.4628 21.0439C13.3388 21.004 12.4277 20.0655 12.4645 18.9807C12.4741 18.4422 12.6972 17.9296 13.0847 17.5555C13.4722 17.1815 13.9924 16.9768 14.5309 16.9863C15.0694 16.9959 15.5821 17.2189 15.9561 17.6065C16.3301 17.994 16.5348 18.5142 16.5253 19.0527ZM18.5189 18.043C18.1455 18.043 17.7925 18.0563 17.4426 18.0336C17.3644 18.0281 17.2611 17.9138 17.2204 17.8262C16.4165 16.1097 14.4417 15.5218 12.8622 16.5394C12.3827 16.8412 12.0092 17.285 11.7937 17.809C11.7155 17.9913 11.6184 18.0493 11.4219 18.0485C9.46514 18.0406 7.50833 18.0563 5.55153 18.0406C3.3239 18.0226 1.69741 16.1801 1.97605 13.9705H2.36742C6.32016 13.9705 13.7443 13.9705 17.9506 13.9705H18.0453C18.2019 13.9705 18.3537 13.9705 18.5251 13.9705L18.5189 18.043ZM23.5283 18.0226H19.4926V10.9875H23.5283V18.0226ZM23.5322 10.0013H19.5036V7.97092H23.5322V10.0013ZM21.4024 4.96527C22.5836 4.87839 23.5471 5.85053 23.5291 7.00035H19.5231C19.3987 5.9969 20.255 5.05059 21.4024 4.96527ZM24.4871 7.17568C24.4871 6.37026 24.2797 5.63215 23.7256 5.02241C22.971 4.19272 22.0184 3.86789 20.9344 4.08314C19.8746 4.29135 19.1044 4.9277 18.7427 5.96168C18.611 6.36602 18.5444 6.78876 18.5455 7.21403C18.5251 9.01429 18.5369 10.8146 18.5369 12.6148V13.0289C18.1346 13.0289 17.7636 13.0289 17.3925 13.0289H1.93927V12.6939C1.93927 10.341 1.93927 7.98762 1.93927 5.63372C1.93927 3.46949 3.46871 1.93927 5.63919 1.93927C11.543 1.93927 17.4473 1.93927 23.3522 1.93927C25.5203 1.93927 27.0521 3.46871 27.0553 5.63372C27.0594 7.98658 27.0594 10.34 27.0553 12.6939V13.0124H24.4879V12.6414C24.4879 10.8203 24.4877 8.99838 24.4871 7.17568ZM24.5153 17.8653V13.9846H27.0114C27.265 15.6643 26.2037 17.4082 24.5153 17.8653ZM29.0395 18.0164H26.2819C27.5562 16.9394 28.065 15.5978 27.9883 13.9955H29.0387L29.0395 18.0164Z" fill="black" stroke="black" stroke-width="0.5"/>
<path d="M13.8601 6.01333C11.2787 6.00654 8.69573 6.00654 6.11118 6.01333C5.10225 6.01333 4.5066 6.62855 4.50269 7.63826C4.50269 8.51256 4.50269 9.38686 4.50269 10.2612C4.50269 11.3773 5.0772 11.9597 6.18867 11.9628C7.45824 11.9628 8.7286 11.9628 9.99818 11.9628C11.2678 11.9628 12.5592 11.9683 13.8398 11.9628C14.8675 11.9565 15.4491 11.3765 15.4577 10.3582C15.4647 9.44243 15.4663 8.52587 15.4577 7.61008C15.4506 6.61211 14.8589 6.01568 13.8601 6.01333ZM9.49958 11.004C9.39 11.011 9.2906 11.0243 9.1865 11.0243C8.18879 11.0243 7.19055 11.0243 6.1918 11.0243C5.61493 11.0243 5.44039 10.8505 5.4396 10.2862C5.4396 9.39156 5.43569 8.4969 5.4396 7.60304C5.4396 7.19132 5.61885 6.96355 5.99925 6.95807C7.15142 6.94164 8.30437 6.95181 9.4941 6.95181L9.49958 11.004ZM14.5239 10.3058C14.5239 10.8537 14.3548 11.022 13.8194 11.0235C12.8019 11.0282 11.7797 11.0235 10.7598 11.0235C10.669 11.0235 10.5782 11.0118 10.4702 11.0047V6.96668C10.5711 6.96042 10.6713 6.94946 10.7707 6.94946C11.7705 6.94946 12.7695 6.94946 13.7678 6.94946C14.3579 6.94946 14.5239 7.11931 14.5247 7.71575C14.5254 8.57831 14.527 9.44243 14.5239 10.3058Z" fill="black" stroke="black" stroke-width="0.5"/>
<path d="M14.5168 18.5517C14.4571 18.5478 14.3973 18.556 14.3408 18.5757C14.2844 18.5955 14.2325 18.6264 14.1883 18.6667C14.1441 18.7069 14.1084 18.7557 14.0835 18.8101C14.0586 18.8644 14.0449 18.9232 14.0432 18.983C14.0401 19.0435 14.049 19.1039 14.0694 19.1609C14.0897 19.2179 14.1213 19.2702 14.162 19.3149C14.2028 19.3596 14.2521 19.3958 14.307 19.4213C14.3618 19.4468 14.4212 19.4612 14.4817 19.4636C14.5422 19.4659 14.6025 19.4563 14.6592 19.4352C14.7159 19.4141 14.7679 19.3819 14.8121 19.3405C14.8563 19.2992 14.8918 19.2495 14.9166 19.1943C14.9414 19.1391 14.955 19.0795 14.9567 19.019C14.959 18.9593 14.9494 18.8998 14.9284 18.8438C14.9075 18.7879 14.8756 18.7367 14.8346 18.6932C14.7937 18.6497 14.7445 18.6148 14.6899 18.5905C14.6354 18.5662 14.5765 18.553 14.5168 18.5517V18.5517Z" fill="black" stroke="black" stroke-width="0.5"/>
</svg>
