<svg width="32" height="32" viewBox="0 0 32 32" fill="none" xmlns="http://www.w3.org/2000/svg">
<path d="M0.140876 22.6534C0.274746 22.6443 0.407784 22.6277 0.541654 22.6277C3.2706 22.6277 5.99955 22.6277 8.7285 22.6194C8.9323 22.6166 9.13225 22.5635 9.31054 22.4647C10.843 21.5958 12.3671 20.7119 13.8937 19.8322C13.981 19.7815 14.06 19.7233 14.1856 19.6443L6.21989 15.052L14.1498 10.5894C14.0309 10.5129 13.9577 10.4605 13.8796 10.4164C12.3172 9.53753 10.7565 8.65449 9.18831 7.78559C9.00946 7.68833 8.80982 7.63557 8.60627 7.63176C6.54334 7.62012 4.47543 7.62511 2.41001 7.62511H2.02836V0.143371H3.88258V1.96599H7.63093V0.140876H9.50344V1.97015H22.641V0.136719H24.5151V1.9768H28.2668V0.145034H30.1294V7.62844H29.7751C27.6964 7.62844 25.6244 7.62844 23.549 7.63426C23.3553 7.63797 23.1654 7.68816 22.9952 7.7806C21.427 8.64618 19.8621 9.53255 18.2989 10.4064C18.2158 10.4522 18.1426 10.5021 18.0071 10.5852L25.9428 15.0511L17.9788 19.6435C18.0786 19.7083 18.1518 19.7615 18.2283 19.8098C19.7723 20.7011 21.3139 21.595 22.8638 22.4755C23.0351 22.5695 23.2272 22.6192 23.4226 22.6202C26.1407 22.6293 28.8588 22.6268 31.5778 22.6268H32.0002V30.1235H31.6842C30.5734 30.1235 29.4633 30.1186 28.3533 30.1302C28.2485 30.1302 28.0889 30.2084 28.049 30.2965C27.6249 31.2111 26.9281 31.7649 25.9345 31.9453C25.9071 31.9503 25.8829 31.9769 25.8572 31.9936H25.1088C25.0726 31.974 25.0344 31.9584 24.9949 31.947C24.0013 31.7732 23.2904 31.2278 22.8846 30.3073C22.8056 30.1285 22.6967 30.1244 22.547 30.1244C18.2366 30.1244 13.9261 30.1244 9.61569 30.1244C9.41697 30.1244 9.32883 30.1901 9.2515 30.3672C8.98882 30.9854 8.49414 31.4759 7.87373 31.7333C7.60361 31.8342 7.32827 31.9205 7.04889 31.9919H6.30055C6.27477 31.9753 6.25149 31.9487 6.22405 31.9437C5.23208 31.7624 4.53363 31.2128 4.10957 30.2973C4.07488 30.2486 4.02965 30.2084 3.97725 30.1796C3.92484 30.1508 3.86662 30.1342 3.80691 30.131C2.58379 30.1202 1.35984 30.1244 0.136719 30.1244L0.140876 22.6534ZM28.1047 28.2244H30.1294V24.5268H2.03833V28.251C2.64449 28.251 3.22487 28.2435 3.80442 28.2552C3.98818 28.2593 4.06717 28.1937 4.14533 28.029C4.6517 26.9631 5.50897 26.4001 6.6847 26.3935C7.86042 26.3868 8.74596 26.9423 9.25649 28.024C9.33964 28.2061 9.43859 28.2552 9.629 28.2552C13.9245 28.2502 18.2205 28.2502 22.5171 28.2552C22.72 28.2552 22.8206 28.2011 22.9104 28.0057C23.0878 27.6237 23.3485 27.2863 23.6734 27.0183C23.9983 26.7503 24.3792 26.5586 24.788 26.4571C25.1967 26.3557 25.6231 26.3471 26.0356 26.4321C26.4481 26.517 26.8363 26.6934 27.1718 26.9481C27.5953 27.2793 27.9183 27.7218 28.1047 28.2261V28.2244ZM28.2535 3.89006H3.91002V5.71934H28.2535V3.89006ZM10.0356 15.0703C10.0741 15.1 10.114 15.1278 10.1553 15.1534C12.0666 16.256 13.9774 17.3594 15.8876 18.4636C16.0539 18.5609 16.1662 18.5226 16.31 18.4386C18.1853 17.3544 20.0611 16.2734 21.9375 15.1958C21.9949 15.1634 22.049 15.1235 22.1263 15.0728C22.0473 15.0204 21.9999 14.9821 21.9475 14.953C20.0628 13.8909 18.1764 12.828 16.2884 11.7643C16.1121 11.6645 15.9882 11.7044 15.8344 11.7917C13.9946 12.8311 12.1531 13.8679 10.31 14.9023C10.2219 14.9514 10.1379 15.0071 10.0356 15.0703ZM19.3017 22.6061C19.1745 22.5229 19.1096 22.4822 19.0423 22.4398C18.136 21.9176 17.2271 21.4012 16.3275 20.8682C16.1387 20.756 16.0049 20.7701 15.8236 20.8774C14.9231 21.4087 14.0143 21.9259 13.1088 22.4497C13.0456 22.4863 12.9866 22.5329 12.8843 22.6036L19.3017 22.6061ZM12.8161 7.64423C12.9125 7.71408 12.9408 7.73986 12.9741 7.75815C13.9494 8.30693 14.9223 8.85904 15.9051 9.39369C15.9671 9.41823 16.0337 9.42928 16.1004 9.42613C16.167 9.42298 16.2323 9.40568 16.2917 9.37539C17.2371 8.85821 18.1734 8.32522 19.1121 7.79557C19.1695 7.76314 19.2227 7.72406 19.3449 7.64423H12.8161ZM6.71546 28.2552C6.5907 28.2523 6.46663 28.2745 6.35066 28.3206C6.23469 28.3667 6.12921 28.4357 6.0405 28.5235C5.95179 28.6113 5.88168 28.716 5.83436 28.8315C5.78704 28.947 5.76347 29.0708 5.76507 29.1956C5.77257 29.442 5.87508 29.6759 6.05115 29.8484C6.22721 30.0209 6.46317 30.1186 6.70964 30.121C6.95043 30.1189 7.18112 30.024 7.35378 29.8561C7.52644 29.6883 7.62778 29.4603 7.63675 29.2197C7.64357 29.0949 7.62474 28.97 7.58142 28.8528C7.5381 28.7355 7.47121 28.6284 7.38488 28.538C7.29854 28.4477 7.1946 28.3759 7.07947 28.3273C6.96433 28.2786 6.84045 28.2541 6.71546 28.2552V28.2552ZM25.4606 30.121C25.7066 30.1157 25.941 30.0153 26.1146 29.8409C26.2882 29.6665 26.3876 29.4317 26.3918 29.1856C26.3922 29.0609 26.3675 28.9374 26.3191 28.8225C26.2707 28.7076 26.1996 28.6036 26.1101 28.5167C26.0207 28.4299 25.9146 28.3619 25.7983 28.317C25.6819 28.2721 25.5577 28.2511 25.4331 28.2552C25.311 28.2558 25.1903 28.2808 25.078 28.3289C24.9657 28.3769 24.8642 28.4469 24.7794 28.5348C24.6946 28.6227 24.6283 28.7266 24.5843 28.8405C24.5404 28.9545 24.5197 29.076 24.5235 29.1981C24.5272 29.4442 24.6275 29.6789 24.8029 29.8516C24.9782 30.0243 25.2144 30.1211 25.4606 30.121V30.121Z" fill="black"/>
</svg>
