<svg width="33" height="26" viewBox="0 0 33 26" fill="none" xmlns="http://www.w3.org/2000/svg">
<path d="M32.0763 24.0087V24.4505C31.9913 24.6981 31.8232 24.9087 31.6006 25.0464C31.378 25.184 31.1145 25.2404 30.855 25.2058H0.983191C0.728701 25.2059 0.484134 25.1071 0.301208 24.9301C0.118282 24.7532 0.0113399 24.5121 0.00299601 24.2577C0.00505695 24.0083 0.104506 23.7696 0.280126 23.5924C0.455745 23.4153 0.693628 23.3138 0.943019 23.3097C1.40901 23.3097 1.88304 23.3097 2.34904 23.3097H2.87127V5.07964H1.07157C0.929306 5.09296 0.78585 5.07501 0.65125 5.02706C0.51665 4.97911 0.394161 4.90231 0.292363 4.80204C0.190565 4.70177 0.111919 4.58046 0.0619338 4.44661C0.0119486 4.31275 -0.00816696 4.16958 0.00299601 4.02713V1.24723C0.00299601 0.347382 0.34044 0.00993752 1.23226 0.00993752H30.855C31.1145 -0.024655 31.378 0.0316775 31.6006 0.169359C31.8232 0.30704 31.9913 0.517574 32.0763 0.76517V4.34047C31.9845 4.59096 31.8085 4.80171 31.5783 4.93658C31.3482 5.07145 31.0782 5.12203 30.8149 5.07964C30.2846 5.07964 29.7543 5.07964 29.208 5.07964V23.3097C29.7543 23.3097 30.2846 23.3097 30.8149 23.3097C31.0733 23.2646 31.3394 23.3094 31.5689 23.4366C31.7984 23.5638 31.9774 23.7656 32.0763 24.0087V24.0087ZM27.2556 23.2534V5.0957H4.82363V23.2534H27.2556Z" fill="black"/>
<path d="M16.0718 13.2988H7.83655C7.70672 13.3156 7.57483 13.3057 7.44894 13.2698C7.32305 13.2339 7.20579 13.1727 7.1043 13.09C7.00281 13.0073 6.91923 12.9048 6.85865 12.7888C6.79806 12.6728 6.76175 12.5456 6.75191 12.415C6.72958 12.1848 6.79371 11.9544 6.93181 11.7688C7.06991 11.5832 7.27212 11.4555 7.49911 11.4107C7.65403 11.3948 7.81018 11.3948 7.9651 11.4107H24.1062C24.2504 11.3948 24.3959 11.3948 24.54 11.4107C24.7736 11.4446 24.9858 11.565 25.1346 11.7481C25.2835 11.9311 25.358 12.1635 25.3435 12.399C25.3326 12.6308 25.2377 12.8508 25.0766 13.0178C24.9154 13.1849 24.699 13.2876 24.4677 13.3069H16.0718V13.2988Z" fill="black"/>
<path d="M16.0718 15.0503H24.2749C24.4027 15.0359 24.532 15.0476 24.6551 15.0848C24.7781 15.1219 24.8924 15.1837 24.9908 15.2663C25.0893 15.349 25.1699 15.4508 25.2277 15.5656C25.2856 15.6804 25.3195 15.8058 25.3274 15.9341C25.3524 16.1744 25.2823 16.4149 25.1322 16.6041C24.982 16.7933 24.7637 16.9162 24.524 16.9464C24.3691 16.9629 24.2129 16.9629 24.058 16.9464H8.03743C7.87037 16.9533 7.70309 16.9398 7.53929 16.9062C7.31661 16.8652 7.11701 16.7432 6.97902 16.5636C6.84104 16.3841 6.77444 16.1598 6.7921 15.9341C6.7989 15.7127 6.88298 15.5008 7.02973 15.3349C7.17649 15.1691 7.37666 15.0599 7.59553 15.0262C7.7186 15.0182 7.84205 15.0182 7.96512 15.0262L16.0718 15.0503Z" fill="black"/>
<path d="M16.0718 9.73959H7.83653C7.12147 9.73959 6.69564 9.31376 6.75992 8.67101C6.78385 8.4662 6.87619 8.27546 7.022 8.12965C7.16781 7.98385 7.35855 7.89151 7.56336 7.86758C7.70787 7.85955 7.85271 7.85955 7.99722 7.86758H24.4597C24.7111 7.86758 24.9523 7.96746 25.1301 8.14526C25.3078 8.32305 25.4077 8.56419 25.4077 8.81563C25.4077 9.06707 25.3078 9.30822 25.1301 9.48601C24.9523 9.66381 24.7111 9.76369 24.4597 9.76369C24.2508 9.76369 24.0419 9.76369 23.833 9.76369L16.0718 9.73959Z" fill="black"/>
<path d="M16.0718 20.5137H7.94904C7.77399 20.5206 7.59873 20.5071 7.4268 20.4735C7.2167 20.4087 7.03534 20.2735 6.91328 20.0907C6.79121 19.9078 6.7359 19.6885 6.75665 19.4696C6.77741 19.2507 6.87296 19.0457 7.02723 18.889C7.18149 18.7324 7.38503 18.6337 7.60356 18.6095H24.4758C24.7272 18.6095 24.9684 18.7094 25.1462 18.8872C25.3239 19.065 25.4238 19.3062 25.4238 19.5576C25.4238 19.809 25.3239 20.0502 25.1462 20.228C24.9684 20.4058 24.7272 20.5057 24.4758 20.5057H16.0718V20.5137Z" fill="black"/>
</svg>
