<svg width="32" height="31" viewBox="0 0 32 31" fill="none" xmlns="http://www.w3.org/2000/svg">
<path d="M30.1856 4.81104C30.4996 4.63438 30.8461 4.50395 31.1333 4.29344C31.6218 3.936 31.8363 3.3953 32 2.83561V2.09265C31.9802 2.05721 31.9635 2.02021 31.9499 1.98203C31.6393 0.743779 30.7167 0.000825504 29.435 0.000825504C26.0183 0.000275168 22.6016 0 19.185 0C18.7249 0 18.5646 0.160148 18.5638 0.612524C18.5638 1.50792 18.5638 2.40387 18.5638 3.30036V3.96077H17.4975C14.8418 3.96077 12.1857 3.96077 9.52945 3.96077C8.98421 3.96077 8.8072 4.17787 8.92827 4.69216C9.33573 6.42407 9.74487 8.15763 10.1557 9.89284C10.4112 10.9718 10.6667 12.0515 10.9314 13.1668H1.65657C0.530202 13.1668 0 13.6951 0 14.817V20.8109C0 21.9336 0.527697 22.462 1.65907 22.462H9.66889V23.6837C8.96752 23.6837 8.29036 23.6895 7.61404 23.6837C5.27614 23.6598 3.70808 25.7095 4.19068 27.7931C4.54053 29.3128 5.89568 30.3752 7.53054 30.3884C8.89237 30.3992 10.2542 30.395 11.616 30.3884C14.1568 30.3983 18.7967 30.4182 20.288 30.367C21.1524 30.3358 21.971 29.9741 22.5712 29.3582C23.1714 28.7423 23.5065 27.9202 23.5059 27.065C23.5184 25.2777 22.1574 23.829 20.3155 23.706C19.6317 23.6606 18.942 23.6878 18.2548 23.6804C18.1454 23.6804 18.0361 23.6705 17.9325 23.6655V22.4587H18.3199C19.5281 22.4587 20.7413 22.4587 21.9454 22.4587C22.9548 22.4545 23.5067 21.9031 23.5076 20.9051C23.5076 18.3097 23.5076 15.7146 23.5076 13.1197C23.5076 12.4478 23.5076 11.7761 23.5076 11.1047C23.5076 9.86642 23.5076 6.04516 23.5076 5.2436V4.9134H27.1898V5.26671C27.1898 6.34812 27.1497 7.43201 27.2048 8.51012C27.2365 9.13585 27.1146 9.58327 26.4675 9.78222C26.4099 9.80646 26.3564 9.83932 26.3089 9.87963C26.0793 10.0347 25.9029 10.2552 25.803 10.5117C25.703 10.7682 25.6844 11.0487 25.7495 11.316C25.8889 11.8889 26.258 12.2439 26.8466 12.366C26.956 12.3892 27.0654 12.4073 27.1898 12.4296C27.1898 12.6682 27.1756 12.8952 27.1898 13.1197C27.2039 13.1997 27.1892 13.2821 27.1484 13.3525C27.1075 13.4229 27.043 13.4769 26.966 13.5052C26.7413 13.6136 26.5253 13.7386 26.3197 13.8792C25.8664 14.1962 25.6518 14.6378 25.7211 15.186C25.7945 15.758 26.1235 16.1469 26.6779 16.3318C26.845 16.3769 27.0149 16.4111 27.1864 16.4341C27.1864 16.6636 27.1706 16.8898 27.1906 17.1127C27.209 17.3174 27.1338 17.4338 26.9501 17.5254C26.7351 17.6298 26.5275 17.7487 26.3289 17.8812C26.0913 18.0398 25.9088 18.2668 25.8064 18.5316C25.704 18.7963 25.6866 19.0858 25.7566 19.3607C25.8266 19.6355 25.9806 19.8824 26.1976 20.0676C26.4146 20.2528 26.6841 20.3674 26.9693 20.3957C27.0378 20.4031 27.1054 20.4197 27.1856 20.4345C27.1856 20.6772 27.1722 20.9042 27.1856 21.1288C27.1995 21.2092 27.1844 21.2918 27.1429 21.3623C27.1013 21.4328 27.0361 21.4866 26.9585 21.5143C26.7629 21.6111 26.5736 21.7197 26.3915 21.8395C25.8371 22.1928 25.5933 22.7864 25.7486 23.3849C25.8998 23.9627 26.3949 24.3548 27.0478 24.4077C27.0873 24.4134 27.1263 24.4217 27.1647 24.4324C27.1798 24.7742 27.133 25.1193 27.2215 25.423C27.4962 26.3707 27.821 27.3052 28.1308 28.243C28.2017 28.4584 28.3512 28.5963 28.59 28.5946C28.8288 28.593 28.9724 28.4502 29.0451 28.2372C29.6011 26.6225 30.2282 25.0218 29.9927 23.2602C29.9869 23.2403 29.9869 23.2191 29.9927 23.1991C30.0579 23.086 30.1013 22.9424 30.1981 22.8689C30.4144 22.7113 30.6716 22.6064 30.8887 22.4496C31.097 22.3094 31.2607 22.1134 31.3607 21.8847C31.4606 21.6559 31.4927 21.4038 31.4531 21.1577C31.3838 20.6079 31.0682 20.2331 30.5505 20.0358C30.3801 19.9842 30.2059 19.9459 30.0295 19.9211C29.8817 19.3036 29.966 18.8 30.6624 18.5837C30.7495 18.5487 30.8293 18.498 30.8978 18.4343C31.3446 18.0728 31.55 17.6171 31.4364 17.0433C31.3103 16.4028 30.8519 16.0379 30.017 15.9165C29.8884 15.0415 29.8976 15.0217 30.649 14.5858C30.7117 14.5495 30.7751 14.5148 30.8361 14.4744C31.0731 14.3211 31.2571 14.0999 31.3635 13.8404C31.4699 13.5809 31.4936 13.2955 31.4314 13.0223C31.3736 12.7564 31.2362 12.5138 31.0371 12.3261C30.8381 12.1384 30.5864 12.0143 30.315 11.9698L29.9986 11.912C29.9986 11.6751 30.0111 11.4489 29.9986 11.2244C29.984 11.1445 29.9982 11.062 30.0388 10.9914C30.0794 10.9208 30.1438 10.8665 30.2207 10.838C30.4461 10.7312 30.662 10.6058 30.8661 10.4633C31.3387 10.1281 31.5491 9.66912 31.4506 9.0954C31.3579 8.53406 31.0172 8.17331 30.477 7.99748C30.3199 7.95937 30.1603 7.93179 29.9994 7.91493C29.9994 6.94001 29.9994 5.97417 30.0078 5.00833C30.0069 4.93569 30.1113 4.85314 30.1856 4.81104ZM17.3831 16.5984C17.7655 16.605 18.1488 16.5984 18.5471 16.5984V19.1657H14.4858V14.1161H18.542V15.6697C18.1446 15.6697 17.7622 15.6697 17.3789 15.6697C17.0316 15.6697 16.8254 15.8406 16.817 16.1138C16.8087 16.3871 17.0232 16.5926 17.3831 16.5984ZM9.93607 4.91175H18.5446V13.1428H11.8882L9.93607 4.91175ZM19.9556 24.6149C20.123 24.6153 20.2903 24.625 20.4566 24.6438C21.8017 24.794 22.7945 26.1396 22.534 27.4546C22.2935 28.6574 21.3133 29.454 20.0391 29.4589C18.8176 29.4631 15.249 29.4589 12.7123 29.4589C12.6288 29.4548 12.552 29.4589 12.4727 29.4589H10.4204H10.3819C9.43342 29.4589 8.48491 29.4589 7.53722 29.4531C5.84475 29.4449 4.6758 27.9218 5.13169 26.3567C5.44564 25.2835 6.40584 24.6149 7.64493 24.614C11.7496 24.6124 15.8532 24.6127 19.9556 24.6149ZM10.6491 23.6532V22.4875H16.9539V23.6532H10.6491ZM21.9145 21.5308C15.1446 21.5308 8.37441 21.5308 1.60397 21.5308C1.07877 21.5308 0.935995 21.388 0.935995 20.8704V20.4535H1.31089C3.14447 20.4535 4.97778 20.4535 6.8108 20.4535C7.90962 20.4535 8.55254 19.8154 8.55421 18.7249C8.55421 18.0868 8.55922 17.4478 8.55421 16.8097C8.54586 15.8373 7.88624 15.1785 6.90599 15.1752C5.05237 15.1695 3.19791 15.1752 1.34429 15.1752H0.959374C0.875877 14.2011 0.970228 14.0947 1.88451 14.0947H13.503C13.5097 14.2391 13.5206 14.358 13.5206 14.4777C13.5206 16.1254 13.5206 17.7728 13.5206 19.42C13.5206 19.9821 13.6517 20.1117 14.2228 20.1117C15.7541 20.1117 17.2849 20.1117 18.8151 20.1117C19.3637 20.1117 19.4989 19.9764 19.4989 19.4381V14.1161H22.5474C22.5541 14.2135 22.5657 14.3109 22.5657 14.4092C22.5657 16.572 22.5657 18.7345 22.5657 20.8968C22.5682 21.3905 22.4263 21.5308 21.9145 21.5308ZM0.956869 19.5067V16.1147C1.07042 16.1097 1.17229 16.1014 1.27332 16.1014C3.10523 16.1014 4.93686 16.1014 6.76822 16.1014C7.40279 16.1014 7.61654 16.3111 7.61738 16.927C7.61821 17.5428 7.62322 18.1817 7.61738 18.8091C7.61237 19.2598 7.36689 19.5223 6.93605 19.5232C4.98 19.527 3.02368 19.527 1.06708 19.5232C1.03029 19.5201 0.993745 19.5146 0.957704 19.5067H0.956869ZM28.5833 26.5449C28.271 25.7962 28.0314 25.0466 28.1308 24.2335C28.1436 24.1303 28.1963 24.0359 28.2777 23.9702C28.509 23.8158 28.7587 23.6887 29.0292 23.5351C29.1311 24.5909 29.0826 25.5906 28.5842 26.5449H28.5833ZM30.4762 21.1073C30.619 21.355 30.5213 21.6158 30.2098 21.7941C29.2841 22.3246 28.3568 22.853 27.4277 23.3791C27.3011 23.4384 27.1709 23.4899 27.0378 23.5335C26.9192 23.4138 26.7523 23.3048 26.6771 23.1529C26.5727 22.9407 26.6888 22.7476 26.8833 22.6295C27.2106 22.4306 27.5463 22.2457 27.8795 22.0558C28.5007 21.7008 29.1202 21.345 29.7431 20.9942C30.0587 20.8143 30.3334 20.8597 30.4762 21.1073ZM29.0401 19.5496C29.111 20.3536 29.0242 20.4741 28.1567 20.792C28.0439 20.0597 28.1224 19.9491 29.0409 19.5496H29.0401ZM30.467 17.097C30.6073 17.3191 30.5697 17.5618 30.3443 17.6938C29.3423 18.2824 28.3337 18.8496 27.3242 19.4274C27.2312 19.4622 27.135 19.4879 27.037 19.5042C26.9418 19.4258 26.7497 19.3432 26.7088 19.2128C26.6621 19.0667 26.7205 18.8636 26.7923 18.7117C26.8366 18.6168 26.9852 18.5656 27.0929 18.5037C27.9279 18.0249 28.7645 17.5469 29.6028 17.0698C29.6922 17.0186 29.7832 16.9674 29.8767 16.9237C30.1263 16.8015 30.3326 16.8824 30.4678 17.097H30.467ZM29.0317 15.564C29.1369 16.307 29.0492 16.4275 28.1683 16.785C28.0156 16.0973 28.1984 15.8389 29.0325 15.564H29.0317ZM30.5079 13.1767C30.5497 13.2788 30.5506 13.3928 30.5104 13.4955C30.4703 13.5983 30.392 13.682 30.2917 13.7298C29.3136 14.2939 28.3331 14.8536 27.3501 15.4089C27.246 15.4518 27.1385 15.486 27.0286 15.5112C26.9226 15.4047 26.7564 15.2958 26.6788 15.143C26.5711 14.9317 26.6863 14.7402 26.88 14.6197C27.153 14.4546 27.4353 14.2977 27.715 14.1384C28.3988 13.7488 29.081 13.3558 29.7681 12.9703C30.0971 12.7854 30.4077 12.8779 30.5088 13.1767H30.5079ZM29.03 11.5661C29.1386 12.3008 28.995 12.4981 28.15 12.7763C28.0548 12.0193 28.1992 11.822 29.0309 11.5661H29.03ZM30.5413 9.41074C30.482 9.48339 30.4035 9.65839 30.2691 9.73517C29.3139 10.2973 28.3487 10.8438 27.3835 11.3862C27.1171 11.5364 26.8357 11.4687 26.7055 11.2376C26.5752 11.0064 26.6445 10.7514 26.9 10.6036C27.8678 10.0431 28.8388 9.48586 29.8157 8.94021C30.1597 8.75034 30.5388 8.95589 30.5413 9.41074ZM29.0651 8.05692C29.0746 8.13192 29.0589 8.20792 29.0204 8.27324C28.9819 8.33857 28.9228 8.38959 28.8522 8.41849C28.6226 8.53158 28.4046 8.66614 28.1341 8.82298V4.91587H29.0609V5.74138C29.0609 6.51488 29.0568 7.2859 29.0651 8.05692ZM29.4826 3.96159C27.4202 3.9682 25.357 3.96159 23.2947 3.96159C22.6977 3.96159 22.5666 4.0945 22.5666 4.69299C22.5666 5.64645 22.5666 9.48586 22.5666 10.9726C22.5666 11.5813 22.5666 12.1899 22.5666 12.7986V13.1445H19.5256V0.927041H26.8274C27.7133 0.927041 28.5984 0.920437 29.4834 0.927041C30.3518 0.936121 31.0223 1.55773 31.0607 2.3692C31.1016 3.25579 30.4161 3.96242 29.4851 3.96242L29.4826 3.96159Z" fill="black"/>
<path d="M7.50464 25.4998C7.29747 25.4942 7.09126 25.5296 6.89811 25.6039C6.70497 25.6782 6.5288 25.7899 6.37993 25.9325C6.23107 26.0751 6.11253 26.2456 6.03126 26.4341C5.94999 26.6226 5.90764 26.8252 5.90669 27.0301C5.90575 27.235 5.94623 27.4381 6.02575 27.6273C6.10527 27.8165 6.22224 27.9881 6.36978 28.132C6.51732 28.2759 6.69246 28.3892 6.88491 28.4652C7.07736 28.5413 7.28323 28.5785 7.49045 28.5748C7.89682 28.5675 8.28416 28.4033 8.56959 28.1172C8.85503 27.8312 9.01588 27.446 9.01774 27.0442C9.01959 26.6423 8.8623 26.2558 8.57952 25.9671C8.29674 25.6785 7.91093 25.5108 7.50464 25.4998ZM7.46206 27.6461C7.29986 27.641 7.14634 27.5725 7.03509 27.4557C6.92383 27.3389 6.8639 27.1833 6.8684 27.0229C6.86837 26.9434 6.88445 26.8648 6.91571 26.7915C6.94696 26.7183 6.99274 26.6521 7.05034 26.5966C7.10795 26.5412 7.17621 26.4978 7.25108 26.4689C7.32596 26.44 7.40593 26.4263 7.48627 26.4285C7.64877 26.4285 7.80471 26.4919 7.92024 26.6048C8.03577 26.7178 8.10155 26.8713 8.10331 27.032C8.10267 27.1141 8.0855 27.1952 8.05278 27.2707C8.02007 27.3462 7.97248 27.4145 7.91278 27.4716C7.85309 27.5287 7.78249 27.5734 7.7051 27.6033C7.62771 27.6331 7.54509 27.6474 7.46206 27.6453V27.6461Z" fill="black"/>
<path d="M20.1326 28.5748C20.4393 28.5722 20.7384 28.48 20.9922 28.3099C21.246 28.1397 21.4433 27.8991 21.5593 27.6184C21.6753 27.3377 21.7047 27.0294 21.6439 26.7322C21.5831 26.435 21.4348 26.1622 21.2177 25.948C21.0005 25.7339 20.7242 25.588 20.4234 25.5287C20.1227 25.4694 19.8109 25.4994 19.5273 25.6148C19.2436 25.7301 19.0009 25.9258 18.8294 26.1773C18.658 26.4287 18.5655 26.7246 18.5637 27.0278C18.5639 27.2313 18.6047 27.4327 18.6837 27.6205C18.7626 27.8084 18.8783 27.979 19.024 28.1227C19.1697 28.2663 19.3426 28.3802 19.5328 28.4578C19.723 28.5354 19.9268 28.5751 20.1326 28.5748V28.5748ZM20.1151 26.4285C20.1956 26.4262 20.2759 26.4396 20.3512 26.468C20.4265 26.4964 20.4954 26.5392 20.5539 26.5939C20.6125 26.6487 20.6596 26.7143 20.6924 26.7871C20.7253 26.8598 20.7433 26.9383 20.7455 27.0179C20.7478 27.1808 20.6846 27.3379 20.5697 27.4547C20.4549 27.5715 20.2978 27.6385 20.133 27.6408C19.9683 27.6431 19.8093 27.5806 19.6912 27.467C19.5731 27.3534 19.5054 27.1981 19.5031 27.0352C19.5027 26.9556 19.5183 26.8767 19.5489 26.8031C19.5796 26.7294 19.6246 26.6625 19.6815 26.6061C19.7384 26.5497 19.8059 26.505 19.8804 26.4745C19.9548 26.444 20.0345 26.4284 20.1151 26.4285V26.4285Z" fill="black"/>
<path d="M29.5352 1.98947C28.9131 1.97462 28.2894 1.97544 27.6673 1.98947C27.6044 1.98719 27.5416 1.9977 27.483 2.02037C27.4243 2.04304 27.371 2.07738 27.3263 2.12126C27.2816 2.16514 27.2465 2.21763 27.2231 2.27548C27.1998 2.33332 27.1887 2.39529 27.1906 2.45753C27.1906 2.71262 27.3868 2.89835 27.6807 2.90661C27.9921 2.91569 28.3036 2.90661 28.615 2.90661C28.9265 2.90661 29.217 2.91404 29.5176 2.90661C29.5799 2.91012 29.6422 2.90117 29.7008 2.88031C29.7595 2.85945 29.8133 2.82711 29.859 2.78521C29.9047 2.74332 29.9414 2.69273 29.9669 2.63649C29.9924 2.58024 30.0061 2.51949 30.0073 2.45787C30.0085 2.39625 29.9971 2.33503 29.9738 2.27787C29.9505 2.22071 29.9157 2.16879 29.8716 2.12521C29.8276 2.08163 29.775 2.0473 29.7172 2.02426C29.6594 2.00122 29.5975 1.98995 29.5352 1.99113V1.98947Z" fill="black"/>
<path d="M12.7507 27.0617C12.7511 27.1185 12.7629 27.1746 12.7854 27.2269C12.8078 27.2792 12.8405 27.3265 12.8816 27.3663C12.9226 27.406 12.9712 27.4373 13.0246 27.4584C13.0779 27.4796 13.1349 27.49 13.1924 27.4893C13.3886 27.5025 13.5865 27.4893 13.7835 27.4893C13.9806 27.4893 14.201 27.4992 14.4064 27.4893C14.6728 27.4736 14.8723 27.2763 14.8606 27.0352C14.8481 26.7777 14.7012 26.5944 14.4432 26.5796C14.0182 26.5577 13.5923 26.5577 13.1673 26.5796C13.1072 26.5821 13.0483 26.5969 12.9942 26.6229C12.9401 26.649 12.892 26.6858 12.853 26.731C12.8139 26.7762 12.7846 26.8289 12.767 26.8858C12.7494 26.9427 12.7439 27.0026 12.7507 27.0617V27.0617Z" fill="black"/>
<path d="M11.3212 26.5713C11.135 26.5614 10.948 26.5713 10.761 26.5713H10.2316C10.2107 26.5713 10.1898 26.5713 10.1698 26.5713C9.88091 26.5952 9.68887 26.7818 9.6897 27.0377C9.69053 27.2936 9.88425 27.4859 10.174 27.4934C10.5581 27.5033 10.9421 27.5033 11.3262 27.4934C11.6135 27.4851 11.8097 27.287 11.8072 27.0336C11.8047 26.7801 11.6101 26.587 11.3212 26.5713Z" fill="black"/>
<path d="M16.2818 27.4893C16.6648 27.4992 17.0486 27.4992 17.4332 27.4893C17.7221 27.4818 17.9191 27.2862 17.9191 27.0336C17.9191 26.781 17.7213 26.5845 17.4357 26.5697C17.2395 26.5589 17.0416 26.5697 16.8445 26.5697C16.6475 26.5697 16.4713 26.5614 16.2851 26.5697C15.9929 26.5853 15.8067 26.7703 15.8059 27.0311C15.805 27.292 15.9887 27.4835 16.2818 27.4893Z" fill="black"/>
<path d="M13.0905 12.2455C14.4265 12.2398 15.7558 12.2455 17.0884 12.2414C17.4699 12.2414 17.6252 12.0763 17.6278 11.6842C17.6278 11.3419 17.6278 10.9996 17.6278 10.6573C17.6278 9.43552 17.6278 6.79555 17.6278 6.37372C17.6278 5.98078 17.4608 5.81568 17.05 5.81485C15.301 5.81155 13.552 5.81155 11.803 5.81485C11.3597 5.81485 11.1668 6.05425 11.2661 6.47526C11.6836 8.24679 12.1061 10.0167 12.5236 11.7882C12.5946 12.0928 12.7632 12.2472 13.0905 12.2455ZM16.6918 6.7518C16.6918 7.09108 16.6918 9.65262 16.6918 10.7538C16.6918 10.9338 16.6918 11.1154 16.6918 11.3003H13.3728C13.0137 9.78305 12.6572 8.27816 12.2957 6.7518H16.6918Z" fill="black"/>
<path d="M5.68774 18.4087C5.70694 18.6696 5.86141 18.8256 6.1286 18.838C6.39579 18.8504 6.58365 18.696 6.60286 18.4451C6.62959 18.0245 6.62959 17.6026 6.60286 17.182C6.59871 17.1226 6.58212 17.0646 6.55414 17.0118C6.52616 16.959 6.4874 16.9125 6.44032 16.8752C6.39323 16.838 6.33884 16.8108 6.28059 16.7954C6.22233 16.78 6.16148 16.7768 6.10188 16.7858C5.83386 16.8147 5.69609 16.9757 5.6844 17.2374C5.67605 17.4214 5.6844 17.6072 5.6844 17.7921C5.68524 18.0009 5.67271 18.2073 5.68774 18.4087Z" fill="black"/>
<path d="M2.87143 17.2332C2.87111 17.1739 2.85893 17.1152 2.83562 17.0605C2.8123 17.0059 2.77829 16.9563 2.73555 16.9146C2.6928 16.873 2.64216 16.8401 2.58653 16.8178C2.5309 16.7956 2.47138 16.7844 2.41137 16.785C2.35123 16.7819 2.29109 16.791 2.23459 16.8116C2.17809 16.8322 2.12639 16.8639 2.08262 16.9048C2.03885 16.9457 2.0039 16.9949 1.9799 17.0495C1.95589 17.1041 1.94333 17.1629 1.94295 17.2225C1.92876 17.6129 1.92959 18.0042 1.94295 18.3947C1.94644 18.5131 1.99611 18.6256 2.08159 18.7087C2.16707 18.7918 2.28172 18.8389 2.40156 18.8403C2.5214 18.8417 2.63714 18.7972 2.72456 18.7161C2.81199 18.6351 2.86431 18.5237 2.8706 18.4054C2.88479 18.2106 2.8706 18.015 2.8706 17.8193C2.8706 17.6237 2.88312 17.428 2.87143 17.2332Z" fill="black"/>
<path d="M4.74424 18.3675C4.75426 18.1933 4.74424 18.0183 4.74424 17.8433C4.74424 17.6476 4.75259 17.452 4.74424 17.2571C4.72837 16.9666 4.54051 16.7833 4.27499 16.785C4.00947 16.7866 3.82077 16.9682 3.81409 17.2604C3.80491 17.6303 3.80407 18.0034 3.81409 18.3708C3.8216 18.6597 4.01448 18.8454 4.27916 18.8446C4.54385 18.8438 4.72754 18.6564 4.74424 18.3675Z" fill="black"/>
</svg>
