<svg width="28" height="32" viewBox="0 0 28 32" fill="none" xmlns="http://www.w3.org/2000/svg">
<path d="M9.59968 8.42528L13.7748 1.10063C13.7951 1.07572 13.8223 1.05271 13.8565 1.03478C13.8986 1.01265 13.9481 1 14 1C14.0519 1 14.1014 1.01265 14.1435 1.03478C14.1777 1.05271 14.2049 1.07572 14.2252 1.10063L18.4003 8.42528L19.1332 9.71107L20.0527 8.55134L23.9472 3.63911L23.9473 3.63914L23.9532 3.63154C23.9835 3.59252 24.0304 3.55819 24.0909 3.53994C24.1517 3.5216 24.2179 3.52224 24.2781 3.54161C24.338 3.56089 24.3839 3.59588 24.4131 3.63507C24.442 3.67369 24.4545 3.71555 24.4545 3.75468V11.123C24.4545 11.8231 24.1666 12.5021 23.6419 13.0085C23.1159 13.516 22.3951 13.8072 21.6364 13.8072H15.2727H14.2727V14.8072V26.1299L16.2156 26.463C17.0518 24.0961 18.632 22.0321 20.744 20.5607C22.5747 19.2853 24.7252 18.5111 26.967 18.3133C26.5139 25.4718 21.4338 31 14 31C6.56618 31 1.48606 25.4718 1.03301 18.3133C3.27479 18.5111 5.42528 19.2853 7.25596 20.5607C9.36805 22.0321 10.9482 24.0961 11.7844 26.463L13.7273 26.1299V14.8072V13.8072H12.7273H6.36364C5.60491 13.8072 4.88413 13.516 4.35814 13.0085C3.83336 12.5021 3.54545 11.8231 3.54545 11.123V3.75468C3.54545 3.71555 3.558 3.6737 3.58685 3.63507C3.61613 3.59587 3.66196 3.56089 3.7219 3.54161C3.78212 3.52224 3.84825 3.5216 3.90908 3.53994C3.96964 3.55819 4.0165 3.59253 4.04682 3.63154L4.04678 3.63157L4.05276 3.63911L7.94731 8.55134L8.86677 9.71107L9.59968 8.42528Z" stroke="black" stroke-width="2"/>
</svg>
